<svg xmlns="http://www.w3.org/2000/svg" version="1.1" xmlns:xlink="http://www.w3.org/1999/xlink" xmlns:svgjs="http://svgjs.dev/svgjs" width="1500" height="1687" viewBox="0 0 1500 1687"><g transform="matrix(1,0,0,1,0.00011015625000254659,0)"><svg viewBox="0 0 320 360" data-background-color="#243837" preserveAspectRatio="xMidYMid meet" height="1687" width="1500" xmlns="http://www.w3.org/2000/svg" xmlns:xlink="http://www.w3.org/1999/xlink"><g id="tight-bounds" transform="matrix(1,0,0,1,0.000023499999997511622,0)"><svg viewBox="0 0 320 360" height="360" width="320"><g><svg></svg></g><g><svg viewBox="0 0 320 360" height="360" width="320"><g><path transform="translate(-74.99272,-51.79039) scale(4.65793,4.65793)" d="M20.6 59.9l0.8 1-0.4-1.3c-0.1-0.6-0.8 0.1-0.4 0.3M21.5 59.3c0.3 0.5 0.6 1 0.6 1.5 0 0.7 0.6 1 1.1 1.2-0.7-0.8-1.1-3-1.7-2.7M59.9 16.9c1.7 0 3.3-0.2 5.1 0.2 4.4 1.1 8.1 3.3 10.6 6.4l7 11.2c0.3 2.8 0.9 5.9 0.8 9.3 0.7 0 0.6-1 1.4-1.2-0.8 2-1.2 4.5-1.4 7.4-0.5-1.6 0-4 0.1-5.3-0.7 1.1-1.1 0.3-1.1-0.2 0.1-0.8-0.3-0.7-0.6-1-1.1-1-1.8-2.1-2.6-3.8 0.5-1.3 0.6-3.2-1-4.2-0.5-0.3-1.1-0.8-1.4-1.6-0.4-1.1-1.1-2.4-0.9-4.1 0.1-0.5-1.5 1.1-2.4 0.4-3.9-2.7-7.8-5.8-12.5-8.4-2.5 0-4.3-0.9-5.2-2-0.8-1-0.2-2.3 1-2.4 0.7 0 1.5-0.2 2.1 0.2 0.1-0.4 0.5-0.9 1-0.9M50 14.6l0.2 0.1c1 0.2 1.5 1.6 2.6 1.1 0 0.7 0.1 1.4-0.1 1.9-0.3 0.8-1.2 0.8-1.9 0.8-6.7-0.4-10.6 2.4-14.7 4.8-1.1 0.7-2.3 1.2-3.2 2.1-4.3 4-9 7.7-10.1 15.1l-0.9 8.2c-0.1 0.9-1.1 1.8-0.9 2.9l0.7 4.9c-0.7-0.7-1.1 0.2-0.9 0.6 0.1 0.3 0.5 1.3 1.1 0.4 0.8 1.5 1.6 4.4 2.7 5.7 3.4 4 7.8 7.6 11.4 11.2 0.9-0.2 1.6-0.2 1.8-0.8 0.3 0.6-0.3 1.2-0.8 1.3 1.6 1 3.4 1.9 5.8 2.1 3.1 0.2 6 0.7 8.7 1.4 1.4-0.4 2.8-0.6 4.3-0.7 0.5 0 0.8-0.8 1.4-1l0.1-1c0.6 0.9 0.5-0.3 0.1-0.9 0.7 0.6 0.9 1.1 1.2 1.5 0-0.3 0.8-1.4 0.8-0.1l0.2-1.3c0.3-0.2 0.4 1.1 0.7 0.2 0.3-0.9 0.9-0.2 1.5-0.5-0.2 0.4-0.1 1.2 0.6 0.7l0.8-0.7c0.5 1.2 1.3 0.7 1.7 0.5 4.4-2.8 8.8-6.1 13-9.4l-0.1 1.3 0.5-1.6c0.5 0.5 0.9 0.1 1.1-0.2 0.6-1 1.4-2 2.7-2.9-1.6 4.3-3.5 7.7-5.9 10.5l-1 1.2c0 0.7-0.2 1.6-1 1.7-0.4 0.1-1.2-0.2-1.8 0.4-0.3 0.4 0.7 1.2-0.1 0.6-0.7-0.5-1.4 0-2.2 0.2-0.6 0.2 0.4 0.8 0.6 1.2 0.2 0.4 0.4 0.8 0.3 1.3l-1.1-1.2c-1.3 0.7-2.1 2-3.2 3-0.5 0.4-0.3 1.1-0.3 1.7-0.7 0-1.5-0.2-1.9 0.2-0.3 0.4-0.2 1-0.2 1.6-1-0.1-1.1-1.6-2-1.3-0.9 0.2-1.9 0.3-2.7 0.8 0.6 1.2-1 0.5-0.8 0.7-1.5-0.9-2.8-1.6-4.4-1-3.4-1.1-7.6-0.6-10.7-0.2 0-0.5 0.1-1-0.1-1.1-0.2 0.5-0.8 0.3-0.7 0.3-1.9-1.3-3.8-2.1-5.8-3.2-1.8 0.2-3.5-0.7-4-1.2-1.4-1.3-3-0.6-4.3-0.9-2.8-0.7-3.8-3.6-4.1-5.6-0.2-1-1-1.4-1.3-1.3-1.3-4.2-3.3-8-4.9-11.9-0.4-1-0.3-2-0.3-3.1 0.5 0.2 1 0.1 0.9-0.6-0.5-3.3-1.7-5.8-3-8.2 0.7-3.4 0.8-7.4 2.4-10.4 1.4-2.7 4-4.1 5.8-6.4 0.6-0.8 0.6-1.9 1.2-2.6 2-2 4-4.1 6.2-5.9 1-0.8 2.2 0 3.7-0.3 0.5-1.8 2.5-3.4 4.4-2.9 0.8 0.2 2.4-1.9 2.9-2.1 0.8-0.3 0.4 0.8 0.4 1.5 1.9-1.5 4.5-2.3 6.9-3.2" fill="#fe7833" fill-rule="nonzero" stroke="none" stroke-width="1" stroke-linecap="butt" stroke-linejoin="miter" stroke-miterlimit="10" stroke-dasharray="" stroke-dashoffset="0" font-family="none" font-weight="none" font-size="none" text-anchor="none" style="mix-blend-mode: normal" data-fill-palette-color="tertiary"></path></g><g transform="matrix(1,0,0,1,64,120.33444903461508)"><svg viewBox="0 0 192 119.33110193076985" height="119.33110193076985" width="192"><g><svg viewBox="0 0 192 119.33110193076985" height="119.33110193076985" width="192"><g><svg viewBox="0 0 192 119.33110193076985" height="119.33110193076985" width="192"><g transform="matrix(1,0,0,1,0,71.1527458511196)"><svg viewBox="0 0 192 48.17835607965024" height="48.17835607965024" width="192"><g id="textblocktransform"><svg viewBox="0 0 192 48.17835607965024" height="48.17835607965024" width="192" id="textblock"><g><svg viewBox="0 0 192 31.319438536792855" height="31.319438536792855" width="192"><g transform="matrix(1,0,0,1,0,0)"><svg width="192" viewBox="0.55 -37 235.07999999999998 38.35" height="31.319438536792855" data-palette-color="#fe7833"><path d="M5.65-8.3L5.7-6.5 5.8-4.5 5.8-4.35Q8.65-3.2 11.5-3.2 14.35-3.2 16.03-4.53 17.7-5.85 17.7-8.4L17.7-8.4Q17.7-9.9 15.55-11.78 13.4-13.65 10.8-15.15 8.2-16.65 6.05-18.57 3.9-20.5 3.9-22.1L3.9-22.1Q3.9-25.6 7.13-28.88 10.35-32.15 14.2-33.3L14.2-33.3Q18.5-33.3 22.35-32.45L22.35-32.45 22.35-31.45Q19.75-29.05 19.45-24.05L19.45-24.05 18.2-24.05Q18.2-26.7 17.95-28.7L17.95-28.7Q15.8-29.7 13.18-29.7 10.55-29.7 8.9-28.6 7.25-27.5 7.25-25.45L7.25-25.45Q7.25-23.95 9.4-22.1 11.55-20.25 14.13-18.78 16.7-17.3 18.85-15.4 21-13.5 21-11.9L21-11.9Q21-8.25 17.78-4.5 14.55-0.75 10.75 0.75L10.75 0.75Q6.8 0.75 3.4-0.15L3.4-0.15Q2.35 0.35 1.3 1.35L1.3 1.35 0.55 0.65Q4-3 4.4-9L4.4-9 5.65-9 5.65-8.3ZM31.75-9.75L31.75-9.75Q31.75-2.85 33.25-2.85L33.25-2.85Q36-2.85 38.95-5.5L38.95-5.5 39.45-5Q36.55-0.95 32.4 0.75L32.4 0.75Q29.55 0.75 28.75-1.85L28.75-1.85Q28.05-4.05 28.05-9.45L28.05-9.45Q28.05-10.4 28.05-11.5L28.05-11.5 28.25-21.45 25.55-21.45 25.45-21.55Q25.45-22.35 25.6-22.65L25.6-22.65Q29.8-25.4 31.1-28.35L31.1-28.35Q31.7-28.5 32.5-28.5L32.5-28.5 32.7-28.4Q32.2-25.4 32.1-23.55L32.1-23.55 39.1-23.8 39.3-23.6Q38.95-22.7 38.65-21.25L38.65-21.25Q36.1-21.4 31.95-21.4L31.95-21.4 31.75-11.5Q31.75-10.6 31.75-9.75ZM52.65 0.75Q48.3 0.75 45.5-2.18 42.7-5.1 42.7-9.85 42.7-14.6 45.57-18.82 48.45-23.05 53.15-24.25L53.15-24.25Q57.8-24.25 60.2-21.55 62.59-18.85 62.59-14.1 62.59-9.35 59.8-5.15 57-0.95 52.65 0.75L52.65 0.75ZM51.8-21.15L51.8-21.15Q49.7-21.15 48.34-19.95L48.34-19.95Q46.7-16.8 46.7-12.7 46.7-8.6 48.55-5.48 50.4-2.35 53.5-2.35L53.5-2.35Q55.59-2.35 57-3.6L57-3.6Q58.59-6.65 58.59-11.03 58.59-15.4 56.92-18.28 55.25-21.15 51.8-21.15ZM84.09-14.55L84.09-14.55Q84.09-20.15 81.79-20.15L81.79-20.15Q79.84-20.15 77.19-17.7 74.54-15.25 73.64-13.15L73.64-13.15Q73.64-5.9 74.19-1.5L74.19-1.5Q75.54-1.2 77.34-0.55L77.34-0.55 77.24 0.4Q74.44 0 71.94 0 69.44 0 66.89 0.3L66.89 0.3 66.74-0.65Q68.24-1.3 69.69-1.65L69.69-1.65Q70.14-5.05 70.14-9.5L70.14-9.5 70.14-13.7Q70.14-18.3 69.79-21.85L69.79-21.85Q68.59-22.25 67.09-22.25L67.09-22.25 67.09-23.3Q70.29-23.45 73.84-24.25L73.84-24.25 74.19-24.05Q73.64-20.6 73.64-16.25L73.64-16.25 73.84-16.2Q75.54-18.55 78.27-21.03 80.99-23.5 83.19-24.25L83.19-24.25Q86.24-24.25 87.14-21.5L87.14-21.5Q87.74-19.55 87.74-16.7L87.74-16.7Q87.74-16.25 87.74-15.7L87.74-15.7 87.49-1.65Q88.94-1.3 90.44-0.65L90.44-0.65 90.29 0.3Q87.89 0 86.22 0 84.54 0 83.04 0.1L83.04 0.1 83.04-0.6Q83.84-4.5 84.04-13.45L84.04-13.45Q84.09-13.95 84.09-14.55ZM104.09-2.85L104.09-2.85Q107.24-2.85 110.24-5.5L110.24-5.5 110.79-5Q107.94-1.1 103.49 0.75L103.49 0.75Q99.09 0.75 96.89-2 94.69-4.75 94.69-9.65 94.69-14.55 97.44-18.78 100.19-23 104.79-24.25L104.79-24.25Q108.14-24.25 109.49-22.93 110.84-21.6 110.84-18.25L110.84-18.25Q110.84-16.35 110.34-15L110.34-15Q111.39-14.6 112.79-14.6L112.79-14.6 112.74-13.55Q112.44-13.55 112.09-13.55L112.09-13.55Q106.49-13.55 98.69-11.9L98.69-11.9Q98.69-5.25 101.29-3.6L101.29-3.6Q102.39-2.85 104.09-2.85ZM106.84-15.25Q106.84-18.55 106.22-19.85 105.59-21.15 103.59-21.15 101.59-21.15 100.14-19.95L100.14-19.95Q98.79-17.15 98.69-13.2L98.69-13.2Q102.79-14.55 106.84-15.25L106.84-15.25ZM114.29-31.2L114.29-32.45 128.69-32.9Q134.74-32.9 136.64-31.4L136.64-31.4Q138.49-30 138.49-27.15 138.49-24.3 136.54-22.03 134.59-19.75 131.79-18.6L131.79-18.6 131.79-18.4Q135.39-18.4 137.64-16.75 139.89-15.1 139.89-11.85L139.89-11.85Q139.89-7.85 136.16-4.13 132.44-0.4 128.09 0.75L128.09 0.75Q124.94 0.75 120.74-1.15L120.74-1.15Q119.89 0.15 119.59 1.1L119.59 1.1 118.54 0.85Q119.74-4.6 119.74-15.15 119.74-25.7 119.19-30.4L119.19-30.4Q116.79-31.2 114.29-31.2L114.29-31.2ZM126.04-19.1L126.64-19.1Q130.34-19.1 131.99-20.15L131.99-20.15Q133.79-22.15 133.79-25.45L133.79-25.45Q133.79-31.05 127.84-31.05L127.84-31.05Q125.84-31.05 124.04-30.4L124.04-30.4Q123.59-25.7 123.59-17.18 123.59-8.65 123.84-4.25L123.84-4.25Q126.44-2.85 129.41-2.85 132.39-2.85 134.14-4.05L134.14-4.05Q135.29-6.5 135.29-9.55L135.29-9.55Q135.29-17.25 125.79-17.25L125.79-17.25 126.04-19.1ZM154.19-2.85L154.19-2.85Q157.34-2.85 160.34-5.5L160.34-5.5 160.88-5Q158.03-1.1 153.59 0.75L153.59 0.75Q149.19 0.75 146.98-2 144.78-4.75 144.78-9.65 144.78-14.55 147.53-18.78 150.28-23 154.88-24.25L154.88-24.25Q158.23-24.25 159.59-22.93 160.94-21.6 160.94-18.25L160.94-18.25Q160.94-16.35 160.44-15L160.44-15Q161.49-14.6 162.88-14.6L162.88-14.6 162.84-13.55Q162.53-13.55 162.19-13.55L162.19-13.55Q156.59-13.55 148.78-11.9L148.78-11.9Q148.78-5.25 151.38-3.6L151.38-3.6Q152.48-2.85 154.19-2.85ZM156.94-15.25Q156.94-18.55 156.31-19.85 155.69-21.15 153.69-21.15 151.69-21.15 150.23-19.95L150.23-19.95Q148.88-17.15 148.78-13.2L148.78-13.2Q152.88-14.55 156.94-15.25L156.94-15.25ZM182.83-14.55L182.83-14.55Q182.83-20.15 180.53-20.15L180.53-20.15Q178.58-20.15 175.93-17.7 173.28-15.25 172.38-13.15L172.38-13.15Q172.38-5.9 172.93-1.5L172.93-1.5Q174.28-1.2 176.08-0.55L176.08-0.55 175.98 0.4Q173.18 0 170.68 0 168.18 0 165.63 0.3L165.63 0.3 165.48-0.65Q166.98-1.3 168.43-1.65L168.43-1.65Q168.88-5.05 168.88-9.5L168.88-9.5 168.88-13.7Q168.88-18.3 168.53-21.85L168.53-21.85Q167.33-22.25 165.83-22.25L165.83-22.25 165.83-23.3Q169.03-23.45 172.58-24.25L172.58-24.25 172.93-24.05Q172.38-20.6 172.38-16.25L172.38-16.25 172.58-16.2Q174.28-18.55 177.01-21.03 179.73-23.5 181.93-24.25L181.93-24.25Q184.98-24.25 185.88-21.5L185.88-21.5Q186.48-19.55 186.48-16.7L186.48-16.7Q186.48-16.25 186.48-15.7L186.48-15.7 186.23-1.65Q187.68-1.3 189.18-0.65L189.18-0.65 189.03 0.3Q186.63 0 184.96 0 183.28 0 181.78 0.1L181.78 0.1 181.78-0.6Q182.58-4.5 182.78-13.45L182.78-13.45Q182.83-13.95 182.83-14.55ZM202.83-2.85L202.83-2.85Q205.58-2.85 208.53-5.5L208.53-5.5 209.03-5Q206.13-0.95 201.98 0.75L201.98 0.75Q197.63 0.75 195.53-2 193.43-4.75 193.43-9.7 193.43-14.65 196.23-18.85 199.03-23.05 203.53-24.25L203.53-24.25Q206.58-24.25 209.58-23.45L209.58-23.45 209.58-22.75Q207.63-20.35 207.43-17.5L207.43-17.5 206.33-17.5Q206.33-19.45 206.23-20.55L206.23-20.55Q204.18-21.15 202.18-21.15 200.18-21.15 198.88-19.95L198.88-19.95Q197.43-16.9 197.43-12.25L197.43-12.25Q197.43-5.25 199.98-3.6L199.98-3.6Q201.13-2.85 202.83-2.85ZM229.53-14.55L229.53-14.55Q229.53-20.15 227.23-20.15L227.23-20.15Q225.28-20.15 222.63-17.7 219.98-15.25 219.08-13.15L219.08-13.15Q219.08-5.9 219.63-1.5L219.63-1.5Q220.98-1.2 222.78-0.55L222.78-0.55 222.68 0.4Q219.88 0 217.38 0 214.88 0 212.33 0.3L212.33 0.3 212.18-0.65Q213.68-1.3 215.13-1.65L215.13-1.65Q215.58-5.05 215.58-9.5L215.58-9.5 215.58-18.8Q215.58-31.95 214.38-36.7L214.38-36.7 215.43-37Q215.88-35.4 216.58-34.35L216.58-34.35Q219.33-34.8 221.93-35.55L221.93-35.55 222.18-34.65Q221.23-33.9 219.83-33.2L219.83-33.2Q219.08-29.1 219.08-16.25L219.08-16.25 219.28-16.2Q220.98-18.55 223.7-21.03 226.43-23.5 228.63-24.25L228.63-24.25Q231.68-24.25 232.58-21.5L232.58-21.5Q233.18-19.55 233.18-16.7L233.18-16.7Q233.18-16.25 233.18-15.7L233.18-15.7 232.93-1.65Q234.13-1.25 235.63-1.25L235.63-1.25 235.63-0.2Q232.43-0.05 228.88 0.75L228.88 0.75 228.53 0.55Q229.33-4.3 229.48-13.45L229.48-13.45Q229.53-13.95 229.53-14.55Z" opacity="1" transform="matrix(1,0,0,1,0,0)" fill="#fe7833" class="wordmark-text-0" data-fill-palette-color="primary" id="text-0"></path></svg></g></svg></g><g transform="matrix(1,0,0,1,0,35.88969628583582)"><svg viewBox="0 0 192 12.288659793814432" height="12.288659793814432" width="192"><g transform="matrix(1,0,0,1,0,0)"><svg width="192" viewBox="2.64 -39.84 795.62 50.92" height="12.288659793814432" data-palette-color="#fe7833"><path d="M22.75-35.99L29.44-35.99 18.75-14.65 18.75 0 12.79 0 12.79-14.16 2.64-35.99 9.33-35.99 15.53-19.87 16.06-19.87 22.75-35.99ZM47.95-27.69L47.95-27.69Q50.78-27.69 53.07-26.59 55.37-25.49 56.98-23.58 58.59-21.68 59.47-19.14 60.35-16.6 60.35-13.67L60.35-13.67Q60.35-10.74 59.42-8.18 58.49-5.62 56.81-3.74 55.12-1.86 52.81-0.81 50.49 0.24 47.65 0.24L47.65 0.24Q44.77 0.24 42.4-0.83 40.04-1.9 38.4-3.81 36.77-5.71 35.89-8.25 35.01-10.79 35.01-13.77 35.01-16.75 35.96-19.34 36.91-21.92 38.6-23.75 40.28-25.59 42.67-26.64 45.07-27.69 47.95-27.69ZM47.56-4.39L47.56-4.39Q49.02-4.39 50.22-5.1 51.41-5.81 52.27-7.06 53.12-8.3 53.64-10.01 54.15-11.72 54.15-13.67L54.15-13.67Q54.15-15.63 53.68-17.33 53.22-19.04 52.41-20.34 51.61-21.63 50.44-22.41 49.27-23.19 47.8-23.19L47.8-23.19Q46.34-23.19 45.11-22.46 43.89-21.73 43.04-20.48 42.19-19.24 41.72-17.55 41.26-15.87 41.26-13.92L41.26-13.92Q41.26-11.96 41.67-10.23 42.09-8.5 42.92-7.23 43.75-5.96 44.89-5.18 46.04-4.39 47.56-4.39ZM67.82-26.61L67.82-26.56 67.82-27.54 73.77-27.54 73.77-12.55Q73.77-10.84 73.92-9.35 74.07-7.86 74.56-6.74 75.04-5.62 76.02-4.93 77-4.25 78.61-4.25L78.61-4.25Q79.1-4.25 79.98-4.37 80.85-4.49 81.76-4.79 82.66-5.08 83.47-5.52 84.27-5.96 84.66-6.54L84.66-6.54 84.66-6.88 84.66-6.93 84.66-17.87 84.66-17.92 84.66-27.54 90.62-27.54 90.62 0 85.3 0 84.66-2.83Q84.08-2.29 83.2-1.76 82.32-1.22 81.27-0.76 80.22-0.29 79.12-0.02 78.02 0.24 76.95 0.24L76.95 0.24Q75.78 0.24 74.85 0.02 73.92-0.2 73.12-0.66 72.31-1.12 71.58-1.71 70.84-2.29 70.11-3.03L70.11-3.03Q69.28-3.86 68.79-4.96 68.31-6.05 68.09-7.25 67.87-8.45 67.84-9.67 67.82-10.89 67.82-12.06L67.82-12.06 67.82-26.61ZM114.4-27.73L114.4-21.58Q113.03-21.97 111.08-22.02L111.08-22.02Q109.32-22.02 107.59-21.61 105.85-21.19 104.83-20.21L104.83-20.21 104.83-9.77 104.83-9.67 104.83 0 98.92 0 98.92-27.54 104.19-27.54 104.83-24.71Q105.56-25.44 106.36-26.03 107.17-26.61 108.24-26.98 109.32-27.34 110.78-27.54 112.25-27.73 114.4-27.73L114.4-27.73ZM140.17-12.99L140.17 0 134.31 0 134.31-35.99 144.67-35.99Q146.96-35.99 149.21-35.25 151.45-34.52 153.23-33.06 155.02-31.59 156.12-29.52 157.21-27.44 157.21-24.85L157.21-24.85Q157.21-22.12 156.29-19.9 155.36-17.68 153.7-16.16 152.04-14.65 149.69-13.82 147.35-12.99 144.52-12.99L144.52-12.99 140.17-12.99ZM144.57-31.54L140.17-31.54 140.17-17.29 145.54-17.29Q146.62-17.29 147.67-17.65 148.72-18.02 149.6-18.85 150.48-19.68 151.01-21.17 151.55-22.66 151.55-24.85L151.55-24.85Q151.55-25.73 151.31-26.88 151.06-28.03 150.3-29.08 149.55-30.13 148.18-30.83 146.81-31.54 144.57-31.54L144.57-31.54ZM183.58-14.89L183.58-8.54 183.58-8.15Q183.58-7.76 183.63-7.01 183.68-6.25 183.82-5.47 183.97-4.69 184.29-4.05 184.6-3.42 185.14-3.22L185.14-3.22 183.58 0.05Q182.94 0.05 182.24-0.24 181.53-0.54 180.87-1.07 180.21-1.61 179.75-2.27 179.28-2.93 179.04-3.71L179.04-3.71Q178.7-2.88 177.84-2.17 176.99-1.46 175.91-0.9 174.84-0.34 173.59-0.05 172.35 0.24 171.27 0.24L171.27 0.24Q169.61 0.24 168.08-0.2 166.54-0.63 165.37-1.61 164.19-2.59 163.53-4.2 162.88-5.81 162.88-8.15L162.88-8.15Q162.88-10.4 163.83-12.04 164.78-13.67 166.27-14.72 167.76-15.77 169.66-16.28 171.57-16.8 173.52-16.8L173.52-16.8 177.67-16.8Q177.67-19.19 177.43-20.61 177.18-22.02 176.6-22.68 176.01-23.34 175.16-23.51 174.3-23.68 173.13-23.68L173.13-23.68Q172.06-23.68 171.1-23.41 170.15-23.14 169.35-22.78 168.54-22.41 167.93-21.97 167.32-21.53 167.03-21.29L167.03-21.29 164.83-24.66Q165.32-25.2 166.29-25.76 167.27-26.32 168.54-26.76 169.81-27.2 171.3-27.47 172.79-27.73 174.4-27.73L174.4-27.73Q175.86-27.73 177.26-27.44 178.65-27.15 179.79-26.46 180.94-25.78 181.8-24.63 182.65-23.49 182.99-21.78L182.99-21.78Q183.33-20.07 183.46-18.33 183.58-16.6 183.58-14.89L183.58-14.89ZM177.72-6.59L177.72-13.33 174.59-13.33Q173.62-13.33 172.54-13.13 171.47-12.94 170.54-12.4 169.61-11.87 169-10.86 168.39-9.86 168.39-8.3L168.39-8.3Q168.39-5.86 169.49-4.79 170.59-3.71 172.69-3.71L172.69-3.71Q174.15-3.71 175.5-4.49 176.84-5.27 177.72-6.59L177.72-6.59ZM208.38-27.73L208.38-21.58Q207.01-21.97 205.06-22.02L205.06-22.02Q203.3-22.02 201.57-21.61 199.84-21.19 198.81-20.21L198.81-20.21 198.81-9.77 198.81-9.67 198.81 0 192.9 0 192.9-27.54 198.18-27.54 198.81-24.71Q199.54-25.44 200.35-26.03 201.15-26.61 202.23-26.98 203.3-27.34 204.77-27.54 206.23-27.73 208.38-27.73L208.38-27.73ZM222.54-23.54L222.54-8.35Q222.54-6.69 222.98-5.76 223.42-4.83 224.22-4.35 225.03-3.86 226.03-3.74 227.03-3.61 228.15-3.61L228.15-3.61 228.15 0Q227.52 0.1 226.88 0.15L226.88 0.15Q226.35 0.2 225.59 0.22 224.83 0.24 224.1 0.24L224.1 0.24Q223.37 0.24 222.61 0.2 221.86 0.15 221.32 0.05L221.32 0.05Q219.66-0.24 218.73-1.39 217.8-2.54 217.34-3.93 216.87-5.32 216.75-6.64 216.63-7.96 216.63-8.69L216.63-8.69 216.63-23.54 213.02-23.54 213.02-27.54 216.63-27.54 216.63-35.35 222.54-35.35 222.54-27.54 226.93-27.54 226.93-23.54 222.54-23.54ZM257.89-0.98L257.89 0 251.93 0 251.93-14.99Q251.93-16.65 251.78-18.16 251.64-19.68 251.1-20.85 250.56-22.02 249.64-22.68 248.71-23.34 247.05-23.34L247.05-23.34Q246.51-23.34 245.66-23.19 244.8-23.05 243.9-22.75 243-22.46 242.19-22.02 241.38-21.58 240.99-21L240.99-21 240.99-20.7 240.99-20.61 240.99-9.77 240.99-9.67 240.99 0 235.08 0 235.08-27.54 240.36-27.54 240.99-24.76Q241.58-25.29 242.48-25.85 243.39-26.42 244.46-26.86 245.53-27.29 246.66-27.56 247.78-27.83 248.85-27.83L248.85-27.83Q251.05-27.83 252.57-26.9 254.08-25.98 255.59-24.51L255.59-24.51Q256.42-23.68 256.89-22.58 257.35-21.48 257.57-20.29 257.79-19.09 257.84-17.87 257.89-16.65 257.89-15.48L257.89-15.48 257.89-0.98ZM277.56-27.83L277.56-27.83Q280.88-27.83 283.42-26.49 285.96-25.15 287.6-22.92 289.23-20.7 289.94-17.8 290.65-14.89 290.21-11.77L290.21-11.77 271.07-11.77Q271.07-10.21 271.65-8.89 272.24-7.57 273.24-6.62 274.24-5.66 275.63-5.13 277.03-4.59 278.64-4.59L278.64-4.59Q279.17-4.59 279.98-4.71 280.79-4.83 281.69-5.15 282.59-5.47 283.5-5.96 284.4-6.45 285.08-7.13L285.08-7.13 287.23-3.86Q285.62-1.86 283.47-0.83 281.32 0.2 278 0.2L278 0.2Q275.32 0.2 272.97-0.9 270.63-2 268.97-3.91 267.31-5.81 266.33-8.35 265.36-10.89 265.36-13.82L265.36-13.82Q265.36-16.7 266.33-19.26 267.31-21.83 268.94-23.73 270.58-25.63 272.83-26.73 275.07-27.83 277.56-27.83ZM271.26-16.06L284.74-16.06Q284.74-17.38 284.25-18.65 283.76-19.92 282.91-20.95 282.06-21.97 280.83-22.58 279.61-23.19 278.2-23.24L278.2-23.24Q276.68-23.24 275.41-22.66 274.14-22.07 273.22-21.09 272.29-20.12 271.78-18.77 271.26-17.43 271.26-16.06L271.26-16.06ZM313.94-27.73L313.94-21.58Q312.57-21.97 310.62-22.02L310.62-22.02Q308.86-22.02 307.13-21.61 305.39-21.19 304.37-20.21L304.37-20.21 304.37-9.77 304.37-9.67 304.37 0 298.46 0 298.46-27.54 303.73-27.54 304.37-24.71Q305.1-25.44 305.91-26.03 306.71-26.61 307.79-26.98 308.86-27.34 310.32-27.54 311.79-27.73 313.94-27.73L313.94-27.73ZM339.52-27.54L339.52 0 333.56 0 333.56-27.54 339.52-27.54ZM340.06-36.33L340.06-36.33Q340.06-34.86 339.03-33.86 338-32.86 336.54-32.86L336.54-32.86Q335.07-32.86 334.07-33.89 333.07-34.91 333.07-36.33L333.07-36.33Q333.07-37.79 334.1-38.82 335.12-39.84 336.54-39.84L336.54-39.84Q338-39.84 339.03-38.82 340.06-37.79 340.06-36.33ZM370.62-0.98L370.62 0 364.66 0 364.66-14.99Q364.66-16.65 364.52-18.16 364.37-19.68 363.83-20.85 363.3-22.02 362.37-22.68 361.44-23.34 359.78-23.34L359.78-23.34Q359.24-23.34 358.39-23.19 357.53-23.05 356.63-22.75 355.73-22.46 354.92-22.02 354.12-21.58 353.72-21L353.72-21 353.72-20.7 353.72-20.61 353.72-9.77 353.72-9.67 353.72 0 347.82 0 347.82-27.54 353.09-27.54 353.72-24.76Q354.31-25.29 355.21-25.85 356.12-26.42 357.19-26.86 358.27-27.29 359.39-27.56 360.51-27.83 361.59-27.83L361.59-27.83Q363.78-27.83 365.3-26.9 366.81-25.98 368.32-24.51L368.32-24.51Q369.15-23.68 369.62-22.58 370.08-21.48 370.3-20.29 370.52-19.09 370.57-17.87 370.62-16.65 370.62-15.48L370.62-15.48 370.62-0.98ZM409.63-18.95L409.63-18.95Q410.75-18.8 412.02-18.21 413.29-17.63 414.39-16.55 415.49-15.48 416.22-13.94 416.95-12.4 416.95-10.4L416.95-10.4Q416.95-7.96 416.22-6.2 415.49-4.44 414.39-3.3 413.29-2.15 412-1.49 410.7-0.83 409.51-0.49 408.31-0.15 407.38-0.07 406.45 0 406.16 0L406.16 0 392.64 0 392.64-35.99 402.99-35.99Q405.28-35.99 407.43-35.45 409.58-34.91 411.24-33.74 412.9-32.57 413.88-30.69 414.85-28.81 414.85-26.22L414.85-26.22Q414.85-24.71 414.36-23.46 413.88-22.22 413.14-21.29 412.41-20.36 411.46-19.75 410.51-19.14 409.63-18.95ZM398.5-4.3L405.82-4.3Q408.41-4.3 409.87-5.96 411.34-7.62 411.34-10.4L411.34-10.4Q411.34-13.04 409.82-14.84 408.31-16.65 405.38-16.65L405.38-16.65 398.5-16.65 398.5-4.3ZM398.74-20.61L402.84-20.61Q403.92-20.61 405.04-20.65 406.16-20.7 407.14-21.19 408.11-21.68 408.72-22.85 409.34-24.02 409.34-26.22L409.34-26.22Q409.34-27.1 409.09-28.05 408.85-29 408.11-29.79 407.38-30.57 406.01-31.05 404.65-31.54 402.4-31.54L402.4-31.54 398.5-31.54 398.5-20.61 398.74-20.61ZM424.71-26.61L424.71-26.56 424.71-27.54 430.67-27.54 430.67-12.55Q430.67-10.84 430.82-9.35 430.96-7.86 431.45-6.74 431.94-5.62 432.92-4.93 433.89-4.25 435.5-4.25L435.5-4.25Q435.99-4.25 436.87-4.37 437.75-4.49 438.65-4.79 439.56-5.08 440.36-5.52 441.17-5.96 441.56-6.54L441.56-6.54 441.56-6.88 441.56-6.93 441.56-17.87 441.56-17.92 441.56-27.54 447.52-27.54 447.52 0 442.19 0 441.56-2.83Q440.97-2.29 440.09-1.76 439.22-1.22 438.17-0.76 437.12-0.29 436.02-0.02 434.92 0.24 433.84 0.24L433.84 0.24Q432.67 0.24 431.74 0.02 430.82-0.2 430.01-0.66 429.21-1.12 428.47-1.71 427.74-2.29 427.01-3.03L427.01-3.03Q426.18-3.86 425.69-4.96 425.2-6.05 424.98-7.25 424.76-8.45 424.74-9.67 424.71-10.89 424.71-12.06L424.71-12.06 424.71-26.61ZM461.72-27.54L461.72 0 455.77 0 455.77-27.54 461.72-27.54ZM462.26-36.33L462.26-36.33Q462.26-34.86 461.23-33.86 460.21-32.86 458.74-32.86L458.74-32.86Q457.28-32.86 456.28-33.89 455.28-34.91 455.28-36.33L455.28-36.33Q455.28-37.79 456.3-38.82 457.33-39.84 458.74-39.84L458.74-39.84Q460.21-39.84 461.23-38.82 462.26-37.79 462.26-36.33ZM475.88-37.94L475.88-8.4Q475.88-6.74 476.32-5.79 476.76-4.83 477.54-4.37 478.32-3.91 479.32-3.76 480.32-3.61 481.5-3.61L481.5-3.61 481.5 0Q480.86 0.1 480.18 0.15L480.18 0.15Q479.64 0.2 478.91 0.22 478.18 0.24 477.44 0.24L477.44 0.24Q476.71 0.24 475.98 0.2 475.25 0.15 474.66 0.05L474.66 0.05Q473-0.29 472.07-1.42 471.14-2.54 470.66-3.93 470.17-5.32 470.05-6.64 469.92-7.96 469.92-8.69L469.92-8.69 469.92-9.28 469.92-37.94 475.88-37.94ZM489.6-2.78L489.6-2.78Q487.74-4.88 486.86-7.96 485.99-11.04 485.99-14.16L485.99-14.16Q485.99-17.97 487.03-20.56 488.08-23.14 489.74-24.76 491.41-26.37 493.43-27.08 495.46-27.78 497.41-27.78L497.41-27.78Q499.8-27.78 501.78-26.95 503.76-26.12 504.74-24.76L504.74-24.76 504.74-37.94 510.69-37.94 510.69 0 505.08 0Q504.98-0.83 504.91-1.68 504.83-2.54 504.74-3.27L504.74-3.27Q504.59-2.64 503.88-2 503.17-1.37 502.07-0.85 500.98-0.34 499.61-0.05 498.24 0.24 496.78 0.24L496.78 0.24Q494.82 0.24 492.94-0.44 491.06-1.12 489.6-2.78ZM492.24-13.72L492.24-13.72Q492.24-11.77 492.72-10.08 493.21-8.4 494.04-7.13 494.87-5.86 496.07-5.13 497.26-4.39 498.68-4.39L498.68-4.39Q500.19-4.39 501.39-5.15 502.59-5.91 503.42-7.18 504.25-8.45 504.69-10.16 505.13-11.87 505.13-13.82L505.13-13.82Q505.13-15.77 504.66-17.48 504.2-19.19 503.34-20.46 502.49-21.73 501.29-22.49 500.1-23.24 498.58-23.24L498.58-23.24Q497.07-23.24 495.9-22.49 494.73-21.73 493.92-20.41 493.11-19.09 492.67-17.38 492.24-15.67 492.24-13.72ZM524.95-27.54L524.95 0 518.99 0 518.99-27.54 524.95-27.54ZM525.48-36.33L525.48-36.33Q525.48-34.86 524.46-33.86 523.43-32.86 521.97-32.86L521.97-32.86Q520.5-32.86 519.5-33.89 518.5-34.91 518.5-36.33L518.5-36.33Q518.5-37.79 519.53-38.82 520.55-39.84 521.97-39.84L521.97-39.84Q523.43-39.84 524.46-38.82 525.48-37.79 525.48-36.33ZM556.05-0.98L556.05 0 550.09 0 550.09-14.99Q550.09-16.65 549.94-18.16 549.8-19.68 549.26-20.85 548.72-22.02 547.8-22.68 546.87-23.34 545.21-23.34L545.21-23.34Q544.67-23.34 543.82-23.19 542.96-23.05 542.06-22.75 541.16-22.46 540.35-22.02 539.54-21.58 539.15-21L539.15-21 539.15-20.7 539.15-20.61 539.15-9.77 539.15-9.67 539.15 0 533.25 0 533.25-27.54 538.52-27.54 539.15-24.76Q539.74-25.29 540.64-25.85 541.55-26.42 542.62-26.86 543.69-27.29 544.82-27.56 545.94-27.83 547.02-27.83L547.02-27.83Q549.21-27.83 550.73-26.9 552.24-25.98 553.75-24.51L553.75-24.51Q554.58-23.68 555.05-22.58 555.51-21.48 555.73-20.29 555.95-19.09 556-17.87 556.05-16.65 556.05-15.48L556.05-15.48 556.05-0.98ZM566.4 6.93L569.82 3.56Q570.3 4.39 571.06 4.93 571.82 5.47 572.62 5.76 573.43 6.05 574.23 6.18 575.04 6.3 575.67 6.3L575.67 6.3Q578.7 6.3 580.41 4.54 582.12 2.78 582.12-1.46L582.12-1.46 582.12-2.73 582.12-2.83 582.17-3.08Q582.17-3.13 582.14-3.17 582.12-3.22 582.12-3.27L582.12-3.27Q581.97-2.64 581.27-2 580.56-1.37 579.48-0.85 578.41-0.34 577.04-0.05 575.67 0.24 574.21 0.24L574.21 0.24Q571.48 0.24 569.42-0.95 567.37-2.15 566.01-4.15 564.64-6.15 564-8.74 563.37-11.33 563.37-14.16L563.37-14.16Q563.37-17.97 564.42-20.56 565.47-23.14 567.11-24.78 568.74-26.42 570.77-27.1 572.79-27.78 574.75-27.78L574.75-27.78Q577.14-27.78 579.12-26.95 581.09-26.12 582.12-24.76L582.12-24.76 582.75-27.54 588.03-27.54 587.98 0Q587.78 2.98 586.78 5.08 585.78 7.18 584.22 8.54 582.66 9.91 580.61 10.5 578.56 11.08 576.21 11.08L576.21 11.08Q573.48 11.08 570.82 10.13 568.16 9.18 566.4 6.93L566.4 6.93ZM582.51-13.96L582.51-13.96Q582.51-15.92 582.02-17.58 581.53-19.24 580.7-20.51 579.87-21.78 578.65-22.51 577.43-23.24 576.02-23.24L576.02-23.24Q574.55-23.24 573.36-22.49 572.16-21.73 571.33-20.46 570.5-19.19 570.06-17.48 569.62-15.77 569.62-13.87L569.62-13.87Q569.62-11.91 570.08-10.18 570.55-8.45 571.4-7.18 572.26-5.91 573.45-5.15 574.65-4.39 576.11-4.39L576.11-4.39Q577.63-4.39 578.8-5.15 579.97-5.91 580.78-7.2 581.58-8.5 582.05-10.25 582.51-12.01 582.51-13.96ZM649.99-35.99L656.63-35.99 646.91 0.2 639.29 0.2 633.38-26.95 627.09 0.2 619.42 0.2 610.29-35.99 616.93-35.99 623.28-4.93 630.11-35.99 636.75-35.99 643.1-4.93 649.99-35.99ZM675.81-27.83L675.81-27.83Q679.13-27.83 681.67-26.49 684.21-25.15 685.85-22.92 687.48-20.7 688.19-17.8 688.9-14.89 688.46-11.77L688.46-11.77 669.32-11.77Q669.32-10.21 669.91-8.89 670.49-7.57 671.49-6.62 672.49-5.66 673.89-5.13 675.28-4.59 676.89-4.59L676.89-4.59Q677.43-4.59 678.23-4.71 679.04-4.83 679.94-5.15 680.84-5.47 681.75-5.96 682.65-6.45 683.33-7.13L683.33-7.13 685.48-3.86Q683.87-1.86 681.72-0.83 679.57 0.2 676.25 0.2L676.25 0.2Q673.57 0.2 671.22-0.9 668.88-2 667.22-3.91 665.56-5.81 664.58-8.35 663.61-10.89 663.61-13.82L663.61-13.82Q663.61-16.7 664.58-19.26 665.56-21.83 667.2-23.73 668.83-25.63 671.08-26.73 673.32-27.83 675.81-27.83ZM669.52-16.06L682.99-16.06Q682.99-17.38 682.5-18.65 682.02-19.92 681.16-20.95 680.31-21.97 679.09-22.58 677.86-23.19 676.45-23.24L676.45-23.24Q674.93-23.24 673.67-22.66 672.4-22.07 671.47-21.09 670.54-20.12 670.03-18.77 669.52-17.43 669.52-16.06L669.52-16.06ZM716.68-14.89L716.68-8.54 716.68-8.15Q716.68-7.76 716.73-7.01 716.78-6.25 716.92-5.47 717.07-4.69 717.39-4.05 717.71-3.42 718.24-3.22L718.24-3.22 716.68 0.05Q716.05 0.05 715.34-0.24 714.63-0.54 713.97-1.07 713.31-1.61 712.85-2.27 712.38-2.93 712.14-3.71L712.14-3.71Q711.8-2.88 710.94-2.17 710.09-1.46 709.01-0.9 707.94-0.34 706.7-0.05 705.45 0.24 704.38 0.24L704.38 0.24Q702.72 0.24 701.18-0.2 699.64-0.63 698.47-1.61 697.3-2.59 696.64-4.2 695.98-5.81 695.98-8.15L695.98-8.15Q695.98-10.4 696.93-12.04 697.88-13.67 699.37-14.72 700.86-15.77 702.76-16.28 704.67-16.8 706.62-16.8L706.62-16.8 710.77-16.8Q710.77-19.19 710.53-20.61 710.28-22.02 709.7-22.68 709.11-23.34 708.26-23.51 707.4-23.68 706.23-23.68L706.23-23.68Q705.16-23.68 704.2-23.41 703.25-23.14 702.45-22.78 701.64-22.41 701.03-21.97 700.42-21.53 700.13-21.29L700.13-21.29 697.93-24.66Q698.42-25.2 699.4-25.76 700.37-26.32 701.64-26.76 702.91-27.2 704.4-27.47 705.89-27.73 707.5-27.73L707.5-27.73Q708.97-27.73 710.36-27.44 711.75-27.15 712.9-26.46 714.04-25.78 714.9-24.63 715.75-23.49 716.09-21.78L716.09-21.78Q716.44-20.07 716.56-18.33 716.68-16.6 716.68-14.89L716.68-14.89ZM710.82-6.59L710.82-13.33 707.7-13.33Q706.72-13.33 705.65-13.13 704.57-12.94 703.64-12.4 702.72-11.87 702.11-10.86 701.49-9.86 701.49-8.3L701.49-8.3Q701.49-5.86 702.59-4.79 703.69-3.71 705.79-3.71L705.79-3.71Q707.26-3.71 708.6-4.49 709.94-5.27 710.82-6.59L710.82-6.59ZM731.86-37.94L731.86-8.4Q731.86-6.74 732.3-5.79 732.74-4.83 733.52-4.37 734.3-3.91 735.31-3.76 736.31-3.61 737.48-3.61L737.48-3.61 737.48 0Q736.84 0.1 736.16 0.15L736.16 0.15Q735.62 0.2 734.89 0.22 734.16 0.24 733.43 0.24L733.43 0.24Q732.69 0.24 731.96 0.2 731.23 0.15 730.64 0.05L730.64 0.05Q728.98-0.29 728.05-1.42 727.13-2.54 726.64-3.93 726.15-5.32 726.03-6.64 725.91-7.96 725.91-8.69L725.91-8.69 725.91-9.28 725.91-37.94 731.86-37.94ZM751.59-23.54L751.59-8.35Q751.59-6.69 752.03-5.76 752.47-4.83 753.27-4.35 754.08-3.86 755.08-3.74 756.08-3.61 757.2-3.61L757.2-3.61 757.2 0Q756.57 0.1 755.93 0.15L755.93 0.15Q755.4 0.2 754.64 0.22 753.88 0.24 753.15 0.24L753.15 0.24Q752.42 0.24 751.66 0.2 750.9 0.15 750.37 0.05L750.37 0.05Q748.71-0.24 747.78-1.39 746.85-2.54 746.39-3.93 745.92-5.32 745.8-6.64 745.68-7.96 745.68-8.69L745.68-8.69 745.68-23.54 742.07-23.54 742.07-27.54 745.68-27.54 745.68-35.35 751.59-35.35 751.59-27.54 755.98-27.54 755.98-23.54 751.59-23.54ZM786.94-0.98L786.94 0 780.98 0 780.98-14.99Q780.98-16.65 780.83-18.16 780.69-19.68 780.15-20.85 779.61-22.02 778.68-22.68 777.76-23.34 776.1-23.34L776.1-23.34Q775.56-23.34 774.71-23.19 773.85-23.05 772.95-22.75 772.04-22.46 771.24-22.02 770.43-21.58 770.04-21L770.04-21 770.04-20.7 770.04-20.61 770.04-9.77 770.04-9.67 770.04 0 764.13 0 764.13-37.94 770.04-37.94 770.04-24.76Q770.63-25.29 771.53-25.85 772.43-26.42 773.51-26.86 774.58-27.29 775.71-27.56 776.83-27.83 777.9-27.83L777.9-27.83Q780.1-27.83 781.61-26.9 783.13-25.98 784.64-24.51L784.64-24.51Q785.47-23.68 785.94-22.58 786.4-21.48 786.62-20.29 786.84-19.09 786.89-17.87 786.94-16.65 786.94-15.48L786.94-15.48 786.94-0.98ZM798.26-3.32L798.26-3.32Q798.26-1.86 797.24-0.83 796.21 0.2 794.75 0.2L794.75 0.2Q793.28 0.2 792.28-0.83 791.28-1.86 791.28-3.32L791.28-3.32Q791.28-4.79 792.31-5.79 793.33-6.79 794.75-6.79L794.75-6.79Q796.21-6.79 797.24-5.79 798.26-4.79 798.26-3.32Z" opacity="1" transform="matrix(1,0,0,1,0,0)" fill="#fe7833" class="slogan-text-1" data-fill-palette-color="secondary" id="text-1"></path></svg></g></svg></g></svg></g></svg></g><g transform="matrix(1,0,0,1,46.270248147848555,0)"><svg viewBox="0 0 99.45950370430289 66.58248810207664" height="66.58248810207664" width="99.45950370430289"><g><svg xmlns="http://www.w3.org/2000/svg" xmlns:xlink="http://www.w3.org/1999/xlink" version="1.1" x="0" y="0" viewBox="5.00103124357985 19.875047810119188 89.99913457151142 60.249308347851795" enable-background="new 0 0 100 100" xml:space="preserve" height="66.58248810207664" width="99.45950370430289" class="icon-icon-0" data-fill-palette-color="accent" id="icon-0"><path d="M44.979 66.698C43.697 65.022 42.055 63.645 40.248 63.617 41.359 61.161 40.443 59.03 37.026 56.843 36.097 56.249 35.138 56.14 34.191 56.32 35.158 54.531 35.196 52.656 33.033 50.594 31.317 48.958 29.674 48.439 28.152 48.937 28.215 48.683 28.243 48.423 28.178 48.158 27.693 46.141 26.285 44.867 24.582 43.796 21.296 41.732 18.327 44.66 16.24 46.848 14.543 48.625 12.762 50.32 10.95 51.977 9.877 52.957 8.567 54.031 8.395 55.594 8.017 59.037 11.314 62.855 14.733 61.117A11.1 11.1 0 0 0 13.067 63.816C11.237 68.099 16.354 71.552 20.011 71.227 20.427 71.19 20.741 70.798 20.875 70.383 20.877 70.628 20.89 70.875 20.925 71.124 21.436 74.783 28.11 76.59 30.885 75.014L30.897 75.004V75.006C31.387 76.8 33.626 78.371 35.321 78.805 37.077 79.254 38.767 78.275 39.909 77.04 40.85 76.021 41.707 75.013 42.754 74.086 43.525 73.403 44.592 72.904 45.186 72.048 46.394 70.307 46.088 68.417 44.979 66.698M14.01 59.805C11.163 61.264 9.402 55.377 11.54 53.493 13.343 51.907 15.067 50.229 16.757 48.523 17.593 47.679 18.402 46.807 19.222 45.947 22.303 42.718 27.972 47.367 24.744 50.752 24.259 51.261 24.419 51.746 24.787 51.96 22.264 55.333 18.103 57.419 15.266 60.512 15.397 59.956 14.802 59.399 14.01 59.805M20.913 69.776C20.845 69.516 20.656 69.328 20.279 69.361 15.66 69.773 13.081 65.01 16.587 61.475 18.54 59.506 20.862 58.047 22.946 56.246 24.591 54.824 26.824 50.366 29.397 50.48 30.714 50.539 32.499 52.814 33.031 53.834 33.677 55.072 32.514 56.477 31.493 57.527 30.078 58.483 28.798 59.762 27.829 60.66 25.281 63.02 21.298 66.055 20.913 69.776M30.789 73.435C30.651 73.445 30.502 73.48 30.328 73.579 26.791 75.589 20.862 70.833 23.717 67.096 25.089 65.3 26.737 63.714 28.393 62.182L30.862 59.895C31.076 59.942 31.331 59.876 31.598 59.596 31.903 59.276 32.202 58.954 32.49 58.632 34.518 57.583 36.493 58.651 38.152 60.233 39.361 61.385 38.908 62.969 38.061 64.276 37.801 64.439 37.54 64.625 37.276 64.857 35.158 66.725 31.154 70.074 30.789 73.435M40.152 74.486C38.82 75.815 37.901 77.506 35.655 76.931 34.46 76.625 32.488 74.801 32.509 73.506 32.55 71.129 35.268 68.651 37.163 66.964 37.412 67.056 37.73 67 38.039 66.677 38.39 66.308 38.697 65.951 38.981 65.599 40.768 64.853 42.257 66.382 43.408 67.887 45.431 71.016 42.12 72.524 40.152 74.486" fill="#fe7833" data-fill-palette-color="accent"></path><path d="M14.143 46.281C14.79 46.98 16.387 45.813 15.655 45.023 13.865 43.092 4.647 38.035 8.461 34.773 11.549 32.132 14.04 29.101 16.34 25.768 19.325 21.443 24.391 27.339 28.419 26.234 30.93 25.545 32.257 24.189 34.476 22.886 37.712 20.987 42.373 21.234 45.708 22.415 46.587 22.727 47.951 21.317 46.875 20.936 42.556 19.406 36.203 19.245 32.408 22.382 26.55 27.226 24.563 22.349 19.452 22.024 17.761 21.917 16.118 23.252 15.217 24.557 13.83 26.566 12.453 28.514 10.845 30.359 9.656 31.723 5.985 33.931 5.334 35.818 4.682 37.71 4.901 39.312 6.77 40.465 9.516 42.163 11.946 43.912 14.143 46.281" fill="#fe7833" data-fill-palette-color="accent"></path><path d="M94.953 34.955C94.319 31.105 90.751 28.578 88.034 26.064 86.767 24.89 84.367 18.581 81.362 20.197 78 22.007 70.36 27.753 66.51 24.238 63.843 21.804 61.572 20.386 57.845 20.058 52.25 19.565 46.847 25.043 42.653 28.004 38.26 31.106 40.785 36.082 44.37 38.549 47.052 40.394 50.439 38.048 52.543 36.444 56.876 33.14 62.886 38.232 66.155 40.983 69.002 43.378 71.172 46.504 73.509 49.364 75.698 52.045 78.585 53.912 81.438 55.788L82.821 56.697C85.434 58.414 85.075 65.873 79.585 63.301 77.52 62.334 75.719 60.456 74.061 58.926 70.836 55.951 66.907 53.552 64.222 50.096 63.468 49.125 62.784 50.896 63.36 51.638 65.942 54.962 69.473 56.659 72.394 59.638A44 44 0 0 0 75.504 62.542C75.422 62.741 75.437 62.959 75.612 63.17 76.908 64.728 78.746 66.309 78.316 68.541 78.068 69.834 76.283 70.919 75.114 71.124 74.015 71.317 73.13 71.041 72.117 70.67 71.825 70.563 71.509 70.644 71.246 70.803 69.846 65.944 61.978 61.523 59.151 58.457 58.304 57.539 57.413 59.141 58.072 59.856 61.121 63.16 73.76 70.596 68.036 75.223 64.673 77.942 60.377 72.607 58.211 70.611L52.009 64.894C51.169 64.119 50.543 65.976 51.231 66.609L57.995 72.844C58.005 72.886 57.995 72.923 58.014 72.968 58.947 75.245 58.124 76.268 56.309 77.772 54.654 79.143 52.286 78.729 50.657 77.616L46.429 74.731C45.63 74.187 44.071 75.193 45.103 75.898 47.504 77.537 50.26 80.193 53.361 80.123 55.755 80.068 57.466 79.177 59.136 77.505 59.986 76.654 60.388 75.913 60.48 75.133 60.764 75.394 61.047 75.657 61.332 75.918 63.735 78.134 67.378 78.688 69.75 76.137 70.968 74.827 71.47 73.526 71.466 72.247 74.401 73.214 77.473 72.596 79.445 70.015 80.686 68.389 80.46 66.832 79.691 65.381 79.862 65.469 80.03 65.564 80.204 65.645 84.853 67.823 88.29 59.226 85.072 56.289 83.343 54.711 81.304 53.545 79.351 52.262 76.137 50.149 73.946 47.192 71.55 44.278 68.283 40.302 61.86 33.196 56.133 33.203 51.637 33.208 46.916 40.29 43.027 35.056 40.146 31.179 44.585 28.961 47.111 27.178 49.075 25.792 50.993 24.305 53.071 23.094 54.921 22.017 57.484 21.877 59.528 22.241 63.044 22.865 64.304 25.05 66.935 26.929 70.208 29.271 72.692 26.336 75.966 25.35 77.822 24.791 79.364 23.799 80.908 22.651 83.309 20.866 85.241 25.279 86.266 26.596 87.644 28.367 89.569 29.765 91.122 31.383 93.451 33.805 92.977 35.748 91.669 37.502A10 10 0 0 0 91.065 36.604C90.734 36.178 90.325 35.859 89.905 35.529 89.443 35.166 88.832 36.195 89.305 36.567 89.986 37.103 90.451 37.72 90.902 38.423A33 33 0 0 1 89.74 39.619C89.515 39.841 89.307 40.079 89.094 40.312A23 23 0 0 0 86.757 38.565C86.236 38.224 85.402 38.828 86.058 39.258A21 21 0 0 1 88.429 41.053 34 34 0 0 0 86.852 43.093 13 13 0 0 0 85.797 41.754C84.937 40.811 83.881 40.183 82.814 39.507 82.319 39.194 81.821 40.282 82.331 40.604 83.243 41.182 84.122 41.73 84.896 42.491 85.381 42.969 85.786 43.509 86.166 44.067 85.728 44.704 85.293 45.345 84.858 45.988 83.9 45.002 82.907 44.128 81.715 43.343 81.177 42.988 80.657 44.056 81.136 44.371 82.296 45.135 83.268 45.978 84.203 46.94A49 49 0 0 1 82.913 48.732C82.672 48.356 82.436 47.976 82.136 47.643 81.762 47.228 81.314 46.951 80.842 46.663 80.201 46.273 79.979 47.355 80.478 47.659 80.819 47.867 81.171 48.058 81.462 48.338 81.78 48.648 82.005 49.026 82.246 49.396 82.27 49.433 82.297 49.452 82.322 49.48 82.104 49.75 81.89 50.024 81.662 50.285 81.046 50.989 81.885 52.758 82.641 51.895 84.423 49.86 85.883 47.671 87.401 45.501 87.669 45.436 87.915 45.098 87.898 44.791A61 61 0 0 1 89.653 42.423C89.75 42.299 89.857 42.176 89.97 42.052 90.228 41.998 90.431 41.834 90.392 41.619 92.284 39.775 95.422 37.809 94.953 34.955" fill="#fe7833" data-fill-palette-color="accent"></path><path d="M36.242 50.111C37.487 51.866 39.184 53.267 40.949 54.474 41.416 54.794 42.324 54.069 41.749 53.676 40.048 52.511 38.434 51.161 37.233 49.469 36.903 49.004 35.869 49.584 36.242 50.111" fill="#fe7833" data-fill-palette-color="accent"></path></svg></g></svg></g><g></g></svg></g></svg></g></svg></g></svg></g><defs></defs></svg><rect width="320" height="360" fill="none" stroke="none" visibility="hidden"></rect></g></svg></g></svg>