<svg xmlns="http://www.w3.org/2000/svg" version="1.1" xmlns:xlink="http://www.w3.org/1999/xlink" xmlns:svgjs="http://svgjs.dev/svgjs" width="2000" height="613" viewBox="0 0 2000 613"><g transform="matrix(1,0,0,1,0.21333333333336668,0.7787392086955265)"><svg viewBox="0 0 375 115" data-background-color="#e9e2da" preserveAspectRatio="xMidYMid meet" height="613" width="2000" xmlns="http://www.w3.org/2000/svg" xmlns:xlink="http://www.w3.org/1999/xlink"><g id="tight-bounds" transform="matrix(1,0,0,1,-0.03976000000000113,-0.14609299999997916)"><svg viewBox="0 0 375.07953 115.29218599999999" height="115.29218599999999" width="375.07953"><g><svg></svg></g><g><svg viewBox="0 0 375.07953 115.29218599999999" height="115.29218599999999" width="375.07953"><g transform="matrix(1,0,0,1,-10.22024,-70.44783000000001)"><path d="M10.22 176.752v-106.304h375.08v106.304h-20.321l0-3.003h17.317v-100.298h-369.072v100.298h32.631l0 3.003z" fill="#1b2141" fill-rule="nonzero" stroke="none" stroke-width="1" stroke-linecap="butt" stroke-linejoin="miter" stroke-miterlimit="10" stroke-dasharray="" stroke-dashoffset="0" font-family="none" font-weight="none" font-size="none" text-anchor="none" style="mix-blend-mode: normal" data-fill-palette-color="tertiary"></path><g><path transform="translate(55.16093,180.56891) scale(0.39324,0.39324)" d="M12.3-31.25v0l6.6 11.3 10.45-17.65-4.05-0.5c-0.133-0.5-0.133-1.117 0-1.85v0c1.833 0.133 3.667 0.2 5.5 0.2v0c1.6 0 3.467-0.05 5.6-0.15v0c0.2 0.6 0.2 1.2 0 1.8v0l-3.1 0.6c-1.433 1.633-2.533 3.117-3.3 4.45v0l-9.8 16v14.85l4.05 0.5c0.133 0.5 0.133 1.117 0 1.85v0c-2.1-0.1-4.383-0.15-6.85-0.15v0c-1.8 0-4.1 0.033-6.9 0.1v0c-0.2-0.6-0.2-1.2 0-1.8v0l4.15-0.6c0.133-1.267 0.2-3.217 0.2-5.85v0-9.05l-11.95-20.4-3.55-0.5c-0.133-0.5-0.133-1.117 0-1.85v0c1.833 0.133 4.333 0.2 7.5 0.2v0c2.9 0 5.433-0.05 7.6-0.15v0c0.2 0.6 0.2 1.2 0 1.8v0l-4.9 0.95c1.033 2.567 1.95 4.533 2.75 5.9zM32.15-13.3v0c0-2 0.29-3.877 0.87-5.63 0.587-1.747 1.43-3.27 2.53-4.57 1.1-1.3 2.423-2.327 3.97-3.08 1.553-0.747 3.297-1.12 5.23-1.12v0c1.9 0 3.633 0.373 5.2 1.12 1.567 0.753 2.91 1.78 4.03 3.08 1.113 1.3 1.97 2.823 2.57 4.57 0.6 1.753 0.9 3.63 0.9 5.63v0c0 2.067-0.307 3.967-0.92 5.7-0.62 1.733-1.49 3.24-2.61 4.52-1.113 1.287-2.453 2.287-4.02 3-1.567 0.72-3.283 1.08-5.15 1.08v0c-1.967 0-3.723-0.35-5.27-1.05-1.553-0.7-2.873-1.683-3.96-2.95-1.08-1.267-1.913-2.777-2.5-4.53-0.58-1.747-0.87-3.67-0.87-5.77zM39.45-22.5v0c-1.433 2.033-2.15 5.1-2.15 9.2v0c0 2.033 0.193 3.817 0.58 5.35 0.38 1.533 0.903 2.807 1.57 3.82 0.667 1.02 1.45 1.78 2.35 2.28 0.9 0.5 1.883 0.75 2.95 0.75v0c1.033 0 2.017-0.25 2.95-0.75 0.933-0.5 1.733-1.26 2.4-2.28 0.667-1.013 1.2-2.287 1.6-3.82 0.4-1.533 0.6-3.317 0.6-5.35v0c0-2.033-0.2-3.827-0.6-5.38-0.4-1.547-0.94-2.83-1.62-3.85-0.687-1.013-1.49-1.78-2.41-2.3-0.913-0.513-1.887-0.77-2.92-0.77v0c-2.067 0-3.833 1.033-5.3 3.1zM85.4-26.7v0 19.6c0 2.233 0.05 3.8 0.15 4.7v0l3.95 0.5c0.1 0.533 0.1 1.167 0 1.9v0c-2.433 0.1-4.967 0.333-7.6 0.7v0c-0.233-0.233-0.4-0.55-0.5-0.95v0l-0.25-4.45c-1.4 1.8-2.84 3.2-4.32 4.2-1.487 1-3.23 1.5-5.23 1.5v0c-2.033 0-3.743-0.517-5.13-1.55-1.38-1.033-2.07-2.8-2.07-5.3v0-11.1c0-3.8-0.05-6.233-0.15-7.3v0l-3.95-0.5c-0.133-0.5-0.133-1.133 0-1.9v0c2.3-0.167 5.167-0.517 8.6-1.05v0c0.3 0.333 0.467 0.667 0.5 1v0c-0.167 0.867-0.25 6.983-0.25 18.35v0c0 2.333 0.273 3.99 0.82 4.97 0.553 0.987 1.58 1.48 3.08 1.48v0c2.8 0 5.333-1.667 7.6-5v0-10.1c0-3.767-0.05-6.183-0.15-7.25v0l-3.95-0.5c-0.133-0.5-0.133-1.133 0-1.9v0c2-0.133 4.783-0.483 8.35-1.05v0c0.3 0.333 0.467 0.667 0.5 1zM101-26.7v0l-0.1 5.15c0.833-1.533 1.993-2.943 3.48-4.23 1.48-1.28 2.887-1.92 4.22-1.92v0c1.033 0 1.95 0.117 2.75 0.35v0c0.267 0.433 0.4 1 0.4 1.7v0c0 1.1-0.233 2.2-0.7 3.3v0c-1.2-0.333-2.35-0.5-3.45-0.5v0c-2.733 0-4.983 1.333-6.75 4v0l-0.1 8.75v7.55l5.55 0.75c0.133 0.533 0.133 1.2 0 2v0c-2.1-0.1-4.5-0.15-7.2-0.15v0c-2.033 0-4.45 0.033-7.25 0.1v0c-0.2-0.633-0.2-1.283 0-1.95v0l3.95-0.55c0.133-1.833 0.2-3.95 0.2-6.35v0-13.7c0-0.667-0.05-1.283-0.15-1.85v0l-3.95-0.5c-0.133-0.5-0.133-1.133 0-1.9v0c2.3-0.167 5.167-0.517 8.6-1.05v0c0.3 0.333 0.467 0.667 0.5 1zM127-39.95v0c1.367 0 3.54-0.067 6.52-0.2 2.987-0.133 5.697-0.2 8.13-0.2v0c5.167 0 8.85 1.007 11.05 3.02 2.2 2.02 3.3 4.83 3.3 8.43v0c0 3.2-1.427 5.883-4.28 8.05-2.847 2.167-6.237 3.25-10.17 3.25v0c-2.033 0-3.75-0.1-5.15-0.3v0 15.7l4.55 0.5c0.133 0.5 0.133 1.117 0 1.85v0c-2.1-0.1-4.467-0.15-7.1-0.15v0c-1.967 0-4.35 0.033-7.15 0.1v0c-0.2-0.6-0.2-1.2 0-1.8v0l4.15-0.6c0.133-1.267 0.2-3.217 0.2-5.85v0-29.45l-4.05-0.5c-0.133-0.5-0.133-1.117 0-1.85zM136.4-31.65v0 11.7c1.033 0.133 2.533 0.2 4.5 0.2v0c1.733 0 3.227-0.293 4.48-0.88 1.247-0.58 2.187-1.363 2.82-2.35 0.633-0.98 1.083-1.97 1.35-2.97 0.267-1 0.4-2.067 0.4-3.2v0c0-2.9-0.733-5.143-2.2-6.73-1.467-1.58-3.917-2.37-7.35-2.37v0c-1.233 0-2.467 0.117-3.7 0.35v0c-0.2 1.9-0.3 3.983-0.3 6.25zM163.3-6.65v0c0 1.733 0.317 2.957 0.95 3.67 0.633 0.72 1.633 1.08 3 1.08v0c1 0 2.107-0.31 3.32-0.93 1.22-0.613 2.347-1.503 3.38-2.67v0-7.8c-3.433 0.2-6.067 0.807-7.9 1.82-1.833 1.02-2.75 2.63-2.75 4.83zM173.95-15.1v0-2.55c0-2.833-0.327-4.893-0.98-6.18-0.647-1.28-1.72-1.92-3.22-1.92v0c-1.533 0-2.767 0.49-3.7 1.47-0.933 0.987-1.567 2.663-1.9 5.03v0c-1.067 0.233-1.85 0.35-2.35 0.35v0c-1.3 0-2.067-0.467-2.3-1.4v0c0-2.267 0.983-4.067 2.95-5.4 1.967-1.333 4.417-2 7.35-2v0c3.233 0 5.523 0.657 6.87 1.97 1.353 1.32 2.03 3.68 2.03 7.08v0 14.1c0 0.833 0.05 1.55 0.15 2.15v0l3.95 0.5c0.133 0.5 0.133 1.133 0 1.9v0c-2.367 0.1-4.883 0.333-7.55 0.7v0c-0.267-0.267-0.433-0.6-0.5-1v0l-0.25-3.45c-2.767 3.167-5.85 4.75-9.25 4.75v0c-2.1 0-3.743-0.6-4.93-1.8-1.18-1.2-1.77-2.817-1.77-4.85v0c0-3.067 1.39-5.383 4.17-6.95 2.787-1.567 6.53-2.4 11.23-2.5zM193.9-26.7v0l-0.1 5.15c0.833-1.533 1.993-2.943 3.48-4.23 1.48-1.28 2.887-1.92 4.22-1.92v0c1.033 0 1.95 0.117 2.75 0.35v0c0.267 0.433 0.4 1 0.4 1.7v0c0 1.1-0.233 2.2-0.7 3.3v0c-1.2-0.333-2.35-0.5-3.45-0.5v0c-2.733 0-4.983 1.333-6.75 4v0l-0.1 8.75v7.55l5.55 0.75c0.133 0.533 0.133 1.2 0 2v0c-2.1-0.1-4.5-0.15-7.2-0.15v0c-2.033 0-4.45 0.033-7.25 0.1v0c-0.2-0.633-0.2-1.283 0-1.95v0l3.95-0.55c0.133-1.833 0.2-3.95 0.2-6.35v0-13.7c0-0.667-0.05-1.283-0.15-1.85v0l-3.95-0.5c-0.133-0.5-0.133-1.133 0-1.9v0c2.3-0.167 5.167-0.517 8.6-1.05v0c0.3 0.333 0.467 0.667 0.5 1zM214.5-32.7v0 7.15h7.05c0.067 0.4 0.1 0.7 0.1 0.9v0c0 0.3-0.033 0.65-0.1 1.05v0l-7.05 1.05v13.75c0 2.467 0.227 4.207 0.68 5.22 0.447 1.02 1.153 1.53 2.12 1.53v0c0.867 0 2.217-0.35 4.05-1.05v0c0.333 0.3 0.567 0.867 0.7 1.7v0c-1 0.6-1.757 1.04-2.27 1.32-0.52 0.287-1.173 0.54-1.96 0.76-0.78 0.213-1.603 0.32-2.47 0.32v0c-1.667 0-3.023-0.643-4.07-1.93-1.053-1.28-1.58-3.237-1.58-5.87v0-16.35l-3.5-0.45c-0.067-0.333-0.1-0.617-0.1-0.85v0c0-0.267 0.033-0.633 0.1-1.1v0c0.933-0.167 1.743-0.46 2.43-0.88 0.68-0.413 1.253-0.997 1.72-1.75 0.467-0.747 0.827-1.413 1.08-2 0.247-0.58 0.553-1.42 0.92-2.52v0c0.3-0.1 0.667-0.15 1.1-0.15v0c0.4 0 0.75 0.05 1.05 0.15zM245.1-8.7v-9.15c0-2.567-0.34-4.367-1.02-5.4-0.687-1.033-1.83-1.55-3.43-1.55v0c-2.467 0-4.95 1.85-7.45 5.55v0 16.7l4.05 0.75c0.133 0.533 0.133 1.2 0 2v0c-2.1-0.1-4.25-0.15-6.45-0.15v0c-1.533 0-3.7 0.033-6.5 0.1v0c-0.2-0.633-0.2-1.283 0-1.95v0l3.95-0.55c0.133-1.833 0.2-3.95 0.2-6.35v0-13.7c0-0.667-0.05-1.283-0.15-1.85v0l-3.95-0.5c-0.133-0.5-0.133-1.133 0-1.9v0c2.3-0.167 5.167-0.517 8.6-1.05v0c0.3 0.333 0.467 0.667 0.5 1v0c-0.167 0.867-0.25 2.35-0.25 4.45v0c2.633-3.633 5.6-5.45 8.9-5.45v0c5.167 0 7.75 2.45 7.75 7.35v0 17.8l4.05 0.75c0.133 0.533 0.133 1.2 0 2v0c-2.1-0.1-4.25-0.15-6.45-0.15v0c-1.533 0-3.7 0.033-6.5 0.1v0c-0.2-0.633-0.2-1.283 0-1.95v0l3.95-0.55c0.133-1.833 0.2-3.95 0.2-6.35zM277.7-14.1v0h-15.7c-0.3 8.5 2.25 12.75 7.65 12.75v0c2.3 0 4.65-1.017 7.05-3.05v0c0.5 0.3 0.883 0.817 1.15 1.55v0c-2.3 2.567-5.217 3.85-8.75 3.85v0c-8.133 0-12.2-4.783-12.2-14.35v0c0-4.533 1.2-8.06 3.6-10.58 2.4-2.513 5.2-3.77 8.4-3.77v0c3.5 0 6.017 1.217 7.55 3.65 1.533 2.433 2.3 5.6 2.3 9.5v0c-0.333 0.267-0.683 0.417-1.05 0.45zM268.8-25.7v0c-1.733 0-3.207 0.9-4.42 2.7-1.22 1.8-1.963 4.1-2.23 6.9v0h6.2c2.467 0 4.233-0.15 5.3-0.45v0c0-2.733-0.417-4.943-1.25-6.63-0.833-1.68-2.033-2.52-3.6-2.52zM291.55-26.7v0l-0.1 5.15c0.833-1.533 1.99-2.943 3.47-4.23 1.487-1.28 2.897-1.92 4.23-1.92v0c1.033 0 1.95 0.117 2.75 0.35v0c0.267 0.433 0.4 1 0.4 1.7v0c0 1.1-0.233 2.2-0.7 3.3v0c-1.2-0.333-2.35-0.5-3.45-0.5v0c-2.733 0-4.983 1.333-6.75 4v0l-0.1 8.75v7.55l5.55 0.75c0.133 0.533 0.133 1.2 0 2v0c-2.1-0.1-4.5-0.15-7.2-0.15v0c-2.033 0-4.45 0.033-7.25 0.1v0c-0.2-0.633-0.2-1.283 0-1.95v0l3.95-0.55c0.133-1.833 0.2-3.95 0.2-6.35v0-13.7c0-0.667-0.05-1.283-0.15-1.85v0l-3.95-0.5c-0.133-0.5-0.133-1.133 0-1.9v0c2.3-0.167 5.167-0.517 8.6-1.05v0c0.3 0.333 0.467 0.667 0.5 1zM325.35-18.6v0 16.05l4.05 0.75c0.033 0.167 0.057 0.317 0.07 0.45 0.02 0.133 0.03 0.283 0.03 0.45v0c0 0.167-0.01 0.34-0.03 0.52-0.013 0.187-0.037 0.38-0.07 0.58v0c-2.1-0.1-4.25-0.15-6.45-0.15v0c-0.767 0-1.69 0.01-2.77 0.03-1.087 0.013-2.33 0.037-3.73 0.07v0c-0.1-0.3-0.15-0.617-0.15-0.95v0c0-0.3 0.05-0.633 0.15-1v0l3.95-0.55c0.067-0.933 0.117-1.927 0.15-2.98 0.033-1.047 0.05-2.17 0.05-3.37v0-10.65c0-2.2-0.05-3.833-0.15-4.9v0l-3.95-0.5c-0.067-0.167-0.1-0.45-0.1-0.85v0c0-0.167 0-0.333 0-0.5 0-0.167 0.033-0.35 0.1-0.55v0c2.267-0.133 5.133-0.483 8.6-1.05v0c0.3 0.333 0.467 0.667 0.5 1v0c-0.167 0.933-0.25 3.633-0.25 8.1zM318.05-36.45v0c-0.067-0.167-0.1-0.343-0.1-0.53 0-0.18 0-0.353 0-0.52v0c0-0.9 0.373-1.627 1.12-2.18 0.753-0.547 1.68-0.82 2.78-0.82v0c1.033 0 1.877 0.307 2.53 0.92 0.647 0.62 0.97 1.463 0.97 2.53v0c0 0.867-0.377 1.567-1.13 2.1-0.747 0.533-1.703 0.8-2.87 0.8v0c-0.8 0-1.51-0.2-2.13-0.6-0.613-0.4-1.003-0.967-1.17-1.7zM352.75-8.7v-9.15c0-2.567-0.343-4.367-1.03-5.4-0.68-1.033-1.82-1.55-3.42-1.55v0c-2.467 0-4.95 1.85-7.45 5.55v0 16.7l4.05 0.75c0.133 0.533 0.133 1.2 0 2v0c-2.1-0.1-4.25-0.15-6.45-0.15v0c-1.533 0-3.7 0.033-6.5 0.1v0c-0.2-0.633-0.2-1.283 0-1.95v0l3.95-0.55c0.133-1.833 0.2-3.95 0.2-6.35v0-13.7c0-0.667-0.05-1.283-0.15-1.85v0l-3.95-0.5c-0.133-0.5-0.133-1.133 0-1.9v0c2.3-0.167 5.167-0.517 8.6-1.05v0c0.3 0.333 0.467 0.667 0.5 1v0c-0.167 0.867-0.25 2.35-0.25 4.45v0c2.633-3.633 5.6-5.45 8.9-5.45v0c5.167 0 7.75 2.45 7.75 7.35v0 17.8l4.05 0.75c0.133 0.533 0.133 1.2 0 2v0c-2.1-0.1-4.25-0.15-6.45-0.15v0c-1.533 0-3.7 0.033-6.5 0.1v0c-0.2-0.633-0.2-1.283 0-1.95v0l3.95-0.55c0.133-1.833 0.2-3.95 0.2-6.35zM377.2-39.95v0c1.7 0 4.15-0.067 7.35-0.2 3.2-0.133 5.317-0.2 6.35-0.2v0h1.35c4.367 0 7.617 0.89 9.75 2.67 2.133 1.787 3.2 4.13 3.2 7.03v0c0 4.133-2.7 7-8.1 8.6v0 0.15c3.133 0.467 5.61 1.69 7.43 3.67 1.813 1.987 2.72 4.363 2.72 7.13v0c0 3.7-1.257 6.583-3.77 8.65-2.52 2.067-6.213 3.1-11.08 3.1v0c-1.333 0-3.49-0.107-6.47-0.32-2.987-0.22-5.363-0.33-7.13-0.33v0c-0.2 0-0.517 0.01-0.95 0.03-0.433 0.013-0.75 0.02-0.95 0.02v0c-0.2-0.6-0.2-1.2 0-1.8v0l4.15-0.55c0.133-1.267 0.2-3.217 0.2-5.85v0-29.45l-4.05-0.5c-0.133-0.5-0.133-1.117 0-1.85zM390.6-20.3v0h-4v18.1c1.7 0.3 3.05 0.483 4.05 0.55v0c4.033 0 6.817-0.76 8.35-2.28 1.533-1.513 2.3-3.887 2.3-7.12v0c0-2.6-0.94-4.793-2.82-6.58-1.887-1.78-4.513-2.67-7.88-2.67zM390.95-38.25v0c-1.667 0-3.05 0.117-4.15 0.35v0c-0.133 1.267-0.2 3.35-0.2 6.25v0 8.85h3.9c3.1 0 5.36-0.633 6.78-1.9 1.413-1.267 2.12-3.15 2.12-5.65v0c0-2.533-0.773-4.483-2.32-5.85-1.553-1.367-3.597-2.05-6.13-2.05zM435.5-26.7v0 19.6c0 2.233 0.05 3.8 0.15 4.7v0l3.95 0.5c0.1 0.533 0.1 1.167 0 1.9v0c-2.433 0.1-4.967 0.333-7.6 0.7v0c-0.233-0.233-0.4-0.55-0.5-0.95v0l-0.25-4.45c-1.4 1.8-2.84 3.2-4.32 4.2-1.487 1-3.23 1.5-5.23 1.5v0c-2.033 0-3.74-0.517-5.12-1.55-1.387-1.033-2.08-2.8-2.08-5.3v0-11.1c0-3.8-0.05-6.233-0.15-7.3v0l-3.95-0.5c-0.133-0.5-0.133-1.133 0-1.9v0c2.3-0.167 5.167-0.517 8.6-1.05v0c0.3 0.333 0.467 0.667 0.5 1v0c-0.167 0.867-0.25 6.983-0.25 18.35v0c0 2.333 0.277 3.99 0.83 4.97 0.547 0.987 1.57 1.48 3.07 1.48v0c2.8 0 5.333-1.667 7.6-5v0-10.1c0-3.767-0.05-6.183-0.15-7.25v0l-3.95-0.5c-0.133-0.5-0.133-1.133 0-1.9v0c2-0.133 4.783-0.483 8.35-1.05v0c0.3 0.333 0.467 0.667 0.5 1zM450.85-18.6v0 16.05l4.05 0.75c0.033 0.167 0.06 0.317 0.08 0.45 0.013 0.133 0.02 0.283 0.02 0.45v0c0 0.167-0.007 0.34-0.02 0.52-0.02 0.187-0.047 0.38-0.08 0.58v0c-2.1-0.1-4.25-0.15-6.45-0.15v0c-0.767 0-1.69 0.01-2.77 0.03-1.087 0.013-2.33 0.037-3.73 0.07v0c-0.1-0.3-0.15-0.617-0.15-0.95v0c0-0.3 0.05-0.633 0.15-1v0l3.95-0.55c0.067-0.933 0.117-1.927 0.15-2.98 0.033-1.047 0.05-2.17 0.05-3.37v0-10.65c0-2.2-0.05-3.833-0.15-4.9v0l-3.95-0.5c-0.067-0.167-0.1-0.45-0.1-0.85v0c0-0.167 0-0.333 0-0.5 0-0.167 0.033-0.35 0.1-0.55v0c2.267-0.133 5.133-0.483 8.6-1.05v0c0.3 0.333 0.467 0.667 0.5 1v0c-0.167 0.933-0.25 3.633-0.25 8.1zM443.55-36.45v0c-0.067-0.167-0.1-0.343-0.1-0.53 0-0.18 0-0.353 0-0.52v0c0-0.9 0.377-1.627 1.13-2.18 0.747-0.547 1.67-0.82 2.77-0.82v0c1.033 0 1.877 0.307 2.53 0.92 0.647 0.62 0.97 1.463 0.97 2.53v0c0 0.867-0.373 1.567-1.12 2.1-0.753 0.533-1.713 0.8-2.88 0.8v0c-0.8 0-1.507-0.2-2.12-0.6-0.62-0.4-1.013-0.967-1.18-1.7zM465.8-31.7v0 29.15l4.05 0.75c0.133 0.533 0.133 1.2 0 2v0c-2.1-0.1-4.25-0.15-6.45-0.15v0c-1.533 0-3.7 0.033-6.5 0.1v0c-0.2-0.633-0.2-1.283 0-1.95v0l3.95-0.55c0.133-1.833 0.2-3.95 0.2-6.35v0-28.65l-4.1-0.5c-0.133-0.5-0.133-1.133 0-1.9v0c2.3-0.167 5.167-0.517 8.6-1.05v0c0.3 0.333 0.467 0.667 0.5 1v0c-0.167 0.867-0.25 3.567-0.25 8.1zM497.2-31.7v24.6c0 2.233 0.05 3.8 0.15 4.7v0l3.95 0.5c0.1 0.533 0.1 1.167 0 1.9v0c-2.433 0.1-4.967 0.333-7.6 0.7v0c-0.233-0.233-0.4-0.55-0.5-0.95v0l-0.25-3.2c-1.167 1.367-2.617 2.457-4.35 3.27-1.733 0.82-3.55 1.23-5.45 1.23v0c-2.9 0-5.3-1.21-7.2-3.63-1.9-2.413-2.85-5.637-2.85-9.67v0c0-4.667 1.243-8.41 3.73-11.23 2.48-2.813 5.453-4.22 8.92-4.22v0c2.733 0 4.967 0.65 6.7 1.95v0-6.7c0-2.2-0.05-3.833-0.15-4.9v0l-3.95-0.5c-0.133-0.5-0.133-1.133 0-1.9v0c2.3-0.167 5.167-0.517 8.6-1.05v0c0.3 0.333 0.467 0.667 0.5 1v0c-0.167 0.867-0.25 3.567-0.25 8.1zM485.35-25v0c-2.167 0-3.9 1.14-5.2 3.42-1.3 2.287-1.95 5.447-1.95 9.48v0c0 3.3 0.61 5.817 1.83 7.55 1.213 1.733 2.82 2.6 4.82 2.6v0c1.2 0 2.517-0.377 3.95-1.13 1.433-0.747 2.65-1.787 3.65-3.12v0-16c-1.633-1.867-4-2.8-7.1-2.8zM512.55-18.6v0 16.05l4.05 0.75c0.033 0.167 0.06 0.317 0.08 0.45 0.013 0.133 0.02 0.283 0.02 0.45v0c0 0.167-0.007 0.34-0.02 0.52-0.02 0.187-0.047 0.38-0.08 0.58v0c-2.1-0.1-4.25-0.15-6.45-0.15v0c-0.767 0-1.69 0.01-2.77 0.03-1.087 0.013-2.33 0.037-3.73 0.07v0c-0.1-0.3-0.15-0.617-0.15-0.95v0c0-0.3 0.05-0.633 0.15-1v0l3.95-0.55c0.067-0.933 0.117-1.927 0.15-2.98 0.033-1.047 0.05-2.17 0.05-3.37v0-10.65c0-2.2-0.05-3.833-0.15-4.9v0l-3.95-0.5c-0.067-0.167-0.1-0.45-0.1-0.85v0c0-0.167 0-0.333 0-0.5 0-0.167 0.033-0.35 0.1-0.55v0c2.267-0.133 5.133-0.483 8.6-1.05v0c0.3 0.333 0.467 0.667 0.5 1v0c-0.167 0.933-0.25 3.633-0.25 8.1zM505.25-36.45v0c-0.067-0.167-0.1-0.343-0.1-0.53 0-0.18 0-0.353 0-0.52v0c0-0.9 0.377-1.627 1.13-2.18 0.747-0.547 1.67-0.82 2.77-0.82v0c1.033 0 1.877 0.307 2.53 0.92 0.647 0.62 0.97 1.463 0.97 2.53v0c0 0.867-0.373 1.567-1.12 2.1-0.753 0.533-1.713 0.8-2.88 0.8v0c-0.8 0-1.507-0.2-2.12-0.6-0.62-0.4-1.013-0.967-1.18-1.7zM539.95-8.7v-9.15c0-2.567-0.34-4.367-1.02-5.4-0.687-1.033-1.83-1.55-3.43-1.55v0c-2.467 0-4.95 1.85-7.45 5.55v0 16.7l4.05 0.75c0.133 0.533 0.133 1.2 0 2v0c-2.1-0.1-4.25-0.15-6.45-0.15v0c-1.533 0-3.7 0.033-6.5 0.1v0c-0.2-0.633-0.2-1.283 0-1.95v0l3.95-0.55c0.133-1.833 0.2-3.95 0.2-6.35v0-13.7c0-0.667-0.05-1.283-0.15-1.85v0l-3.95-0.5c-0.133-0.5-0.133-1.133 0-1.9v0c2.3-0.167 5.167-0.517 8.6-1.05v0c0.3 0.333 0.467 0.667 0.5 1v0c-0.167 0.867-0.25 2.35-0.25 4.45v0c2.633-3.633 5.6-5.45 8.9-5.45v0c5.167 0 7.75 2.45 7.75 7.35v0 17.8l4.05 0.75c0.133 0.533 0.133 1.2 0 2v0c-2.1-0.1-4.25-0.15-6.45-0.15v0c-1.533 0-3.7 0.033-6.5 0.1v0c-0.2-0.633-0.2-1.283 0-1.95v0l3.95-0.55c0.133-1.833 0.2-3.95 0.2-6.35zM555.5 0.55v0c0.3 0.133 0.55 0.417 0.75 0.85v0c-1.1 0.9-1.65 2.25-1.65 4.05v0c0 1.6 0.733 2.883 2.2 3.85 1.467 0.967 3.367 1.45 5.7 1.45v0c2.4 0 4.4-0.44 6-1.32 1.6-0.887 2.4-2.13 2.4-3.73v0c0-1.733-0.317-3.007-0.95-3.82-0.633-0.82-1.9-1.313-3.8-1.48v0l-9.35-0.85c-1.033-0.133-1.89-0.677-2.57-1.63-0.687-0.947-1.03-1.87-1.03-2.77v0l3.35-5.55c-1.533-0.867-2.69-2.017-3.47-3.45-0.787-1.433-1.18-2.9-1.18-4.4v0c0-2.833 1.05-5.117 3.15-6.85 2.1-1.733 4.517-2.6 7.25-2.6v0c2.633 0 4.95 0.7 6.95 2.1v0c0.167-4.567 1.867-6.933 5.1-7.1v0c0.867 0.2 1.3 0.917 1.3 2.15v0c0 0.667-0.067 1.4-0.2 2.2v0c-1.3 0.1-2.367 0.523-3.2 1.27-0.833 0.753-1.433 1.613-1.8 2.58v0c1.667 1.667 2.5 3.75 2.5 6.25v0c0 2.633-1.067 4.823-3.2 6.57-2.133 1.753-4.617 2.63-7.45 2.63v0c-1.5 0-2.85-0.2-4.05-0.6v0l-1.7 4.45 12.45 1.25c1.933 0.233 3.41 0.94 4.43 2.12 1.013 1.187 1.52 2.73 1.52 4.63v0c0 3.333-1.2 5.893-3.6 7.68-2.4 1.78-5.65 2.67-9.75 2.67v0c-3.4 0-6.05-0.617-7.95-1.85-1.9-1.233-2.85-2.883-2.85-4.95v0c0-1.4 0.45-2.64 1.35-3.72 0.9-1.087 2.017-1.78 3.35-2.08zM556.4-18.25v0c0 1.933 0.543 3.583 1.63 4.95 1.08 1.367 2.52 2.05 4.32 2.05v0c1.767 0 3.217-0.677 4.35-2.03 1.133-1.347 1.7-3.003 1.7-4.97v0c0-2.133-0.557-3.91-1.67-5.33-1.12-1.413-2.58-2.12-4.38-2.12v0c-1.7 0-3.117 0.717-4.25 2.15-1.133 1.433-1.7 3.2-1.7 5.3zM627.4-7.3v0h0.1c0.333-1.367 1.133-4.133 2.4-8.3v0l6.95-22-4.05-0.5v-1.85c1.833 0.133 3.6 0.2 5.3 0.2v0c1.467 0 3.267-0.05 5.4-0.15v0 1.8l-3.3 0.6c-0.533 0.8-1.2 2.283-2 4.45v0l-11.35 34.55h-1.3l-9.6-28-10.5 28.05-1.35-0.05-12.95-39.1-4.05-0.5c-0.133-0.5-0.133-1.117 0-1.85v0c1.833 0.133 4.217 0.2 7.15 0.2v0c2.7 0 5.117-0.05 7.25-0.15v0c0.2 0.6 0.2 1.2 0 1.8v0l-4.15 0.6 6.6 22.15c0.833 3 1.55 5.817 2.15 8.45v0h0.1c0.667-2.2 1.633-5.017 2.9-8.45v0l5.5-15.2-2.4-7.05-4.05-0.5c-0.133-0.5-0.133-1.117 0-1.85v0c1.833 0.133 4.15 0.2 6.95 0.2v0c2.533 0 4.883-0.05 7.05-0.15v0c0.2 0.6 0.2 1.2 0 1.8v0l-4.15 0.6 7.1 21.75c1.1 3.6 1.867 6.417 2.3 8.45zM662.45-14.1v0h-15.7c-0.3 8.5 2.25 12.75 7.65 12.75v0c2.3 0 4.65-1.017 7.05-3.05v0c0.5 0.3 0.883 0.817 1.15 1.55v0c-2.3 2.567-5.217 3.85-8.75 3.85v0c-8.133 0-12.2-4.783-12.2-14.35v0c0-4.533 1.2-8.06 3.6-10.58 2.4-2.513 5.2-3.77 8.4-3.77v0c3.5 0 6.017 1.217 7.55 3.65 1.533 2.433 2.3 5.6 2.3 9.5v0c-0.333 0.267-0.683 0.417-1.05 0.45zM653.55-25.7v0c-1.733 0-3.207 0.9-4.42 2.7-1.22 1.8-1.963 4.1-2.23 6.9v0h6.2c2.467 0 4.233-0.15 5.3-0.45v0c0-2.733-0.417-4.943-1.25-6.63-0.833-1.68-2.033-2.52-3.6-2.52zM672.4-6.65v0c0 1.733 0.317 2.957 0.95 3.67 0.633 0.72 1.633 1.08 3 1.08v0c1 0 2.11-0.31 3.33-0.93 1.213-0.613 2.337-1.503 3.37-2.67v0-7.8c-3.433 0.2-6.067 0.807-7.9 1.82-1.833 1.02-2.75 2.63-2.75 4.83zM683.05-15.1v0-2.55c0-2.833-0.323-4.893-0.97-6.18-0.653-1.28-1.73-1.92-3.23-1.92v0c-1.533 0-2.767 0.49-3.7 1.47-0.933 0.987-1.567 2.663-1.9 5.03v0c-1.067 0.233-1.85 0.35-2.35 0.35v0c-1.3 0-2.067-0.467-2.3-1.4v0c0-2.267 0.983-4.067 2.95-5.4 1.967-1.333 4.417-2 7.35-2v0c3.233 0 5.527 0.657 6.88 1.97 1.347 1.32 2.02 3.68 2.02 7.08v0 14.1c0 0.833 0.05 1.55 0.15 2.15v0l3.95 0.5c0.133 0.5 0.133 1.133 0 1.9v0c-2.367 0.1-4.883 0.333-7.55 0.7v0c-0.267-0.267-0.433-0.6-0.5-1v0l-0.25-3.45c-2.767 3.167-5.85 4.75-9.25 4.75v0c-2.1 0-3.74-0.6-4.92-1.8-1.187-1.2-1.78-2.817-1.78-4.85v0c0-3.067 1.393-5.383 4.18-6.95 2.78-1.567 6.52-2.4 11.22-2.5zM702.2-31.7v0 29.15l4.05 0.75c0.133 0.533 0.133 1.2 0 2v0c-2.1-0.1-4.25-0.15-6.45-0.15v0c-1.533 0-3.7 0.033-6.5 0.1v0c-0.2-0.633-0.2-1.283 0-1.95v0l3.95-0.55c0.133-1.833 0.2-3.95 0.2-6.35v0-28.65l-4.1-0.5c-0.133-0.5-0.133-1.133 0-1.9v0c2.3-0.167 5.167-0.517 8.6-1.05v0c0.3 0.333 0.467 0.667 0.5 1v0c-0.167 0.867-0.25 3.567-0.25 8.1zM716.8-32.7v0 7.15h7.05c0.067 0.4 0.1 0.7 0.1 0.9v0c0 0.3-0.033 0.65-0.1 1.05v0l-7.05 1.05v13.75c0 2.467 0.227 4.207 0.68 5.22 0.447 1.02 1.153 1.53 2.12 1.53v0c0.867 0 2.217-0.35 4.05-1.05v0c0.333 0.3 0.567 0.867 0.7 1.7v0c-1 0.6-1.757 1.04-2.27 1.32-0.52 0.287-1.17 0.54-1.95 0.76-0.787 0.213-1.613 0.32-2.48 0.32v0c-1.667 0-3.023-0.643-4.07-1.93-1.053-1.28-1.58-3.237-1.58-5.87v0-16.35l-3.5-0.45c-0.067-0.333-0.1-0.617-0.1-0.85v0c0-0.267 0.033-0.633 0.1-1.1v0c0.933-0.167 1.743-0.46 2.43-0.88 0.68-0.413 1.253-0.997 1.72-1.75 0.467-0.747 0.827-1.413 1.08-2 0.247-0.58 0.553-1.42 0.92-2.52v0c0.3-0.1 0.667-0.15 1.1-0.15v0c0.4 0 0.75 0.05 1.05 0.15zM730.2-8.7v-23.75c0-2.2-0.05-3.833-0.15-4.9v0l-3.95-0.5c-0.133-0.5-0.133-1.133 0-1.9v0c2.233-0.167 5.083-0.517 8.55-1.05v0c0.3 0.333 0.467 0.667 0.5 1v0c-0.167 0.867-0.25 3.567-0.25 8.1v0 9.45c2.467-3.4 5.433-5.1 8.9-5.1v0c2.067 0 3.833 0.517 5.3 1.55 1.467 1.033 2.2 2.8 2.2 5.3v0 17.95l4.05 0.75c0.133 0.533 0.133 1.2 0 2v0c-2.1-0.1-4.233-0.15-6.4-0.15v0c-1.533 0-3.7 0.033-6.5 0.1v0c-0.2-0.633-0.2-1.283 0-1.95v0l3.95-0.55c0.133-1.833 0.2-3.95 0.2-6.35v0-9.3c0-2.333-0.29-4.017-0.87-5.05-0.587-1.033-1.647-1.55-3.18-1.55v0c-1.267 0-2.59 0.467-3.97 1.4-1.387 0.933-2.613 2.283-3.68 4.05v0 16.6l4.05 0.75c0.133 0.533 0.133 1.2 0 2v0c-2.1-0.1-4.233-0.15-6.4-0.15v0c-1.533 0-3.7 0.033-6.5 0.1v0c-0.2-0.633-0.2-1.283 0-1.95v0l3.95-0.55c0.133-1.833 0.2-3.95 0.2-6.35zM761.75-5.55v0c0.9 0 1.66 0.293 2.28 0.88 0.613 0.58 0.92 1.303 0.92 2.17v0c0 0.867-0.307 1.607-0.92 2.22-0.62 0.62-1.363 0.93-2.23 0.93v0c-0.867 0-1.607-0.31-2.22-0.93-0.62-0.613-0.93-1.353-0.93-2.22v0c0-0.867 0.3-1.59 0.9-2.17 0.6-0.587 1.333-0.88 2.2-0.88z" fill="#113549" fill-rule="nonzero" stroke="none" stroke-width="1" stroke-linecap="butt" stroke-linejoin="miter" stroke-miterlimit="10" stroke-dasharray="" stroke-dashoffset="0" font-family="none" font-weight="none" font-size="none" text-anchor="none" style="mix-blend-mode: normal" data-fill-palette-color="secondary" id="text-1"></path></g></g><g transform="matrix(1,0,0,1,29.33176499999999,36.932766432889636)"><svg viewBox="0 0 316.416 41.426653134220714" height="41.426653134220714" width="316.416"><g><svg viewBox="0 0 316.416 41.426653134220714" height="41.426653134220714" width="316.416"><g><svg viewBox="0 0 450.6147294288346 58.99657442486806" height="41.426653134220714" width="316.416"><g transform="matrix(1,0,0,1,134.19872942883464,5.782024780826035)"><svg viewBox="0 0 316.416 47.43252486321599" height="47.43252486321599" width="316.416"><g id="textblocktransform"><svg viewBox="0 0 316.416 47.43252486321599" height="47.43252486321599" width="316.416" id="textblock"><g><svg viewBox="0 0 316.416 47.43252486321599" height="47.43252486321599" width="316.416"><g transform="matrix(1,0,0,1,0,0)"><svg width="316.416" viewBox="2.4 -33.9 230.45391304139298 34.4" height="47.43252486321599" data-palette-color="#121c56"><g class="wordmark-text-0" data-fill-palette-color="primary" id="text-0"><path d="M12.75-32.5L12.75-32.5Q14.3-32.5 15.33-32.33 16.35-32.15 17.43-31.85 18.5-31.55 20.1-31.15L20.1-31.15Q20.4-29.25 20.58-27.23 20.75-25.2 20.8-24.2L20.8-24.2Q20.85-23.95 20.45-23.83 20.05-23.7 19.8-23.7L19.8-23.7Q19.45-23.7 19.25-23.9L19.25-23.9Q19.15-24.8 18.65-26 18.15-27.2 17.28-28.3 16.4-29.4 15.18-30.13 13.95-30.85 12.4-30.85L12.4-30.85Q10.4-30.85 9.25-30 8.1-29.15 7.6-27.9 7.1-26.65 7.1-25.45L7.1-25.45Q7.1-23.5 8.13-22.2 9.15-20.9 10.73-19.9 12.3-18.9 13.9-17.85L13.9-17.85Q15.1-17.1 16.55-16.2 18-15.3 19.35-14.2 20.7-13.1 21.55-11.68 22.4-10.25 22.4-8.45L22.4-8.45Q22.4-5.8 20.93-3.78 19.45-1.75 17.13-0.63 14.8 0.5 12.2 0.5L12.2 0.5Q9.75 0.5 7.48-0.05 5.2-0.6 3.4-0.95L3.4-0.95Q3.1-2.4 2.88-4.05 2.65-5.7 2.53-6.95 2.4-8.2 2.4-8.5L2.4-8.5Q2.65-8.75 2.98-8.93 3.3-9.1 3.65-9.1L3.65-9.1Q4.1-9.1 4.2-8.65L4.2-8.65Q4.35-7.95 4.83-6.73 5.3-5.5 6.23-4.2 7.15-2.9 8.63-2.02 10.1-1.15 12.3-1.15L12.3-1.15Q14.65-1.15 16.4-2.73 18.15-4.3 18.15-7.15L18.15-7.15Q18.15-9.2 17.23-10.35 16.3-11.5 14.83-12.35 13.35-13.2 11.65-14.15L11.65-14.15Q9.8-15.25 7.83-16.57 5.85-17.9 4.5-19.7 3.15-21.5 3.15-23.95L3.15-23.95Q3.15-26.55 4.53-28.48 5.9-30.4 8.1-31.45 10.3-32.5 12.75-32.5ZM32.3-27.5L32.3-21.1 38.6-21.1Q38.85-21.1 38.85-20.55L38.85-20.55Q38.85-19.8 38.15-19.1L38.15-19.1 32.3-19.1 32.3-6.3Q32.3-2.3 35.55-2.3L35.55-2.3Q36.65-2.3 37.55-2.75 38.45-3.2 38.7-3.4L38.7-3.4Q38.85-3.35 38.85-3.1L38.85-3.1Q38.85-2.55 38.65-2.35L38.65-2.35Q38.3-1.95 37.57-1.3 36.85-0.65 35.85-0.15 34.85 0.35 33.65 0.35L33.65 0.35Q32.4 0.35 31.22-0.1 30.05-0.55 29.3-1.7 28.55-2.85 28.55-4.95L28.55-4.95 28.55-19.1 25.7-19.1Q25.6-19.1 25.55-19.28 25.5-19.45 25.5-19.55L25.5-19.55Q25.5-19.65 25.8-20.03 26.1-20.4 26.42-20.75 26.75-21.1 26.75-21.1L26.75-21.1 28.55-21.1 28.55-24.15Q29.05-24.7 29.72-25.43 30.4-26.15 30.95-26.78 31.5-27.4 31.55-27.45L31.55-27.45Q31.75-27.65 32.02-27.65 32.3-27.65 32.3-27.5L32.3-27.5ZM52.05-21.45L52.05-21.45Q55.3-21.45 57.62-20.05 59.95-18.65 61.22-16.25 62.5-13.85 62.5-10.8L62.5-10.8Q62.5-7.65 61.15-5.13 59.8-2.6 57.45-1.13 55.1 0.35 52.15 0.35L52.15 0.35Q48.95 0.35 46.57-1.07 44.2-2.5 42.92-4.93 41.65-7.35 41.65-10.4L41.65-10.4Q41.65-13.55 43.02-16.05 44.4-18.55 46.75-20 49.1-21.45 52.05-21.45ZM51.5-19.8L51.5-19.8Q49.45-19.8 48.2-18.57 46.95-17.35 46.4-15.43 45.85-13.5 45.85-11.4L45.85-11.4Q45.85-9.05 46.62-6.7 47.4-4.35 48.92-2.8 50.45-1.25 52.65-1.25L52.65-1.25Q54.75-1.25 55.97-2.48 57.2-3.7 57.75-5.65 58.3-7.6 58.3-9.65L58.3-9.65Q58.3-12.05 57.5-14.38 56.7-16.7 55.2-18.25 53.7-19.8 51.5-19.8ZM80.24-21.4L80.24-21.4Q82.89-21.4 84.24-20.3 85.59-19.2 86.07-16.9 86.54-14.6 86.54-11.05L86.54-11.05 86.54-5.65Q86.54-4.55 86.57-3.6 86.59-2.65 86.79-2.05L86.79-2.05Q86.89-1.8 87.52-1.6 88.14-1.4 88.84-1.33 89.54-1.25 89.84-1.25L89.84-1.25Q89.99-1.05 90.02-0.55 90.04-0.05 89.84 0.15L89.84 0.15Q88.34 0.05 87.22-0.03 86.09-0.1 84.64-0.1L84.64-0.1Q83.24-0.1 82.09-0.03 80.94 0.05 79.44 0.15L79.44 0.15Q79.24-0.05 79.27-0.55 79.29-1.05 79.44-1.25L79.44-1.25Q79.74-1.25 80.47-1.33 81.19-1.4 81.84-1.6 82.49-1.8 82.54-2.05L82.54-2.05Q82.74-2.65 82.77-3.6 82.79-4.55 82.79-5.65L82.79-5.65 82.79-10.55Q82.79-13.6 82.39-15.33 81.99-17.05 80.94-17.8 79.89-18.55 77.99-18.55L77.99-18.55Q77.09-18.55 76.02-17.98 74.94-17.4 74.14-16.75 73.34-16.1 73.34-15.85L73.34-15.85 73.34-5.65Q73.34-4.55 73.37-3.6 73.39-2.65 73.59-2.05L73.59-2.05Q73.69-1.8 74.32-1.6 74.94-1.4 75.64-1.33 76.34-1.25 76.64-1.25L76.64-1.25Q76.79-1.05 76.82-0.55 76.84-0.05 76.64 0.15L76.64 0.15Q75.14 0.05 74.02-0.03 72.89-0.1 71.44-0.1L71.44-0.1Q70.04-0.1 68.89-0.03 67.74 0.05 66.24 0.15L66.24 0.15Q66.04-0.05 66.07-0.55 66.09-1.05 66.24-1.25L66.24-1.25Q66.54-1.25 67.27-1.33 67.99-1.4 68.64-1.6 69.29-1.8 69.34-2.05L69.34-2.05Q69.54-2.65 69.57-3.6 69.59-4.55 69.59-5.65L69.59-5.65 69.59-14.55Q69.59-15.05 69.57-15.95 69.54-16.85 69.34-17.3L69.34-17.3Q69.19-17.75 68.49-17.93 67.79-18.1 67.09-18.13 66.39-18.15 66.19-18.15L66.19-18.15Q66.14-18.25 66.09-18.75 66.04-19.25 66.19-19.45L66.19-19.45Q68.09-19.7 69.89-20.2 71.69-20.7 73.14-21.5L73.14-21.5Q73.34-21.5 73.52-21.2 73.69-20.9 73.69-20.7L73.69-20.7Q73.69-20.55 73.62-19.93 73.54-19.3 73.47-18.7 73.39-18.1 73.39-17.9L73.39-17.9Q73.39-17.7 73.49-17.7L73.49-17.7Q73.54-17.7 73.64-17.8L73.64-17.8Q74.14-18.35 75.27-19.2 76.39-20.05 77.74-20.73 79.09-21.4 80.24-21.4ZM95.84-12.1L95.84-12.1Q95.79-9 96.89-6.9 97.99-4.8 99.84-3.78 101.69-2.75 103.84-2.75L103.84-2.75Q105.19-2.75 106.29-3.23 107.39-3.7 108.14-4.33 108.89-4.95 109.19-5.3L109.19-5.3Q109.24-5.3 109.42-5.13 109.59-4.95 109.59-4.65L109.59-4.65Q109.59-4.25 109.29-3.75L109.29-3.75Q108.84-3.05 107.89-2.08 106.94-1.1 105.49-0.35 104.04 0.4 102.14 0.4L102.14 0.4Q99.29 0.4 97.09-0.95 94.89-2.3 93.64-4.6 92.39-6.9 92.39-9.75L92.39-9.75Q92.39-12.2 93.27-14.33 94.14-16.45 95.57-18.03 96.99-19.6 98.69-20.5 100.39-21.4 101.99-21.4L101.99-21.4Q104.19-21.4 105.62-20.65 107.04-19.9 107.87-18.8 108.69-17.7 109.02-16.6 109.34-15.5 109.34-14.75L109.34-14.75Q109.34-13.7 109.09-13.1 108.84-12.5 108.14-12.45L108.14-12.45Q107.69-12.4 106.37-12.38 105.04-12.35 103.34-12.3 101.64-12.25 99.99-12.2 98.34-12.15 97.19-12.13 96.04-12.1 95.84-12.1ZM96.09-13.9L96.09-13.9 104.04-13.9Q104.49-13.9 104.82-14.15 105.14-14.4 105.19-15.05L105.19-15.05Q105.24-15.65 104.84-16.75 104.44-17.85 103.57-18.75 102.69-19.65 101.19-19.65L101.19-19.65Q99.64-19.65 98.64-18.78 97.64-17.9 97.07-16.78 96.49-15.65 96.27-14.78 96.04-13.9 96.09-13.9ZM126.29-32.2L126.29-32.2Q127.94-32.2 129.69-31.83 131.44-31.45 132.89-30.63 134.34-29.8 135.24-28.4 136.14-27 136.14-24.9L136.14-24.9Q136.14-23.05 135.26-21.55 134.39-20.05 133.21-19.1 132.04-18.15 131.19-17.8L131.19-17.8Q131.04-17.7 131.19-17.6L131.19-17.6Q132.09-17.55 133.29-17 134.49-16.45 135.66-15.43 136.84-14.4 137.59-12.95 138.34-11.5 138.34-9.7L138.34-9.7Q138.34-7.6 137.61-5.8 136.89-4 135.09-2.5L135.09-2.5Q133.34-1.05 130.49-0.48 127.64 0.1 124.84 0.15L124.84 0.15 113.59 0.15Q113.39-0.05 113.41-0.55 113.44-1.05 113.59-1.25L113.59-1.25Q113.89-1.25 114.69-1.33 115.49-1.4 116.21-1.6 116.94-1.8 116.99-2.05L116.99-2.05Q117.19-2.65 117.21-3.6 117.24-4.55 117.24-5.65L117.24-5.65 117.24-26.5Q117.24-27.6 117.21-28.58 117.19-29.55 116.99-30.15L116.99-30.15Q116.94-30.45 116.21-30.6 115.49-30.75 114.69-30.83 113.89-30.9 113.59-30.9L113.59-30.9Q113.44-31.1 113.41-31.6 113.39-32.1 113.59-32.3L113.59-32.3Q115.09-32.25 116.54-32.18 117.99-32.1 119.39-32.1L119.39-32.1Q120.84-32.1 122.49-32.15 124.14-32.2 126.29-32.2ZM124.44-16.2L121.49-16.2 121.49-5.6Q121.49-5.25 121.51-4.53 121.54-3.8 121.64-3.15 121.74-2.5 121.89-2.3L121.89-2.3Q122.44-1.7 123.41-1.55 124.39-1.4 125.74-1.4L125.74-1.4Q127.59-1.4 129.36-1.95 131.14-2.5 132.34-4.08 133.54-5.65 133.54-8.6L133.54-8.6Q133.54-10.45 132.84-12.18 132.14-13.9 130.16-15.05 128.19-16.2 124.44-16.2L124.44-16.2ZM121.49-26.45L121.49-18.05 125.54-18.05Q127.74-18.05 129.09-18.9 130.44-19.75 131.06-21.08 131.69-22.4 131.69-23.8L131.69-23.8Q131.69-27.05 129.61-28.83 127.54-30.6 124.14-30.6L124.14-30.6Q123.69-30.6 122.76-30.55 121.84-30.5 121.69-30.15L121.69-30.15Q121.54-29.75 121.51-28.9 121.49-28.05 121.49-27.1L121.49-27.1Q121.49-26.9 121.49-26.75 121.49-26.6 121.49-26.45L121.49-26.45ZM145.89-12.1L145.89-12.1Q145.84-9 146.94-6.9 148.04-4.8 149.89-3.78 151.74-2.75 153.89-2.75L153.89-2.75Q155.24-2.75 156.34-3.23 157.44-3.7 158.19-4.33 158.94-4.95 159.24-5.3L159.24-5.3Q159.29-5.3 159.46-5.13 159.64-4.95 159.64-4.65L159.64-4.65Q159.64-4.25 159.34-3.75L159.34-3.75Q158.89-3.05 157.94-2.08 156.99-1.1 155.54-0.35 154.09 0.4 152.19 0.4L152.19 0.4Q149.34 0.4 147.14-0.95 144.94-2.3 143.69-4.6 142.44-6.9 142.44-9.75L142.44-9.75Q142.44-12.2 143.31-14.33 144.19-16.45 145.61-18.03 147.04-19.6 148.74-20.5 150.44-21.4 152.04-21.4L152.04-21.4Q154.24-21.4 155.66-20.65 157.09-19.9 157.91-18.8 158.74-17.7 159.06-16.6 159.39-15.5 159.39-14.75L159.39-14.75Q159.39-13.7 159.14-13.1 158.89-12.5 158.19-12.45L158.19-12.45Q157.74-12.4 156.41-12.38 155.09-12.35 153.39-12.3 151.69-12.25 150.04-12.2 148.39-12.15 147.24-12.13 146.09-12.1 145.89-12.1ZM146.14-13.9L146.14-13.9 154.09-13.9Q154.54-13.9 154.86-14.15 155.19-14.4 155.24-15.05L155.24-15.05Q155.29-15.65 154.89-16.75 154.49-17.85 153.61-18.75 152.74-19.65 151.24-19.65L151.24-19.65Q149.69-19.65 148.69-18.78 147.69-17.9 147.11-16.78 146.54-15.65 146.31-14.78 146.09-13.9 146.14-13.9ZM177.18-21.4L177.18-21.4Q179.83-21.4 181.18-20.3 182.53-19.2 183.01-16.9 183.48-14.6 183.48-11.05L183.48-11.05 183.48-5.65Q183.48-4.55 183.51-3.6 183.53-2.65 183.73-2.05L183.73-2.05Q183.83-1.8 184.46-1.6 185.08-1.4 185.78-1.33 186.48-1.25 186.78-1.25L186.78-1.25Q186.93-1.05 186.96-0.55 186.98-0.05 186.78 0.15L186.78 0.15Q185.28 0.05 184.16-0.03 183.03-0.1 181.58-0.1L181.58-0.1Q180.18-0.1 179.03-0.03 177.88 0.05 176.38 0.15L176.38 0.15Q176.18-0.05 176.21-0.55 176.23-1.05 176.38-1.25L176.38-1.25Q176.68-1.25 177.41-1.33 178.13-1.4 178.78-1.6 179.43-1.8 179.48-2.05L179.48-2.05Q179.68-2.65 179.71-3.6 179.73-4.55 179.73-5.65L179.73-5.65 179.73-10.55Q179.73-13.6 179.33-15.33 178.93-17.05 177.88-17.8 176.83-18.55 174.93-18.55L174.93-18.55Q174.03-18.55 172.96-17.98 171.88-17.4 171.08-16.75 170.28-16.1 170.28-15.85L170.28-15.85 170.28-5.65Q170.28-4.55 170.31-3.6 170.33-2.65 170.53-2.05L170.53-2.05Q170.63-1.8 171.26-1.6 171.88-1.4 172.58-1.33 173.28-1.25 173.58-1.25L173.58-1.25Q173.73-1.05 173.76-0.55 173.78-0.05 173.58 0.15L173.58 0.15Q172.08 0.05 170.96-0.03 169.83-0.1 168.38-0.1L168.38-0.1Q166.98-0.1 165.83-0.03 164.68 0.05 163.18 0.15L163.18 0.15Q162.98-0.05 163.01-0.55 163.03-1.05 163.18-1.25L163.18-1.25Q163.48-1.25 164.21-1.33 164.93-1.4 165.58-1.6 166.23-1.8 166.28-2.05L166.28-2.05Q166.48-2.65 166.51-3.6 166.53-4.55 166.53-5.65L166.53-5.65 166.53-14.55Q166.53-15.05 166.51-15.95 166.48-16.85 166.28-17.3L166.28-17.3Q166.13-17.75 165.43-17.93 164.73-18.1 164.03-18.13 163.33-18.15 163.13-18.15L163.13-18.15Q163.08-18.25 163.03-18.75 162.98-19.25 163.13-19.45L163.13-19.45Q165.03-19.7 166.83-20.2 168.63-20.7 170.08-21.5L170.08-21.5Q170.28-21.5 170.46-21.2 170.63-20.9 170.63-20.7L170.63-20.7Q170.63-20.55 170.56-19.93 170.48-19.3 170.41-18.7 170.33-18.1 170.33-17.9L170.33-17.9Q170.33-17.7 170.43-17.7L170.43-17.7Q170.48-17.7 170.58-17.8L170.58-17.8Q171.08-18.35 172.21-19.2 173.33-20.05 174.68-20.73 176.03-21.4 177.18-21.4ZM206.03-18.85L206.03-18.85Q206.03-17.55 205.43-17.03 204.83-16.5 204.18-16.5L204.18-16.5Q203.38-16.5 202.68-17.2 201.98-17.9 201.33-18.3L201.33-18.3Q200.53-18.85 200.03-19.05 199.53-19.25 198.58-19.25L198.58-19.25Q197.28-19.25 196-18.28 194.73-17.3 193.91-15.5 193.08-13.7 193.08-11.1L193.08-11.1Q193.08-6.85 195.38-4.85 197.68-2.85 200.98-2.85L200.98-2.85Q203.03-2.85 204.35-3.8 205.68-4.75 206.18-5.3L206.18-5.3Q206.23-5.3 206.41-5.13 206.58-4.95 206.58-4.65L206.58-4.65Q206.58-4.25 206.28-3.75L206.28-3.75Q205.83-3.05 204.88-2.08 203.93-1.1 202.48-0.35 201.03 0.4 199.13 0.4L199.13 0.4Q196.18 0.4 193.95-1 191.73-2.4 190.5-4.65 189.28-6.9 189.28-9.45L189.28-9.45Q189.28-12.15 190.41-14.33 191.53-16.5 193.31-18.1 195.08-19.7 197.16-20.55 199.23-21.4 201.13-21.4L201.13-21.4Q203.83-21.4 205.53-20.2L205.53-20.2Q205.68-20.05 205.85-19.65 206.03-19.25 206.03-18.85ZM223.03-21.4L223.03-21.4Q225.68-21.4 227.03-20.3 228.38-19.2 228.85-16.9 229.33-14.6 229.33-11.05L229.33-11.05 229.33-5.65Q229.33-4.55 229.35-3.6 229.38-2.65 229.58-2.05L229.58-2.05Q229.68-1.8 230.3-1.6 230.93-1.4 231.65-1.33 232.38-1.25 232.68-1.25L232.68-1.25Q232.83-1.05 232.85-0.55 232.88-0.05 232.68 0.15L232.68 0.15Q231.18 0.05 230.03-0.03 228.88-0.1 227.43-0.1L227.43-0.1Q226.03-0.1 224.9-0.03 223.78 0.05 222.28 0.15L222.28 0.15Q222.08-0.05 222.1-0.55 222.13-1.05 222.28-1.25L222.28-1.25Q222.58-1.25 223.28-1.33 223.98-1.4 224.63-1.6 225.28-1.8 225.33-2.05L225.33-2.05Q225.53-2.65 225.55-3.6 225.58-4.55 225.58-5.65L225.58-5.65 225.58-10.55Q225.58-13.6 225.18-15.33 224.78-17.05 223.73-17.8 222.68-18.55 220.78-18.55L220.78-18.55Q219.88-18.55 218.8-17.98 217.73-17.4 216.93-16.75 216.13-16.1 216.13-15.85L216.13-15.85 216.13-5.65Q216.13-4.55 216.15-3.6 216.18-2.65 216.38-2.05L216.38-2.05Q216.48-1.8 217.1-1.6 217.73-1.4 218.45-1.33 219.18-1.25 219.48-1.25L219.48-1.25Q219.63-1.05 219.65-0.55 219.68-0.05 219.48 0.15L219.48 0.15Q217.98 0.05 216.83-0.03 215.68-0.1 214.23-0.1L214.23-0.1Q212.83-0.1 211.7-0.03 210.58 0.05 209.08 0.15L209.08 0.15Q208.88-0.05 208.9-0.55 208.93-1.05 209.08-1.25L209.08-1.25Q209.38-1.25 210.08-1.33 210.78-1.4 211.43-1.6 212.08-1.8 212.13-2.05L212.13-2.05Q212.33-2.65 212.35-3.6 212.38-4.55 212.38-5.65L212.38-5.65 212.38-27.25Q212.38-27.75 212.35-28.55 212.33-29.35 212.13-29.8L212.13-29.8Q211.93-30.35 211.05-30.5 210.18-30.65 209.18-30.65L209.18-30.65Q209.13-30.65 209.1-31.28 209.08-31.9 209.23-31.95L209.23-31.95Q211.08-32.15 212.83-32.68 214.58-33.2 216.13-33.9L216.13-33.9Q216.33-33.9 216.5-33.63 216.68-33.35 216.68-33.1L216.68-33.1Q216.68-33.1 216.4-32 216.13-30.9 216.13-28.85L216.13-28.85 216.13-17.8Q216.13-17.7 216.28-17.7L216.28-17.7Q216.33-17.7 216.43-17.8L216.43-17.8Q216.93-18.35 218.05-19.2 219.18-20.05 220.53-20.73 221.88-21.4 223.03-21.4Z" fill="#121c56" data-fill-palette-color="primary"></path></g></svg></g></svg></g></svg></g></svg></g><g><svg viewBox="0 0 123.00104868922605 58.99657442486806" height="58.99657442486806" width="123.00104868922605"><g><svg xmlns:dc="http://purl.org/dc/elements/1.1/" xmlns:cc="http://creativecommons.org/ns#" xmlns:rdf="http://www.w3.org/1999/02/22-rdf-syntax-ns#" xmlns:svg="http://www.w3.org/2000/svg" xmlns="http://www.w3.org/2000/svg" xmlns:sodipodi="http://sodipodi.sourceforge.net/DTD/sodipodi-0.dtd" xmlns:inkscape="http://www.inkscape.org/namespaces/inkscape" viewBox="1.556 22.75 78.4 37.604" version="1.1" x="0" y="0" height="58.99657442486806" width="123.00104868922605" class="icon-icon-0" data-fill-palette-color="accent" id="icon-0"><path d="M8.603 22.75V23.632H1.556V26.274H8.603V27.155H1.556V29.798H8.603V30.678H1.556V33.322H8.603V34.202H1.556V36.845H8.603V40.369H1.556V43.892H6.813V60.354H11.218C11.91 59.645 12.852 58.618 13.585 57.849L13.613 57.82C13.163 56.695 12.887 55.211 12.704 53.582H69.66C69.477 55.21 69.202 56.695 68.752 57.822 68.745 57.838 68.752 57.845 68.752 57.848 69.504 58.61 70.52 59.679 71.147 60.354H75.55V43.892H79.956V40.37H72.908V36.845H79.956V34.202H72.908V33.322H79.956V30.678H72.908V29.798H79.956V27.155H72.908V26.275H79.956V23.63H72.908V22.751H69.908V23.63H10.833V22.751zM9.73 24.348A0.606 0.606 0 1 1 9.731 25.558 0.606 0.606 0 0 1 9.731 24.348M71.394 24.347A0.606 0.606 0 1 1 71.394 25.558 0.606 0.606 0 0 1 71.394 24.348M10.833 26.274H69.908V27.155H10.833zM9.73 27.871A0.606 0.606 0 1 1 9.731 29.082 0.606 0.606 0 0 1 9.731 27.871M71.394 27.87A0.606 0.606 0 1 1 71.394 29.082 0.606 0.606 0 0 1 71.394 27.871M10.833 29.798H69.908V30.678H10.833zM9.73 31.394A0.606 0.606 0 1 1 9.731 32.606 0.606 0.606 0 0 1 9.731 31.394M71.394 31.394A0.606 0.606 0 1 1 71.394 32.606 0.606 0.606 0 0 1 71.394 31.394M10.833 33.321H69.908V34.202H10.833zM9.73 34.808A0.606 0.606 0 1 1 9.731 36.019 0.606 0.606 0 0 1 9.731 34.808M71.394 34.808A0.606 0.606 0 1 1 71.394 36.019 0.606 0.606 0 0 1 71.394 34.808M10.833 36.845H69.908V40.369H10.833zM11.218 43.892H11.576C11.544 45.552 11.517 47.35 11.548 49.205 11.558 49.785 11.58 50.365 11.603 50.94H11.218zM12.457 43.892H69.907C69.948 45.553 69.968 47.333 69.936 49.178 69.925 49.768 69.907 50.357 69.88 50.939H12.484A60 60 0 0 1 12.43 49.178C12.4 47.333 12.417 45.553 12.457 43.892M70.789 43.892H71.147V50.94H70.76C70.785 50.365 70.807 49.785 70.816 49.205 70.847 47.35 70.828 45.552 70.79 43.892M8.162 51.875A0.44 0.44 0 1 1 8.162 52.756 0.44 0.44 0 0 1 8.162 51.876M9.924 51.875A0.44 0.44 0 1 1 9.924 52.756 0.44 0.44 0 0 1 9.924 51.876M72.468 51.875A0.44 0.44 0 1 1 72.468 52.756 0.44 0.44 0 0 1 72.468 51.876M74.23 51.875A0.44 0.44 0 1 1 74.23 52.756 0.44 0.44 0 0 1 74.23 51.876M11.218 53.582H11.796C11.953 55.084 12.191 56.475 12.594 57.656 12.068 57.493 11.691 57.833 11.218 58.07zM70.568 53.582H71.148V58.069C70.69 57.641 70.257 57.717 69.77 57.656 70.174 56.476 70.412 55.084 70.57 53.582" fill="#4b0c18" fill-opacity="0.99547544" fill-rule="nonzero" stroke="none" marker="none" visibility="visible" display="inline" overflow="visible" color="#4b0c18" enable-background="accumulate" data-fill-palette-color="accent"></path></svg></g></svg></g></svg></g></svg></g></svg></g></svg></g><defs></defs></svg><rect width="375.07953" height="115.29218599999999" fill="none" stroke="none" visibility="hidden"></rect></g></svg></g></svg>