<svg xmlns="http://www.w3.org/2000/svg" version="1.1" xmlns:xlink="http://www.w3.org/1999/xlink" xmlns:svgjs="http://svgjs.dev/svgjs" width="2000" height="348" viewBox="0 0 2000 348"><g transform="matrix(1,0,0,1,-1.2119690064640736,0.7328633732469427)"><svg viewBox="0 0 396 69" data-background-color="#ffffff" preserveAspectRatio="xMidYMid meet" height="348" width="2000" xmlns="http://www.w3.org/2000/svg" xmlns:xlink="http://www.w3.org/1999/xlink"><g id="tight-bounds" transform="matrix(1,0,0,1,0.2399698632798959,-0.14516184306697255)"><svg viewBox="0 0 395.52 69.29047096017628" height="69.29047096017628" width="395.52"><g><svg viewBox="0 0 524.9675467160187 91.9681648229199" height="69.29047096017628" width="395.52"><g transform="matrix(1,0,0,1,129.4475467160187,0)"><svg viewBox="0 0 395.52 91.9681648229199" height="91.9681648229199" width="395.52"><g id="textblocktransform"><svg viewBox="0 0 395.52 91.9681648229199" height="91.9681648229199" width="395.52" id="textblock"><g><svg viewBox="0 0 395.52 75.15451319016552" height="75.15451319016552" width="395.52"><path d="M394.594 16.119C392.735 8.318 387.435 6.15 387.435 6.15 371.165-1.886 350.86-0.154 332.619 1.001 300.414 1.048 268.339 2.764 236.208 3.684 168.767 3.825 100.749 1.516 33.643 7.21 27.339 8.958-6.54 7.554 1.121 17.118 3.129 21.096 10.456 25.512 10.232 29.162 11.236 29.802 12.631 28.336 13.226 29.256 15.309 31.737 18.711 30.567 21.501 32.033 17.614 35.949 20.403 39.21 23.062 42.627 18.377 43.516 12.371 43.095 9.675 46.044 9.396 48.181 7.89 47.776 6.235 47.682 5.026 47.62 2.59 47.854 2.999 48.525 4.394 50.818-1.594 52.144 2.162 54.391-0.422 56.825 3.948 58.931 3.353 61.568 3.278 62.098 3.687 62.551 4.338 62.676 7.22 63.347 3.018 64.657 3.464 66.077 33.029 75.781 65.104 69.072 95.394 73.535 103.259 70.414 97.346 74.642 100.489 73.987 102.943 73.223 104.728 76.39 107.499 74.596 107.927 74.081 107.276 72.864 108.8 73.098 109.6 73.223 110.307 73.191 110.418 72.474 110.586 71.397 109.117 72.068 108.726 71.506 112.947 68.667 111.906 75.422 115.866 75.142 115.68 74.315 114.528 73.129 116.889 73.285 119.232 72.099 119.306 71.116 121.389 73.784 121.463 74.362 121.835 74.767 122.43 75.048 128.938 72.146 135.409 76.078 142.233 74.767 146.417 73.332 150.433 75.547 154.672 75.001 156.16 74.564 157.666 73.784 159.098 75.095 176.632 75.376 195.319 74.206 211.943 75.142 256.364 73.394 303.836 75.859 350.674 73.55 361.719 72.661 373.192 71.397 383.958 70.383 383.958 70.383 392.679 67.606 392.679 55.124S394.538 44.203 394.817 34.264C395.096 24.326 396.398 23.92 394.538 16.119Z" opacity="1" fill="#cf4518" data-fill-palette-color="tertiary"></path><g transform="matrix(1,0,0,1,55.76832,26.068561146666667)"><svg width="283.98335999999995" viewBox="3.392434908337 -36.25 621.1367784705692 50.35" height="23.01739089683218" data-palette-color="#ffffff"><g transform="matrix(1,0,0,1,0,0)"><g><svg width="14.0994755859375" viewBox="3.16 -36.36 63.150000000000006 36.36" height="8.118" data-palette-color="#ffffff" id="scriptelement" x="610.4297377929687" y="-36.25"><path d="M10.85 0L3.16 0 3.16-36.36 10.85-36.36 10.85-20.33 11.33-20.33 24.41-36.36 33.63-36.36 20.13-20.08 33.79 0 24.59 0 14.63-14.95 10.85-10.33 10.85 0ZM45.33 0L37.64 0 37.64-36.36 51.99-36.36Q56.11-36.36 59.03-34.9 61.95-33.43 63.48-30.76 65.02-28.09 65.02-24.49L65.02-24.49Q65.02-20.86 63.46-18.26 61.89-15.66 58.94-14.28 55.98-12.89 51.79-12.89L51.79-12.89 42.19-12.89 42.19-19.07 50.55-19.07Q52.75-19.07 54.21-19.67 55.66-20.28 56.38-21.48 57.1-22.69 57.1-24.49L57.1-24.49Q57.1-26.3 56.38-27.54 55.66-28.78 54.2-29.43 52.73-30.08 50.51-30.08L50.51-30.08 45.33-30.08 45.33 0ZM48.99-16.55L57.28-16.55 66.31 0 57.83 0 48.99-16.55Z" opacity="1" transform="matrix(1,0,0,1,0,0)" fill="#ffffff" class="undefined-123" data-fill-palette-color="quaternary" id="tk-123"></path></svg></g></g><path d="M7.25-25.4L7.25-25.4Q7.25-23.35 8.28-21.88 9.3-20.4 10.9-19.3 12.5-18.2 14.3-17.1L14.3-17.1Q16.15-16.05 17.88-14.85 19.6-13.65 20.73-12 21.85-10.35 21.85-7.95L21.85-7.95Q21.85-5.55 20.65-3.63 19.45-1.7 17.18-0.55 14.9 0.6 11.55 0.6L11.55 0.6Q10.35 0.6 9.18 0.43 8 0.25 6.83-0.15 5.65-0.55 4.5-1.15L4.5-1.15Q4.25-1.3 4.17-1.53 4.1-1.75 4.05-2.1L4.05-2.1 3.4-8.9Q3.35-9.15 3.63-9.18 3.9-9.2 3.95-9L3.95-9Q4.3-7.5 4.95-5.95 5.6-4.4 6.65-3.1 7.7-1.8 9.2-1 10.7-0.2 12.7-0.2L12.7-0.2Q14.15-0.2 15.53-0.75 16.9-1.3 17.78-2.55 18.65-3.8 18.65-5.95L18.65-5.95Q18.65-8.4 17.57-10.03 16.5-11.65 14.85-12.85 13.2-14.05 11.35-15.1L11.35-15.1Q9.6-16.2 7.98-17.35 6.35-18.5 5.33-20.08 4.3-21.65 4.3-24L4.3-24Q4.3-26.65 5.65-28.38 7-30.1 9.15-30.95 11.3-31.8 13.6-31.8L13.6-31.8Q15-31.8 16.5-31.53 18-31.25 19.45-30.6L19.45-30.6Q19.85-30.45 20.03-30.23 20.2-30 20.2-29.75L20.2-29.75 20.55-24.05Q20.55-23.85 20.3-23.83 20.05-23.8 19.95-24L19.95-24Q19.85-25 19.4-26.23 18.95-27.45 18.1-28.55 17.25-29.65 15.95-30.35 14.65-31.05 12.8-31.05L12.8-31.05Q10.85-31.05 9.63-30.23 8.4-29.4 7.83-28.13 7.25-26.85 7.25-25.4ZM33.95 0.6L33.95 0.6Q32.75 0.6 31.65 0.23 30.55-0.15 29.85-1.05 29.15-1.95 29.15-3.5L29.15-3.5 29.15-15.25Q29.15-16.45 29-17.05 28.85-17.65 28.3-17.82 27.75-18 26.6-18L26.6-18Q26.4-18 26.4-18.32 26.4-18.65 26.6-18.65L26.6-18.65Q28.6-18.7 29.87-19.75 31.15-20.8 31.3-22.45L31.3-22.45Q31.3-22.6 31.67-22.6 32.05-22.6 32.05-22.45L32.05-22.45 32.05-5.2Q32.05-3.15 33.07-2.15 34.1-1.15 36-1.15L36-1.15Q37.3-1.15 38.32-1.58 39.35-2 40-2.55L40-2.55Q40.2-2.65 40.37-2.43 40.55-2.2 40.35-2.05L40.35-2.05Q38.5-0.65 37.02-0.03 35.55 0.6 33.95 0.6ZM38.8-16.85L38.8-16.85Q36.85-17.35 35.05-17.5 33.25-17.65 31.2-17.65L31.2-17.65 31.2-18.75Q33.2-18.75 35.05-18.9 36.9-19.05 39-19.25L39-19.25Q39.1-19.25 39.22-18.9 39.35-18.55 39.35-18.05L39.35-18.05Q39.35-17.7 39.17-17.25 39-16.8 38.8-16.85ZM53 0.65L53 0.65Q50.05 0.65 47.85-0.8 45.65-2.25 44.45-4.67 43.25-7.1 43.25-9.9L43.25-9.9Q43.25-12.5 44.2-14.4 45.15-16.3 46.75-17.53 48.35-18.75 50.22-19.35 52.1-19.95 53.9-19.95L53.9-19.95Q56.95-19.95 59.12-18.45 61.3-16.95 62.45-14.6 63.6-12.25 63.6-9.65L63.6-9.65Q63.6-6.45 62.15-4.15 60.7-1.85 58.3-0.6 55.9 0.65 53 0.65ZM54.45-0.3L54.45-0.3Q57.1-0.3 58.65-2.18 60.2-4.05 60.2-8.25L60.2-8.25Q60.2-11.4 59.17-13.83 58.15-16.25 56.35-17.63 54.55-19 52.25-19L52.25-19Q49.6-19 48.1-17.05 46.6-15.1 46.6-11.45L46.6-11.45Q46.6-8.4 47.6-5.85 48.6-3.3 50.37-1.8 52.15-0.3 54.45-0.3ZM81.09 0L81.09 0Q80.94 0 80.94-0.3 80.94-0.6 81.09-0.6L81.09-0.6Q83.04-0.6 83.62-1.28 84.19-1.95 84.19-4.05L84.19-4.05 84.19-12.15Q84.19-15.15 83.09-16.53 81.99-17.9 79.59-17.9L79.59-17.9Q77.79-17.9 75.89-16.75 73.99-15.6 72.64-13.6L72.64-13.6 72.44-14.2Q74.64-17.15 76.82-18.55 78.99-19.95 81.24-19.95L81.24-19.95Q83.99-19.95 85.52-18.43 87.04-16.9 87.04-13.85L87.04-13.85 87.04-4.05Q87.04-1.95 87.62-1.28 88.19-0.6 90.14-0.6L90.14-0.6Q90.29-0.6 90.29-0.3 90.29 0 90.14 0L90.14 0Q89.29 0 88.12-0.05 86.94-0.1 85.64-0.1L85.64-0.1Q84.34-0.1 83.14-0.05 81.94 0 81.09 0ZM67.64 0L67.64 0Q67.49 0 67.49-0.3 67.49-0.6 67.64-0.6L67.64-0.6Q69.59-0.6 70.17-1.28 70.74-1.95 70.74-4.05L70.74-4.05 70.74-13.95Q70.74-15.6 70.37-16.38 69.99-17.15 68.99-17.15L68.99-17.15Q68.49-17.15 67.82-16.95 67.14-16.75 66.29-16.4L66.29-16.4Q66.09-16.35 65.97-16.6 65.84-16.85 66.04-16.95L66.04-16.95 71.84-19.7Q71.99-19.75 72.14-19.75L72.14-19.75Q72.49-19.75 73.04-18.7 73.59-17.65 73.59-15.65L73.59-15.65 73.59-4.05Q73.59-1.95 74.17-1.28 74.74-0.6 76.69-0.6L76.69-0.6Q76.84-0.6 76.84-0.3 76.84 0 76.69 0L76.69 0Q75.84 0 74.67-0.05 73.49-0.1 72.19-0.1L72.19-0.1Q70.89-0.1 69.69-0.05 68.49 0 67.64 0ZM102.44 0.6L102.44 0.6Q99.34 0.6 97.24-0.78 95.14-2.15 94.09-4.35 93.04-6.55 93.04-9L93.04-9Q93.04-12.05 94.47-14.48 95.89-16.9 98.32-18.32 100.74-19.75 103.79-19.75L103.79-19.75Q106.54-19.75 108.02-18.43 109.49-17.1 109.49-14.8L109.49-14.8Q109.49-14.25 109.39-13.95 109.29-13.65 108.89-13.65L108.89-13.65 105.99-13.65Q106.19-16.1 105.12-17.43 104.04-18.75 102.09-18.75L102.09-18.75Q99.29-18.75 97.82-16.65 96.34-14.55 96.34-10.95L96.34-10.95Q96.34-8.1 97.27-5.9 98.19-3.7 99.97-2.43 101.74-1.15 104.19-1.15L104.19-1.15Q105.49-1.15 106.84-1.55 108.19-1.95 109.39-2.8L109.39-2.8Q109.49-2.9 109.67-2.68 109.84-2.45 109.74-2.3L109.74-2.3Q107.94-0.75 106.14-0.08 104.34 0.6 102.44 0.6ZM106.79-13.65L95.44-13.55 95.39-14.2 106.79-14.45 106.79-13.65ZM126.64-17.1L126.64-17.1 127.19-17.65Q130.14-17.65 132.36-16.55 134.59-15.45 135.81-13.55 137.04-11.65 137.04-9.2L137.04-9.2Q137.04-6.55 135.74-4.4 134.44-2.25 132.16-1.03 129.89 0.2 127.09 0.2L127.09 0.2Q125.49 0.2 123.46 0.05 121.44-0.1 119.74-0.1L119.74-0.1Q118.09-0.1 116.56-0.05 115.04 0 113.79 0L113.79 0Q113.69 0 113.69-0.3 113.69-0.6 113.79-0.6L113.79-0.6Q115.59-0.6 116.54-0.85 117.49-1.1 117.84-1.85 118.19-2.6 118.19-4.05L118.19-4.05 118.19-27.2Q118.19-28.65 117.86-29.38 117.54-30.1 116.61-30.38 115.69-30.65 113.89-30.65L113.89-30.65Q113.74-30.65 113.74-30.95 113.74-31.25 113.89-31.25L113.89-31.25Q115.09-31.25 116.59-31.18 118.09-31.1 119.74-31.1L119.74-31.1Q121.04-31.1 122.74-31.25 124.44-31.4 125.64-31.4L125.64-31.4Q128.59-31.4 130.44-30.53 132.29-29.65 133.16-28.15 134.04-26.65 134.04-24.8L134.04-24.8Q134.04-21.95 131.96-19.95 129.89-17.95 126.64-17.1ZM124.54-30.65L124.54-30.65Q123.39-30.65 122.69-30.45 121.99-30.25 121.69-29.53 121.39-28.8 121.39-27.1L121.39-27.1 121.39-17.3 119.79-17.7Q121.39-17.6 122.44-17.57 123.49-17.55 123.64-17.55L123.64-17.55Q127.49-17.55 129.14-19.53 130.79-21.5 130.79-24.4L130.79-24.4Q130.79-26.15 130.16-27.58 129.54-29 128.19-29.83 126.84-30.65 124.54-30.65ZM126.34-0.7L126.34-0.7Q130.09-0.7 131.81-2.63 133.54-4.55 133.54-7.95L133.54-7.95Q133.54-11.7 131.34-14.1 129.14-16.5 125.19-16.5L125.19-16.5Q123.94-16.55 122.61-16.5 121.29-16.45 119.94-16.25L119.94-16.25 121.39-16.8 121.39-4.05Q121.39-2.85 121.74-2.1 122.09-1.35 123.16-1.03 124.24-0.7 126.34-0.7ZM119.79-17.7L119.79-17.7ZM150.74 0.6L150.74 0.6Q147.64 0.6 145.54-0.78 143.44-2.15 142.39-4.35 141.34-6.55 141.34-9L141.34-9Q141.34-12.05 142.76-14.48 144.19-16.9 146.61-18.32 149.04-19.75 152.09-19.75L152.09-19.75Q154.84-19.75 156.31-18.43 157.79-17.1 157.79-14.8L157.79-14.8Q157.79-14.25 157.69-13.95 157.59-13.65 157.19-13.65L157.19-13.65 154.29-13.65Q154.49-16.1 153.41-17.43 152.34-18.75 150.39-18.75L150.39-18.75Q147.59-18.75 146.11-16.65 144.64-14.55 144.64-10.95L144.64-10.95Q144.64-8.1 145.56-5.9 146.49-3.7 148.26-2.43 150.04-1.15 152.49-1.15L152.49-1.15Q153.79-1.15 155.14-1.55 156.49-1.95 157.69-2.8L157.69-2.8Q157.79-2.9 157.96-2.68 158.14-2.45 158.04-2.3L158.04-2.3Q156.24-0.75 154.44-0.08 152.64 0.6 150.74 0.6ZM155.09-13.65L143.74-13.55 143.69-14.2 155.09-14.45 155.09-13.65ZM175.63 0L175.63 0Q175.48 0 175.48-0.3 175.48-0.6 175.63-0.6L175.63-0.6Q177.58-0.6 178.16-1.28 178.73-1.95 178.73-4.05L178.73-4.05 178.73-12.15Q178.73-15.15 177.63-16.53 176.53-17.9 174.13-17.9L174.13-17.9Q172.33-17.9 170.43-16.75 168.53-15.6 167.18-13.6L167.18-13.6 166.98-14.2Q169.18-17.15 171.36-18.55 173.53-19.95 175.78-19.95L175.78-19.95Q178.53-19.95 180.06-18.43 181.58-16.9 181.58-13.85L181.58-13.85 181.58-4.05Q181.58-1.95 182.16-1.28 182.73-0.6 184.68-0.6L184.68-0.6Q184.83-0.6 184.83-0.3 184.83 0 184.68 0L184.68 0Q183.83 0 182.66-0.05 181.48-0.1 180.18-0.1L180.18-0.1Q178.88-0.1 177.68-0.05 176.48 0 175.63 0ZM162.18 0L162.18 0Q162.03 0 162.03-0.3 162.03-0.6 162.18-0.6L162.18-0.6Q164.13-0.6 164.71-1.28 165.28-1.95 165.28-4.05L165.28-4.05 165.28-13.95Q165.28-15.6 164.91-16.38 164.53-17.15 163.53-17.15L163.53-17.15Q163.03-17.15 162.36-16.95 161.68-16.75 160.83-16.4L160.83-16.4Q160.63-16.35 160.51-16.6 160.38-16.85 160.58-16.95L160.58-16.95 166.38-19.7Q166.53-19.75 166.68-19.75L166.68-19.75Q167.03-19.75 167.58-18.7 168.13-17.65 168.13-15.65L168.13-15.65 168.13-4.05Q168.13-1.95 168.71-1.28 169.28-0.6 171.23-0.6L171.23-0.6Q171.38-0.6 171.38-0.3 171.38 0 171.23 0L171.23 0Q170.38 0 169.21-0.05 168.03-0.1 166.73-0.1L166.73-0.1Q165.43-0.1 164.23-0.05 163.03 0 162.18 0ZM197.33 0.6L197.33 0.6Q193.93 0.6 191.78-0.88 189.63-2.35 188.61-4.63 187.58-6.9 187.58-9.25L187.58-9.25Q187.58-11.75 188.56-13.7 189.53-15.65 191.13-17 192.73-18.35 194.68-19.05 196.63-19.75 198.48-19.75L198.48-19.75Q199.93-19.75 201.26-19.38 202.58-19 203.46-18.3 204.33-17.6 204.33-16.7L204.33-16.7Q204.33-16.05 203.88-15.58 203.43-15.1 202.58-15.1L202.58-15.1Q201.78-15.1 201.26-15.6 200.73-16.1 200.38-16.75L200.38-16.75Q199.83-17.65 199.08-18.2 198.33-18.75 196.83-18.75L196.83-18.75Q193.98-18.75 192.43-16.53 190.88-14.3 190.88-10.75L190.88-10.75Q190.88-8.2 191.76-6 192.63-3.8 194.48-2.48 196.33-1.15 199.28-1.15L199.28-1.15Q200.63-1.15 201.93-1.5 203.23-1.85 204.38-2.8L204.38-2.8Q204.48-2.9 204.66-2.7 204.83-2.5 204.73-2.4L204.73-2.4Q202.98-0.85 201.23-0.13 199.48 0.6 197.33 0.6ZM207.63 0L207.63 0Q207.48 0 207.48-0.3 207.48-0.6 207.63-0.6L207.63-0.6Q209.58-0.6 210.18-1.28 210.78-1.95 210.78-4.05L210.78-4.05 210.78-29.9Q210.78-31.65 210.43-32.48 210.08-33.3 209.18-33.3L209.18-33.3Q208.43-33.3 206.88-32.6L206.88-32.6Q206.68-32.5 206.55-32.77 206.43-33.05 206.63-33.15L206.63-33.15 212.98-36.25Q213.08-36.25 213.08-36.25 213.08-36.25 213.13-36.25L213.13-36.25Q213.28-36.25 213.43-36.13 213.58-36 213.58-35.85L213.58-35.85 213.58-4.05Q213.58-1.95 214.18-1.28 214.78-0.6 216.73-0.6L216.73-0.6Q216.88-0.6 216.88-0.3 216.88 0 216.73 0L216.73 0Q215.83 0 214.68-0.05 213.53-0.1 212.18-0.1L212.18-0.1Q210.88-0.1 209.68-0.05 208.48 0 207.63 0ZM221.08 0L221.08 0Q220.93 0 220.93-0.3 220.93-0.6 221.08-0.6L221.08-0.6Q223.03-0.6 223.63-1.28 224.23-1.95 224.23-4.05L224.23-4.05 224.23-12Q224.23-17.85 219.63-17.85L219.63-17.85Q217.78-17.85 215.88-16.68 213.98-15.5 212.63-13.5L212.63-13.5 212.43-14.1Q214.63-17.1 216.8-18.45 218.98-19.8 221.28-19.8L221.28-19.8Q224.03-19.8 225.53-18.28 227.03-16.75 227.03-13.75L227.03-13.75 227.03-4.05Q227.03-1.95 227.63-1.28 228.23-0.6 230.18-0.6L230.18-0.6Q230.33-0.6 230.33-0.3 230.33 0 230.18 0L230.18 0Q229.28 0 228.13-0.05 226.98-0.1 225.63-0.1L225.63-0.1Q224.33-0.1 223.13-0.05 221.93 0 221.08 0ZM252.37-30.35L252.37-30.35Q249.27-30.35 247.7-28.75 246.12-27.15 245.42-23.3L245.42-23.3Q245.42-23.2 245.15-23.2 244.87-23.2 244.87-23.3L244.87-23.3Q244.97-23.95 245.07-25.13 245.17-26.3 245.3-27.65 245.42-29 245.5-30.28 245.57-31.55 245.57-32.35L245.57-32.35Q245.57-32.6 245.85-32.6 246.12-32.6 246.12-32.35L246.12-32.35Q246.12-31.85 246.62-31.63 247.12-31.4 247.75-31.33 248.37-31.25 248.82-31.25L248.82-31.25Q253.12-31.1 258.87-31.1L258.87-31.1Q262.42-31.1 264.5-31.18 266.57-31.25 268.52-31.25L268.52-31.25Q270.22-31.25 271.15-31.48 272.07-31.7 272.32-32.5L272.32-32.5Q272.37-32.7 272.62-32.7 272.87-32.7 272.87-32.5L272.87-32.5Q272.82-31.75 272.72-30.45 272.62-29.15 272.57-27.75 272.52-26.35 272.47-25.15 272.42-23.95 272.42-23.3L272.42-23.3Q272.42-23.2 272.12-23.2 271.82-23.2 271.82-23.3L271.82-23.3Q271.67-27.2 270.22-28.78 268.77-30.35 265.42-30.35L265.42-30.35Q263.32-30.35 262.27-30.15 261.22-29.95 260.9-29.28 260.57-28.6 260.57-27.1L260.57-27.1 260.57-4.05Q260.57-2.6 260.92-1.85 261.27-1.1 262.3-0.85 263.32-0.6 265.42-0.6L265.42-0.6Q265.57-0.6 265.57-0.3 265.57 0 265.42 0L265.42 0Q264.12 0 262.47-0.05 260.82-0.1 258.87-0.1L258.87-0.1Q257.02-0.1 255.37-0.05 253.72 0 252.37 0L252.37 0Q252.27 0 252.27-0.3 252.27-0.6 252.37-0.6L252.37-0.6Q254.42-0.6 255.5-0.85 256.57-1.1 256.92-1.85 257.27-2.6 257.27-4.05L257.27-4.05 257.27-27.2Q257.27-28.7 256.92-29.38 256.57-30.05 255.52-30.2 254.47-30.35 252.37-30.35ZM277.72-13.55L277.72-13.55 277.52-14.1Q279.37-16.35 280.57-17.57 281.77-18.8 282.64-19.28 283.52-19.75 284.32-19.75L284.32-19.75Q285.37-19.75 286.39-19.15 287.42-18.55 287.42-17.7L287.42-17.7Q287.42-17.05 287-16.6 286.57-16.15 285.77-16.15L285.77-16.15Q285.12-16.15 284.67-16.55 284.22-16.95 283.72-17.3 283.22-17.65 282.42-17.65L282.42-17.65Q281.97-17.65 281.47-17.4 280.97-17.15 280.12-16.28 279.27-15.4 277.72-13.55ZM272.82 0L272.82 0Q272.67 0 272.67-0.3 272.67-0.6 272.82-0.6L272.82-0.6Q274.77-0.6 275.34-1.28 275.92-1.95 275.92-4.05L275.92-4.05 275.92-13.95Q275.92-15.6 275.55-16.38 275.17-17.15 274.17-17.15L274.17-17.15Q273.67-17.15 273-16.95 272.32-16.75 271.47-16.4L271.47-16.4Q271.27-16.35 271.14-16.6 271.02-16.85 271.22-16.95L271.22-16.95 277.02-19.7Q277.17-19.75 277.32-19.75L277.32-19.75Q277.67-19.75 278.22-18.7 278.77-17.65 278.77-15.65L278.77-15.65 278.77-4.05Q278.77-2.65 279.12-1.88 279.47-1.1 280.52-0.85 281.57-0.6 283.62-0.6L283.62-0.6Q283.82-0.6 283.82-0.3 283.82 0 283.62 0L283.62 0Q282.42 0 280.8-0.05 279.17-0.1 277.37-0.1L277.37-0.1Q276.07-0.1 274.87-0.05 273.67 0 272.82 0ZM308.77-2.15L303.62 0.3Q303.42 0.4 303.22 0.4L303.22 0.4Q302.57 0.4 301.97-0.68 301.37-1.75 301.37-3.8L301.37-3.8 301.37-12.75Q301.37-15.1 300.94-16.4 300.52-17.7 299.79-18.2 299.07-18.7 298.17-18.7L298.17-18.7Q296.92-18.7 296.12-18.07 295.32-17.45 294.92-16.5 294.52-15.55 294.37-14.6L294.37-14.6Q294.32-13.9 293.94-13.3 293.57-12.7 292.52-12.7L292.52-12.7Q291.72-12.7 291.27-13.1 290.82-13.5 290.82-14.2L290.82-14.2Q290.82-15.1 291.72-16.07 292.62-17.05 293.99-17.88 295.37-18.7 296.89-19.23 298.42-19.75 299.77-19.75L299.77-19.75Q301.67-19.75 302.92-18.43 304.17-17.1 304.17-14.25L304.17-14.25 304.17-5.4Q304.17-3.65 304.62-2.85 305.07-2.05 306.07-2.05L306.07-2.05Q306.97-2.05 308.57-2.7L308.57-2.7Q308.82-2.8 308.92-2.53 309.02-2.25 308.77-2.15L308.77-2.15ZM293.82 0.35L293.82 0.35Q292.22 0.35 291.42-0.53 290.62-1.4 290.62-2.55L290.62-2.55Q290.62-3.95 291.72-4.78 292.82-5.6 295.32-6.45L295.32-6.45 301.87-8.8 302.02-8.25 296.22-6.05Q295.07-5.6 294.59-5.05 294.12-4.5 294.12-3.65L294.12-3.65Q294.12-2.6 294.72-2.02 295.32-1.45 296.27-1.45L296.27-1.45Q296.82-1.45 297.32-1.58 297.82-1.7 298.32-1.95L298.32-1.95 302.57-4.1 302.67-3.5 298.32-1.15Q296.82-0.4 295.82-0.03 294.82 0.35 293.82 0.35ZM311.51 0L311.51 0Q311.41 0 311.41-0.3 311.41-0.6 311.51-0.6L311.51-0.6Q313.46-0.6 314.09-1.28 314.71-1.95 314.71-4.05L314.71-4.05 314.71-13.4Q314.71-15.15 314.36-15.98 314.01-16.8 313.06-16.8L313.06-16.8Q312.66-16.8 312.11-16.63 311.56-16.45 310.81-16.1L310.81-16.1Q310.61-16.05 310.49-16.32 310.36-16.6 310.51-16.7L310.51-16.7 317.01-19.7Q317.16-19.75 317.21-19.75L317.21-19.75Q317.31-19.75 317.46-19.63 317.61-19.5 317.61-19.35L317.61-19.35Q317.61-18.95 317.56-17.4 317.51-15.85 317.51-13.45L317.51-13.45 317.51-4.05Q317.51-1.95 318.09-1.28 318.66-0.6 320.66-0.6L320.66-0.6Q320.81-0.6 320.81-0.3 320.81 0 320.66 0L320.66 0Q319.76 0 318.59-0.05 317.41-0.1 316.11-0.1L316.11-0.1Q314.81-0.1 313.64-0.05 312.46 0 311.51 0ZM315.71-25.6L315.71-25.6Q314.66-25.6 314.09-26.15 313.51-26.7 313.51-27.7L313.51-27.7Q313.51-28.7 314.09-29.25 314.66-29.8 315.71-29.8L315.71-29.8Q316.71-29.8 317.26-29.25 317.81-28.7 317.81-27.7L317.81-27.7Q317.81-25.6 315.71-25.6ZM338.21 0L338.21 0Q338.06 0 338.06-0.3 338.06-0.6 338.21-0.6L338.21-0.6Q340.16-0.6 340.74-1.28 341.31-1.95 341.31-4.05L341.31-4.05 341.31-12.15Q341.31-15.15 340.21-16.53 339.11-17.9 336.71-17.9L336.71-17.9Q334.91-17.9 333.01-16.75 331.11-15.6 329.76-13.6L329.76-13.6 329.56-14.2Q331.76-17.15 333.94-18.55 336.11-19.95 338.36-19.95L338.36-19.95Q341.11-19.95 342.64-18.43 344.16-16.9 344.16-13.85L344.16-13.85 344.16-4.05Q344.16-1.95 344.74-1.28 345.31-0.6 347.26-0.6L347.26-0.6Q347.41-0.6 347.41-0.3 347.41 0 347.26 0L347.26 0Q346.41 0 345.24-0.05 344.06-0.1 342.76-0.1L342.76-0.1Q341.46-0.1 340.26-0.05 339.06 0 338.21 0ZM324.76 0L324.76 0Q324.61 0 324.61-0.3 324.61-0.6 324.76-0.6L324.76-0.6Q326.71-0.6 327.29-1.28 327.86-1.95 327.86-4.05L327.86-4.05 327.86-13.95Q327.86-15.6 327.49-16.38 327.11-17.15 326.11-17.15L326.11-17.15Q325.61-17.15 324.94-16.95 324.26-16.75 323.41-16.4L323.41-16.4Q323.21-16.35 323.09-16.6 322.96-16.85 323.16-16.95L323.16-16.95 328.96-19.7Q329.11-19.75 329.26-19.75L329.26-19.75Q329.61-19.75 330.16-18.7 330.71-17.65 330.71-15.65L330.71-15.65 330.71-4.05Q330.71-1.95 331.29-1.28 331.86-0.6 333.81-0.6L333.81-0.6Q333.96-0.6 333.96-0.3 333.96 0 333.81 0L333.81 0Q332.96 0 331.79-0.05 330.61-0.1 329.31-0.1L329.31-0.1Q328.01-0.1 326.81-0.05 325.61 0 324.76 0ZM351.01 0L351.01 0Q350.91 0 350.91-0.3 350.91-0.6 351.01-0.6L351.01-0.6Q352.96-0.6 353.58-1.28 354.21-1.95 354.21-4.05L354.21-4.05 354.21-13.4Q354.21-15.15 353.86-15.98 353.51-16.8 352.56-16.8L352.56-16.8Q352.16-16.8 351.61-16.63 351.06-16.45 350.31-16.1L350.31-16.1Q350.11-16.05 349.98-16.32 349.86-16.6 350.01-16.7L350.01-16.7 356.51-19.7Q356.66-19.75 356.71-19.75L356.71-19.75Q356.81-19.75 356.96-19.63 357.11-19.5 357.11-19.35L357.11-19.35Q357.11-18.95 357.06-17.4 357.01-15.85 357.01-13.45L357.01-13.45 357.01-4.05Q357.01-1.95 357.58-1.28 358.16-0.6 360.16-0.6L360.16-0.6Q360.31-0.6 360.31-0.3 360.31 0 360.16 0L360.16 0Q359.26 0 358.08-0.05 356.91-0.1 355.61-0.1L355.61-0.1Q354.31-0.1 353.13-0.05 351.96 0 351.01 0ZM355.21-25.6L355.21-25.6Q354.16-25.6 353.58-26.15 353.01-26.7 353.01-27.7L353.01-27.7Q353.01-28.7 353.58-29.25 354.16-29.8 355.21-29.8L355.21-29.8Q356.21-29.8 356.76-29.25 357.31-28.7 357.31-27.7L357.31-27.7Q357.31-25.6 355.21-25.6ZM377.71 0L377.71 0Q377.56 0 377.56-0.3 377.56-0.6 377.71-0.6L377.71-0.6Q379.66-0.6 380.23-1.28 380.81-1.95 380.81-4.05L380.81-4.05 380.81-12.15Q380.81-15.15 379.71-16.53 378.61-17.9 376.21-17.9L376.21-17.9Q374.41-17.9 372.51-16.75 370.61-15.6 369.26-13.6L369.26-13.6 369.06-14.2Q371.26-17.15 373.43-18.55 375.61-19.95 377.86-19.95L377.86-19.95Q380.61-19.95 382.13-18.43 383.66-16.9 383.66-13.85L383.66-13.85 383.66-4.05Q383.66-1.95 384.23-1.28 384.81-0.6 386.76-0.6L386.76-0.6Q386.91-0.6 386.91-0.3 386.91 0 386.76 0L386.76 0Q385.91 0 384.73-0.05 383.56-0.1 382.26-0.1L382.26-0.1Q380.96-0.1 379.76-0.05 378.56 0 377.71 0ZM364.26 0L364.26 0Q364.11 0 364.11-0.3 364.11-0.6 364.26-0.6L364.26-0.6Q366.21-0.6 366.78-1.28 367.36-1.95 367.36-4.05L367.36-4.05 367.36-13.95Q367.36-15.6 366.98-16.38 366.61-17.15 365.61-17.15L365.61-17.15Q365.11-17.15 364.43-16.95 363.76-16.75 362.91-16.4L362.91-16.4Q362.71-16.35 362.58-16.6 362.46-16.85 362.66-16.95L362.66-16.95 368.46-19.7Q368.61-19.75 368.76-19.75L368.76-19.75Q369.11-19.75 369.66-18.7 370.21-17.65 370.21-15.65L370.21-15.65 370.21-4.05Q370.21-1.95 370.78-1.28 371.36-0.6 373.31-0.6L373.31-0.6Q373.46-0.6 373.46-0.3 373.46 0 373.31 0L373.31 0Q372.46 0 371.28-0.05 370.11-0.1 368.81-0.1L368.81-0.1Q367.51-0.1 366.31-0.05 365.11 0 364.26 0ZM396.5 14.1L396.5 14.1Q392.9 14.1 390.75 12.38 388.6 10.65 388.6 8.05L388.6 8.05Q388.6 6.45 389.48 4.95 390.35 3.45 392.05 1.98 393.75 0.5 396.25-1L396.25-1 396.75-0.45Q395.5 0.35 394.3 1.23 393.1 2.1 392.33 3.33 391.55 4.55 391.55 6.45L391.55 6.45Q391.55 9.3 393.43 10.95 395.3 12.6 398.5 12.6L398.5 12.6Q401.05 12.6 402.8 11.68 404.55 10.75 405.45 9.25 406.35 7.75 406.35 6.15L406.35 6.15Q406.35 4.55 405.55 3.6 404.75 2.65 403.45 2.13 402.15 1.6 400.58 1.35 399 1.1 397.45 0.9L397.45 0.9Q395.9 0.7 394.4 0.33 392.9-0.05 391.9-0.85 390.9-1.65 390.9-3.1L390.9-3.1Q390.9-4.7 392.13-6.15 393.35-7.6 395.05-8.6L395.05-8.6 395.4-8.25Q394.4-7.65 393.83-6.75 393.25-5.85 393.25-4.85L393.25-4.85Q393.25-3.7 394.08-3.05 394.9-2.4 396.23-2.1 397.55-1.8 398.95-1.6L398.95-1.6Q400.7-1.35 402.45-1.05 404.2-0.75 405.68-0.18 407.15 0.4 408.05 1.48 408.95 2.55 408.95 4.4L408.95 4.4Q408.95 6.1 407.98 7.8 407 9.5 405.3 10.93 403.6 12.35 401.33 13.23 399.05 14.1 396.5 14.1ZM397.65-7.75L397.65-7.75Q395.3-7.75 393.73-8.58 392.15-9.4 391.3-10.8 390.45-12.2 390.45-13.75L390.45-13.75Q390.45-15.5 391.45-16.82 392.45-18.15 394.23-18.9 396-19.65 398.2-19.65L398.2-19.65Q400.75-19.65 402.3-18.78 403.85-17.9 404.53-16.63 405.2-15.35 405.2-14L405.2-14Q405.2-12.3 404.28-10.88 403.35-9.45 401.65-8.6 399.95-7.75 397.65-7.75ZM398.7-8.45L398.7-8.45Q400.05-8.45 401.08-9.47 402.1-10.5 402.1-13L402.1-13Q402.1-15.7 400.53-17.3 398.95-18.9 396.95-18.9L396.95-18.9Q395.55-18.9 394.55-17.95 393.55-17 393.55-14.8L393.55-14.8Q393.55-12.8 394.3-11.4 395.05-10 396.25-9.22 397.45-8.45 398.7-8.45ZM402.8-17.3L402.35-15.9 402.4-17.55Q403.9-18.55 405.38-19.13 406.85-19.7 408.65-19.7L408.65-19.7Q408.75-19.7 408.83-19.35 408.9-19 408.9-18.6L408.9-18.6Q408.9-18.05 408.78-17.43 408.65-16.8 408.45-16.9L408.45-16.9Q407.95-17.1 407.1-17.38 406.25-17.65 405.15-17.65L405.15-17.65Q404.5-17.65 403.93-17.55 403.35-17.45 402.8-17.3L402.8-17.3ZM443.25-16.55L431.85-16.55 432.6-17.6 442.9-17.6 443.25-16.55ZM456.15-0.6L456.15-0.6Q456.35-0.6 456.35-0.3 456.35 0 456.15 0L456.15 0Q454.7 0 453.2-0.1 451.7-0.2 450.3-0.2L450.3-0.2Q448.75-0.2 447.6-0.1 446.45 0 445.05 0L445.05 0Q444.85 0 444.85-0.3 444.85-0.6 445.05-0.6L445.05-0.6Q447.7-0.6 448.35-1.38 449-2.15 448-4.3L448-4.3 436.9-27.75 438.15-29.3 428.45-6.35Q427.2-3.3 428.3-1.95 429.4-0.6 432.65-0.6L432.65-0.6Q432.9-0.6 432.9-0.3 432.9 0 432.65 0L432.65 0Q431.15 0 429.9-0.1 428.65-0.2 426.75-0.2L426.75-0.2Q424.95-0.2 423.87-0.1 422.8 0 421.25 0L421.25 0Q421.05 0 421.05-0.3 421.05-0.6 421.25-0.6L421.25-0.6Q422.6-0.6 423.6-1.13 424.6-1.65 425.47-2.98 426.35-4.3 427.4-6.8L427.4-6.8 437.95-31.7Q438.05-31.85 438.3-31.85 438.55-31.85 438.6-31.7L438.6-31.7 450.4-6.85Q451.55-4.4 452.45-3.03 453.35-1.65 454.22-1.13 455.1-0.6 456.15-0.6ZM467.85 0.6L467.85 0.6Q464.45 0.6 462.3-0.88 460.15-2.35 459.12-4.63 458.1-6.9 458.1-9.25L458.1-9.25Q458.1-11.75 459.07-13.7 460.05-15.65 461.65-17 463.25-18.35 465.2-19.05 467.15-19.75 469-19.75L469-19.75Q470.45-19.75 471.77-19.38 473.1-19 473.97-18.3 474.85-17.6 474.85-16.7L474.85-16.7Q474.85-16.05 474.4-15.58 473.95-15.1 473.1-15.1L473.1-15.1Q472.3-15.1 471.77-15.6 471.25-16.1 470.9-16.75L470.9-16.75Q470.35-17.65 469.6-18.2 468.85-18.75 467.35-18.75L467.35-18.75Q464.5-18.75 462.95-16.53 461.4-14.3 461.4-10.75L461.4-10.75Q461.4-8.2 462.27-6 463.15-3.8 465-2.48 466.85-1.15 469.8-1.15L469.8-1.15Q471.15-1.15 472.45-1.5 473.75-1.85 474.9-2.8L474.9-2.8Q475-2.9 475.17-2.7 475.35-2.5 475.25-2.4L475.25-2.4Q473.5-0.85 471.75-0.13 470 0.6 467.85 0.6ZM497.44-2.15L492.29 0.3Q492.09 0.4 491.89 0.4L491.89 0.4Q491.24 0.4 490.64-0.68 490.04-1.75 490.04-3.8L490.04-3.8 490.04-12.75Q490.04-15.1 489.62-16.4 489.19-17.7 488.47-18.2 487.74-18.7 486.84-18.7L486.84-18.7Q485.59-18.7 484.79-18.07 483.99-17.45 483.59-16.5 483.19-15.55 483.04-14.6L483.04-14.6Q482.99-13.9 482.62-13.3 482.24-12.7 481.19-12.7L481.19-12.7Q480.39-12.7 479.94-13.1 479.49-13.5 479.49-14.2L479.49-14.2Q479.49-15.1 480.39-16.07 481.29-17.05 482.67-17.88 484.04-18.7 485.57-19.23 487.09-19.75 488.44-19.75L488.44-19.75Q490.34-19.75 491.59-18.43 492.84-17.1 492.84-14.25L492.84-14.25 492.84-5.4Q492.84-3.65 493.29-2.85 493.74-2.05 494.74-2.05L494.74-2.05Q495.64-2.05 497.24-2.7L497.24-2.7Q497.49-2.8 497.59-2.53 497.69-2.25 497.44-2.15L497.44-2.15ZM482.49 0.35L482.49 0.35Q480.89 0.35 480.09-0.53 479.29-1.4 479.29-2.55L479.29-2.55Q479.29-3.95 480.39-4.78 481.49-5.6 483.99-6.45L483.99-6.45 490.54-8.8 490.69-8.25 484.89-6.05Q483.74-5.6 483.27-5.05 482.79-4.5 482.79-3.65L482.79-3.65Q482.79-2.6 483.39-2.02 483.99-1.45 484.94-1.45L484.94-1.45Q485.49-1.45 485.99-1.58 486.49-1.7 486.99-1.95L486.99-1.95 491.24-4.1 491.34-3.5 486.99-1.15Q485.49-0.4 484.49-0.03 483.49 0.35 482.49 0.35ZM507.14 0.65L507.14 0.65Q505.09 0.65 503.29-0.55 501.49-1.75 500.42-3.88 499.34-6 499.34-8.9L499.34-8.9Q499.34-11.75 500.42-13.83 501.49-15.9 503.19-17.25 504.89-18.6 506.89-19.28 508.89-19.95 510.74-19.95L510.74-19.95Q512.49-19.95 514.04-19.35 515.59-18.75 516.84-17.7L516.84-17.7 516.29-14.35Q515.04-16.3 513.49-17.63 511.94-18.95 509.39-18.95L509.39-18.95Q506.34-18.95 504.47-16.78 502.59-14.6 502.59-10.4L502.59-10.4Q502.59-7.55 503.44-5.48 504.29-3.4 505.79-2.27 507.29-1.15 509.09-1.15L509.09-1.15Q511.34-1.15 513.09-2.4 514.84-3.65 516.39-5.4L516.39-5.4 516.79-5.05Q515.74-3.85 514.34-2.53 512.94-1.2 511.17-0.28 509.39 0.65 507.14 0.65ZM518.34-35.85L518.34-35.85 518.34-5.5Q518.34-3.7 518.74-2.9 519.14-2.1 520.14-2.1L520.14-2.1Q520.64-2.1 521.32-2.23 521.99-2.35 522.74-2.8L522.74-2.8Q522.99-2.9 523.12-2.63 523.24-2.35 523.04-2.25L523.04-2.25 517.54 0.35Q517.34 0.45 517.14 0.45L517.14 0.45Q516.54 0.45 516.04-0.7 515.54-1.85 515.54-4.05L515.54-4.05 515.54-29.85Q515.54-31.65 515.19-32.45 514.84-33.25 513.89-33.25L513.89-33.25Q513.44-33.25 512.92-33.08 512.39-32.9 511.59-32.55L511.59-32.55Q511.39-32.45 511.27-32.75 511.14-33.05 511.29-33.1L511.29-33.1 517.64-36.2Q517.74-36.25 517.89-36.25L517.89-36.25Q518.04-36.25 518.19-36.13 518.34-36 518.34-35.85ZM534.34 0.6L534.34 0.6Q531.24 0.6 529.14-0.78 527.04-2.15 525.99-4.35 524.94-6.55 524.94-9L524.94-9Q524.94-12.05 526.36-14.48 527.79-16.9 530.21-18.32 532.64-19.75 535.69-19.75L535.69-19.75Q538.44-19.75 539.91-18.43 541.39-17.1 541.39-14.8L541.39-14.8Q541.39-14.25 541.29-13.95 541.19-13.65 540.79-13.65L540.79-13.65 537.89-13.65Q538.09-16.1 537.01-17.43 535.94-18.75 533.99-18.75L533.99-18.75Q531.19-18.75 529.71-16.65 528.24-14.55 528.24-10.95L528.24-10.95Q528.24-8.1 529.16-5.9 530.09-3.7 531.86-2.43 533.64-1.15 536.09-1.15L536.09-1.15Q537.39-1.15 538.74-1.55 540.09-1.95 541.29-2.8L541.29-2.8Q541.39-2.9 541.56-2.68 541.74-2.45 541.64-2.3L541.64-2.3Q539.84-0.75 538.04-0.08 536.24 0.6 534.34 0.6ZM538.69-13.65L527.34-13.55 527.29-14.2 538.69-14.45 538.69-13.65ZM571.54 0L571.54 0Q571.39 0 571.39-0.3 571.39-0.6 571.54-0.6L571.54-0.6Q573.49-0.6 574.09-1.28 574.69-1.95 574.69-4.05L574.69-4.05 574.69-12Q574.69-17.85 570.39-17.85L570.39-17.85Q568.59-17.85 566.81-16.68 565.04-15.5 563.69-13.5L563.69-13.5 563.49-14.1Q565.64-17.1 567.74-18.45 569.84-19.8 572.04-19.8L572.04-19.8Q574.64-19.8 576.06-18.32 577.49-16.85 577.49-13.75L577.49-13.75 577.49-4.05Q577.49-1.95 578.06-1.28 578.64-0.6 580.64-0.6L580.64-0.6Q580.79-0.6 580.79-0.3 580.79 0 580.64 0L580.64 0Q579.79 0 578.59-0.05 577.39-0.1 576.09-0.1L576.09-0.1Q574.79-0.1 573.61-0.05 572.44 0 571.54 0ZM558.64 0L558.64 0Q558.49 0 558.49-0.3 558.49-0.6 558.64-0.6L558.64-0.6Q560.59-0.6 561.16-1.28 561.74-1.95 561.74-4.05L561.74-4.05 561.74-12Q561.74-17.85 557.49-17.85L557.49-17.85Q555.69-17.85 553.91-16.68 552.14-15.5 550.79-13.5L550.79-13.5 550.59-14.1Q552.69-17.1 554.79-18.45 556.89-19.8 559.09-19.8L559.09-19.8Q561.69-19.8 563.14-18.35 564.59-16.9 564.59-13.85L564.59-13.85 564.59-4.05Q564.59-1.95 565.16-1.28 565.74-0.6 567.74-0.6L567.74-0.6Q567.89-0.6 567.89-0.3 567.89 0 567.74 0L567.74 0Q566.84 0 565.66-0.05 564.49-0.1 563.19-0.1L563.19-0.1Q561.89-0.1 560.69-0.05 559.49 0 558.64 0ZM545.79 0L545.79 0Q545.64 0 545.64-0.3 545.64-0.6 545.79-0.6L545.79-0.6Q547.74-0.6 548.31-1.28 548.89-1.95 548.89-4.05L548.89-4.05 548.89-13.95Q548.89-15.6 548.51-16.38 548.14-17.15 547.14-17.15L547.14-17.15Q546.64-17.15 545.96-16.95 545.29-16.75 544.44-16.4L544.44-16.4Q544.24-16.35 544.11-16.6 543.99-16.85 544.19-16.95L544.19-16.95 549.99-19.7Q550.14-19.75 550.29-19.75L550.29-19.75Q550.64-19.75 551.19-18.7 551.74-17.65 551.74-15.65L551.74-15.65 551.74-4.05Q551.74-1.95 552.31-1.28 552.89-0.6 554.84-0.6L554.84-0.6Q554.99-0.6 554.99-0.3 554.99 0 554.84 0L554.84 0Q553.99 0 552.81-0.05 551.64-0.1 550.34-0.1L550.34-0.1Q549.04-0.1 547.84-0.05 546.64 0 545.79 0ZM603.23-19.3L603.23-19.3Q603.38-19.3 603.38-19 603.38-18.7 603.23-18.7L603.23-18.7Q601.98-18.7 601.08-17.85 600.18-17 599.38-14.85L599.38-14.85 593.28 1.4Q591.48 6.2 589.83 8.97 588.18 11.75 586.41 12.9 584.63 14.05 582.48 14.05L582.48 14.05Q581.43 14.05 580.68 13.58 579.93 13.1 579.93 12.1L579.93 12.1Q579.93 11.35 580.41 10.98 580.88 10.6 581.48 10.6L581.48 10.6Q582.48 10.6 582.98 10.9 583.48 11.2 583.98 11.5 584.48 11.8 585.28 11.8L585.28 11.8Q586.48 11.8 587.61 10.68 588.73 9.55 590.03 6.85 591.33 4.15 593.08-0.5L593.08-0.5 593.03 0.9 585.13-15.15Q584.03-17.35 583.41-18.03 582.78-18.7 581.83-18.7L581.83-18.7Q581.73-18.7 581.73-19 581.73-19.3 581.83-19.3L581.83-19.3Q582.63-19.3 583.51-19.25 584.38-19.2 585.18-19.2L585.18-19.2Q586.83-19.2 588.08-19.25 589.33-19.3 590.33-19.3L590.33-19.3Q590.43-19.3 590.43-19 590.43-18.7 590.33-18.7L590.33-18.7Q588.73-18.7 587.91-18.3 587.08-17.9 587.68-16.75L587.68-16.75 594.53-2.65 593.38-0.6 598.28-14.7Q599.03-16.95 598.26-17.82 597.48-18.7 594.83-18.7L594.83-18.7Q594.73-18.7 594.73-19 594.73-19.3 594.83-19.3L594.83-19.3Q596.03-19.3 597.11-19.25 598.18-19.2 599.88-19.2L599.88-19.2Q600.98-19.2 601.66-19.25 602.33-19.3 603.23-19.3Z" opacity="1" transform="matrix(1,0,0,1,0,0)" fill="#ffffff" class="wordmark-text-0" data-fill-palette-color="quaternary" id="text-0"></path></svg></g></svg></g><g transform="matrix(1,0,0,1,0,80.58836676352607)"><svg viewBox="0 0 395.52 11.37979805939383" height="11.37979805939383" width="395.52"><g transform="matrix(1,0,0,1,0,0)"><svg width="395.52" viewBox="-0.75 -41.25 1487.57 42.8" height="11.37979805939383" data-palette-color="#050665"><path d="M12.3-31.25L12.3-31.25 18.9-19.95 29.35-37.6 25.3-38.1Q25.1-38.85 25.3-39.95L25.3-39.95Q28.05-39.75 30.8-39.75L30.8-39.75Q33.2-39.75 36.4-39.9L36.4-39.9Q36.7-39 36.4-38.1L36.4-38.1 33.3-37.5Q31.15-35.05 30-33.05L30-33.05 20.2-17.05 20.2-2.2 24.25-1.7Q24.45-0.95 24.25 0.15L24.25 0.15Q21.1 0 17.4 0L17.4 0Q14.7 0 10.5 0.1L10.5 0.1Q10.2-0.8 10.5-1.7L10.5-1.7 14.65-2.3Q14.85-4.2 14.85-8.15L14.85-8.15 14.85-17.2 2.9-37.6-0.65-38.1Q-0.85-38.85-0.65-39.95L-0.65-39.95Q2.1-39.75 6.85-39.75L6.85-39.75Q11.2-39.75 14.45-39.9L14.45-39.9Q14.75-39 14.45-38.1L14.45-38.1 9.55-37.15Q11.1-33.3 12.3-31.25ZM70.49-40.8L70.49-40.8Q75.39-40.8 79.29-39.05 83.19-37.3 85.59-34.38 87.99-31.45 89.26-27.88 90.54-24.3 90.54-20.4L90.54-20.4Q90.54-11.4 84.89-5.2 79.24 1 70.49 1L70.49 1Q65.64 1 61.74-0.75 57.84-2.5 55.44-5.43 53.04-8.35 51.76-11.9 50.49-15.45 50.49-19.3L50.49-19.3Q50.49-25.05 53.01-29.95 55.54-34.85 60.16-37.83 64.79-40.8 70.49-40.8ZM70.44-1.75L70.44-1.75Q75.14-1.75 78.41-4.48 81.69-7.2 83.11-11.35 84.54-15.5 84.54-20.6L84.54-20.6Q84.54-25.45 83.11-29.28 81.69-33.1 78.44-35.58 75.19-38.05 70.44-38.05L70.44-38.05Q63.59-38.05 60.04-33.05 56.49-28.05 56.49-20.55L56.49-20.55Q56.49-15.4 57.89-11.28 59.29-7.15 62.54-4.45 65.79-1.75 70.44-1.75ZM139.53-12.7L139.53-12.7 139.53-37.6 135.48-38.1 135.48-39.95Q138.23-39.75 140.53-39.75L140.53-39.75Q142.43-39.75 145.63-39.9L145.63-39.9 145.63-38.1 142.48-37.5Q142.28-35.6 142.28-31.65L142.28-31.65 142.28-13Q142.08-5.9 138.93-2.45 135.78 1 127.88 1L127.88 1Q112.98 1 112.98-12.55L112.98-12.55 112.98-37.6 108.93-38.1Q108.73-38.85 108.93-39.95L108.93-39.95Q111.68-39.75 115.78-39.75L115.78-39.75Q119.43-39.75 122.68-39.9L122.68-39.9Q122.98-39 122.68-38.1L122.68-38.1 118.53-37.5Q118.33-35.6 118.33-31.65L118.33-31.65 118.33-12.55Q118.33-6.95 120.93-4.58 123.53-2.2 129.53-2.2L129.53-2.2Q135.18-2.2 137.35-4.67 139.53-7.15 139.53-12.7ZM165.07-39.95L165.07-39.95Q167.12-39.95 171.59-40.15 176.07-40.35 179.72-40.35L179.72-40.35Q187.32-40.35 190.57-37.33 193.82-34.3 193.82-28.9L193.82-28.9Q193.82-25.65 191.57-23.05 189.32-20.45 185.67-19.15L185.67-19.15Q187.82-15.5 189.69-12.3 191.57-9.1 192.42-7.55 193.27-6 193.97-4.78 194.67-3.55 194.99-3.1 195.32-2.65 195.62-2.35L195.62-2.35 199.22-1.85Q199.42-1.1 199.22 0L199.22 0 190.72 0 183.17-13.7Q181.67-16.55 180.32-18.1L180.32-18.1 179.62-18.1Q177.07-18.1 174.47-18.4L174.47-18.4 174.47-2.2 179.02-1.7Q179.22-0.95 179.02 0.15L179.02 0.15Q175.87 0 171.92 0L171.92 0Q168.97 0 164.77 0.1L164.77 0.1Q164.47-0.8 164.77-1.7L164.77-1.7 168.92-2.3Q169.12-4.2 169.12-8.15L169.12-8.15 169.12-37.6 165.07-38.1Q164.87-38.85 165.07-39.95ZM174.47-31.65L174.47-31.65 174.47-20.45Q176.02-20.25 178.97-20.25L178.97-20.25Q181.52-20.25 183.34-21.08 185.17-21.9 186.07-23.28 186.97-24.65 187.37-26.1 187.77-27.55 187.77-29.15L187.77-29.15Q187.77-33.45 185.62-35.85 183.47-38.25 178.47-38.25L178.47-38.25Q176.62-38.25 174.77-37.9L174.77-37.9Q174.47-35.05 174.47-31.65ZM242.25-39.95L242.25-39.95Q244.3-39.95 248.77-40.15 253.25-40.35 256.9-40.35L256.9-40.35Q264.65-40.35 267.95-37.33 271.25-34.3 271.25-28.9L271.25-28.9Q271.25-24.1 266.97-20.85 262.7-17.6 256.8-17.6L256.8-17.6Q253.75-17.6 251.65-17.9L251.65-17.9 251.65-2.2 256.2-1.7Q256.4-0.95 256.2 0.15L256.2 0.15Q253.05 0 249.1 0L249.1 0Q246.15 0 241.95 0.1L241.95 0.1Q241.65-0.8 241.95-1.7L241.95-1.7 246.1-2.3Q246.3-4.2 246.3-8.15L246.3-8.15 246.3-37.6 242.25-38.1Q242.05-38.85 242.25-39.95ZM251.65-31.65L251.65-31.65 251.65-19.95Q253.2-19.75 256.15-19.75L256.15-19.75Q258.75-19.75 260.62-20.63 262.5-21.5 263.45-22.98 264.4-24.45 264.8-25.95 265.2-27.45 265.2-29.15L265.2-29.15Q265.2-33.5 263-35.88 260.8-38.25 255.65-38.25L255.65-38.25Q253.8-38.25 251.95-37.9L251.95-37.9Q251.65-35.05 251.65-31.65ZM294.19-14.65L289.74-2.2 293.79-1.7Q293.99-0.95 293.79 0.15L293.79 0.15Q290.64 0 288.49 0L288.49 0Q287.29 0 283.09 0.1L283.09 0.1Q282.79-0.8 283.09-1.7L283.09-1.7 286.39-2.3Q287.19-3.5 288.39-6.75L288.39-6.75 301.29-41.25 303.04-41.25 317.54-2.2 321.59-1.7Q321.79-0.95 321.59 0.15L321.59 0.15Q318.44 0 314.54 0L314.54 0Q311.64 0 307.44 0.1L307.44 0.1Q307.14-0.8 307.44-1.7L307.44-1.7 311.59-2.3 307.19-14.65 294.19-14.65ZM300.84-33.7L300.84-33.7 300.79-33.7Q300.19-31.35 298.84-27.55L298.84-27.55 295.09-17.15 306.29-17.15 302.64-27.55Q301.59-30.6 300.84-33.7ZM337.68-39.95L337.68-39.95Q339.73-39.95 344.2-40.15 348.68-40.35 352.33-40.35L352.33-40.35Q359.93-40.35 363.18-37.33 366.43-34.3 366.43-28.9L366.43-28.9Q366.43-25.65 364.18-23.05 361.93-20.45 358.28-19.15L358.28-19.15Q360.43-15.5 362.3-12.3 364.18-9.1 365.03-7.55 365.88-6 366.58-4.78 367.28-3.55 367.6-3.1 367.93-2.65 368.23-2.35L368.23-2.35 371.83-1.85Q372.03-1.1 371.83 0L371.83 0 363.33 0 355.78-13.7Q354.28-16.55 352.93-18.1L352.93-18.1 352.23-18.1Q349.68-18.1 347.08-18.4L347.08-18.4 347.08-2.2 351.63-1.7Q351.83-0.95 351.63 0.15L351.63 0.15Q348.48 0 344.53 0L344.53 0Q341.58 0 337.38 0.1L337.38 0.1Q337.08-0.8 337.38-1.7L337.38-1.7 341.53-2.3Q341.73-4.2 341.73-8.15L341.73-8.15 341.73-37.6 337.68-38.1Q337.48-38.85 337.68-39.95ZM347.08-31.65L347.08-31.65 347.08-20.45Q348.63-20.25 351.58-20.25L351.58-20.25Q354.13-20.25 355.95-21.08 357.78-21.9 358.68-23.28 359.58-24.65 359.98-26.1 360.38-27.55 360.38-29.15L360.38-29.15Q360.38-33.45 358.23-35.85 356.08-38.25 351.08-38.25L351.08-38.25Q349.23-38.25 347.38-37.9L347.38-37.9Q347.08-35.05 347.08-31.65ZM386.37-28.2L386.42-39.8 420.97-39.8 421.02-28.2Q419.92-28 419.17-28.2L419.17-28.2 416.82-37.25 406.42-37.25 406.42-2.2 411.47-1.7Q411.67-0.95 411.47 0.15L411.47 0.15Q408.32 0 403.87 0L403.87 0Q400.42 0 396.22 0.1L396.22 0.1Q395.92-0.8 396.22-1.7L396.22-1.7 400.87-2.3Q401.07-4.2 401.07-8.15L401.07-8.15 401.07-37.25 390.57-37.25 388.22-28.2Q387.47-28 386.37-28.2L386.37-28.2ZM471.65-13.4L471.65-13.4 471.65-31.5Q471.65-35.45 471.45-37.35L471.45-37.35 466.8-37.95Q466.5-38.85 466.8-39.75L466.8-39.75Q469.95-39.6 472.9-39.6L472.9-39.6Q476.15-39.6 478.95-39.8L478.95-39.8Q479.15-38.7 478.95-37.95L478.95-37.95 474.4-37.45 474.4 0 471.75 0 449.7-29.85Q448.15-31.9 446.05-35.2L446.05-35.2Q446.3-32.9 446.3-29.65L446.3-29.65 446.3-8.15Q446.3-4.2 446.5-2.3L446.5-2.3 451.15-1.7Q451.45-0.8 451.15 0.1L451.15 0.1Q446.85 0 445.05 0L445.05 0Q442.1 0 439 0.15L439 0.15Q438.8-0.95 439-1.7L439-1.7 443.55-2.2 443.55-31.65Q443.55-35.6 443.35-37.5L443.35-37.5 439.2-38.1Q438.9-38.95 439.2-39.8L439.2-39.8 449-39.8 469.05-12.5Q469.45-11.95 469.93-11.2 470.4-10.45 470.98-9.4 471.55-8.35 471.9-7.8L471.9-7.8Q471.65-10.8 471.65-13.4ZM501.89-8.1L501.89-8.1 501.89-37.6 497.84-38.15Q497.54-39.05 497.84-39.95L497.84-39.95 504.69-39.8 524.89-39.8 524.94-28.2Q523.84-28 523.09-28.2L523.09-28.2 520.74-37.25 507.24-37.25 507.24-22.25 515.24-22.4 516.39-27.3Q517.14-27.5 518.24-27.3L518.24-27.3Q518.04-24.5 518.04-20.85L518.04-20.85Q518.04-17.5 518.19-14.35L518.19-14.35Q517.29-14.05 516.39-14.35L516.39-14.35 515.29-19.55 507.24-19.7 507.24-2.55 522.24-2.55 524.59-11.6Q525.34-11.8 526.44-11.6L526.44-11.6 526.39 0 504.69 0 497.54 0.15Q497.24-0.75 497.54-1.65L497.54-1.65 501.69-2.2Q501.89-4.75 501.89-8.1ZM546.23-39.95L546.23-39.95Q548.28-39.95 552.76-40.15 557.23-40.35 560.88-40.35L560.88-40.35Q568.48-40.35 571.73-37.33 574.98-34.3 574.98-28.9L574.98-28.9Q574.98-25.65 572.73-23.05 570.48-20.45 566.83-19.15L566.83-19.15Q568.98-15.5 570.86-12.3 572.73-9.1 573.58-7.55 574.43-6 575.13-4.78 575.83-3.55 576.16-3.1 576.48-2.65 576.78-2.35L576.78-2.35 580.38-1.85Q580.58-1.1 580.38 0L580.38 0 571.88 0 564.33-13.7Q562.83-16.55 561.48-18.1L561.48-18.1 560.78-18.1Q558.23-18.1 555.63-18.4L555.63-18.4 555.63-2.2 560.18-1.7Q560.38-0.95 560.18 0.15L560.18 0.15Q557.03 0 553.08 0L553.08 0Q550.13 0 545.93 0.1L545.93 0.1Q545.63-0.8 545.93-1.7L545.93-1.7 550.08-2.3Q550.28-4.2 550.28-8.15L550.28-8.15 550.28-37.6 546.23-38.1Q546.03-38.85 546.23-39.95ZM555.63-31.65L555.63-31.65 555.63-20.45Q557.18-20.25 560.13-20.25L560.13-20.25Q562.68-20.25 564.51-21.08 566.33-21.9 567.23-23.28 568.13-24.65 568.53-26.1 568.93-27.55 568.93-29.15L568.93-29.15Q568.93-33.45 566.78-35.85 564.63-38.25 559.63-38.25L559.63-38.25Q557.78-38.25 555.93-37.9L555.93-37.9Q555.63-35.05 555.63-31.65ZM632.81-31.65L632.81-31.65 632.81-2.2 636.86-1.7Q637.06-0.95 636.86 0.15L636.86 0.15Q633.71 0 630.01 0L630.01 0Q627.31 0 623.11 0.1L623.11 0.1Q622.81-0.8 623.11-1.7L623.11-1.7 627.26-2.3Q627.46-4.2 627.46-8.15L627.46-8.15 627.46-37.6 623.41-38.1Q623.21-38.85 623.41-39.95L623.41-39.95Q626.16-39.75 630.26-39.75L630.26-39.75Q633.91-39.75 637.16-39.9L637.16-39.9Q637.46-39 637.16-38.1L637.16-38.1 633.01-37.5Q632.81-35.6 632.81-31.65ZM688.8-13.4L688.8-13.4 688.8-31.5Q688.8-35.45 688.6-37.35L688.6-37.35 683.95-37.95Q683.65-38.85 683.95-39.75L683.95-39.75Q687.1-39.6 690.05-39.6L690.05-39.6Q693.3-39.6 696.1-39.8L696.1-39.8Q696.3-38.7 696.1-37.95L696.1-37.95 691.55-37.45 691.55 0 688.9 0 666.85-29.85Q665.3-31.9 663.2-35.2L663.2-35.2Q663.45-32.9 663.45-29.65L663.45-29.65 663.45-8.15Q663.45-4.2 663.65-2.3L663.65-2.3 668.3-1.7Q668.6-0.8 668.3 0.1L668.3 0.1Q664 0 662.2 0L662.2 0Q659.25 0 656.15 0.15L656.15 0.15Q655.95-0.95 656.15-1.7L656.15-1.7 660.7-2.2 660.7-31.65Q660.7-35.6 660.5-37.5L660.5-37.5 656.35-38.1Q656.05-38.95 656.35-39.8L656.35-39.8 666.15-39.8 686.2-12.5Q686.6-11.95 687.08-11.2 687.55-10.45 688.13-9.4 688.7-8.35 689.05-7.8L689.05-7.8Q688.8-10.8 688.8-13.4ZM741.73-39.95L741.73-39.95Q744.28-39.95 749.08-40.15 753.88-40.35 755.43-40.35L755.43-40.35 756.78-40.35Q763.33-40.35 766.53-37.68 769.73-35 769.73-30.65L769.73-30.65Q769.73-24.45 761.63-22.05L761.63-22.05 761.63-21.9Q766.33-21.2 769.06-18.23 771.78-15.25 771.78-11.1L771.78-11.1Q771.78-5.55 768.01-2.45 764.23 0.65 756.93 0.65L756.93 0.65Q754.93 0.65 750.46 0.33 745.98 0 743.33 0L743.33 0Q743.03 0 742.38 0.03 741.73 0.05 741.43 0.05L741.43 0.05Q741.13-0.85 741.43-1.75L741.43-1.75 745.58-2.3Q745.78-4.2 745.78-8.15L745.78-8.15 745.78-37.6 741.73-38.1Q741.53-38.85 741.73-39.95ZM755.13-20.3L755.13-20.3 751.13-20.3 751.13-2.2Q753.68-1.75 755.18-1.65L755.18-1.65Q761.23-1.65 763.53-3.93 765.83-6.2 765.83-11.05L765.83-11.05Q765.83-14.95 763.01-17.63 760.18-20.3 755.13-20.3ZM755.48-38.25L755.48-38.25Q752.98-38.25 751.33-37.9L751.33-37.9Q751.13-36 751.13-31.65L751.13-31.65 751.13-22.8 755.03-22.8Q759.68-22.8 761.81-24.7 763.93-26.6 763.93-30.35L763.93-30.35Q763.93-34.15 761.61-36.2 759.28-38.25 755.48-38.25ZM820.62-12.7L820.62-12.7 820.62-37.6 816.57-38.1 816.57-39.95Q819.32-39.75 821.62-39.75L821.62-39.75Q823.52-39.75 826.72-39.9L826.72-39.9 826.72-38.1 823.57-37.5Q823.37-35.6 823.37-31.65L823.37-31.65 823.37-13Q823.17-5.9 820.02-2.45 816.87 1 808.97 1L808.97 1Q794.07 1 794.07-12.55L794.07-12.55 794.07-37.6 790.02-38.1Q789.82-38.85 790.02-39.95L790.02-39.95Q792.77-39.75 796.87-39.75L796.87-39.75Q800.52-39.75 803.77-39.9L803.77-39.9Q804.07-39 803.77-38.1L803.77-38.1 799.62-37.5Q799.42-35.6 799.42-31.65L799.42-31.65 799.42-12.55Q799.42-6.95 802.02-4.58 804.62-2.2 810.62-2.2L810.62-2.2Q816.27-2.2 818.44-4.67 820.62-7.15 820.62-12.7ZM855.56-31.65L855.56-31.65 855.56-2.2 859.61-1.7Q859.81-0.95 859.61 0.15L859.61 0.15Q856.46 0 852.76 0L852.76 0Q850.06 0 845.86 0.1L845.86 0.1Q845.56-0.8 845.86-1.7L845.86-1.7 850.01-2.3Q850.21-4.2 850.21-8.15L850.21-8.15 850.21-37.6 846.16-38.1Q845.96-38.85 846.16-39.95L846.16-39.95Q848.91-39.75 853.01-39.75L853.01-39.75Q856.66-39.75 859.91-39.9L859.91-39.9Q860.21-39 859.91-38.1L859.91-38.1 855.76-37.5Q855.56-35.6 855.56-31.65ZM909.35 0L886.15 0 879 0.15Q878.7-0.75 879-1.65L879-1.65 883.15-2.2Q883.35-4.75 883.35-8.1L883.35-8.1 883.35-37.6 879.3-38.1Q879.1-38.85 879.3-39.95L879.3-39.95Q882.05-39.75 886.15-39.75L886.15-39.75Q889.8-39.75 893.05-39.9L893.05-39.9Q893.35-39 893.05-38.1L893.05-38.1 888.9-37.5Q888.7-35.6 888.7-31.65L888.7-31.65 888.7-2.55 905.2-2.55 907.55-11.6Q908.3-11.8 909.4-11.6L909.4-11.6 909.35 0ZM927.39 0.1L927.39 0.1Q927.09-0.8 927.39-1.7L927.39-1.7 931.54-2.3Q931.74-4.2 931.74-8.15L931.74-8.15 931.74-37.6 927.69-38.1Q927.49-38.85 927.69-39.95L927.69-39.95Q928.44-39.9 930.04-39.9L930.04-39.9Q933.24-39.9 938.31-40.18 943.39-40.45 944.14-40.45L944.14-40.45Q953.94-40.45 958.99-35.15 964.04-29.85 964.04-20.9L964.04-20.9Q964.04-11.8 959.29-5.8 954.54 0.2 945.99 0.2L945.99 0.2Q943.14 0.2 938.44 0.13 933.74 0.05 931.69 0.05L931.69 0.05Q928.79 0.05 927.39 0.1ZM944.09-2.2L944.09-2.2Q958.19-2.2 958.19-20.6L958.19-20.6Q958.19-28.55 954.51-33.15 950.84-37.75 943.94-38.05L943.94-38.05Q943.34-38.1 942.09-38.1L942.09-38.1Q939.44-38.1 937.29-37.7L937.29-37.7Q937.09-35.8 937.09-31.65L937.09-31.65 937.09-2.35Q937.69-2.35 939.96-2.27 942.24-2.2 944.09-2.2ZM992.78-31.65L992.78-31.65 992.78-2.2 996.83-1.7Q997.03-0.95 996.83 0.15L996.83 0.15Q993.68 0 989.98 0L989.98 0Q987.28 0 983.08 0.1L983.08 0.1Q982.78-0.8 983.08-1.7L983.08-1.7 987.23-2.3Q987.43-4.2 987.43-8.15L987.43-8.15 987.43-37.6 983.38-38.1Q983.18-38.85 983.38-39.95L983.38-39.95Q986.13-39.75 990.23-39.75L990.23-39.75Q993.88-39.75 997.13-39.9L997.13-39.9Q997.43-39 997.13-38.1L997.13-38.1 992.98-37.5Q992.78-35.6 992.78-31.65ZM1048.77-13.4L1048.77-13.4 1048.77-31.5Q1048.77-35.45 1048.57-37.35L1048.57-37.35 1043.92-37.95Q1043.62-38.85 1043.92-39.75L1043.92-39.75Q1047.07-39.6 1050.02-39.6L1050.02-39.6Q1053.27-39.6 1056.07-39.8L1056.07-39.8Q1056.27-38.7 1056.07-37.95L1056.07-37.95 1051.52-37.45 1051.52 0 1048.87 0 1026.82-29.85Q1025.27-31.9 1023.17-35.2L1023.17-35.2Q1023.42-32.9 1023.42-29.65L1023.42-29.65 1023.42-8.15Q1023.42-4.2 1023.62-2.3L1023.62-2.3 1028.27-1.7Q1028.57-0.8 1028.27 0.1L1028.27 0.1Q1023.97 0 1022.17 0L1022.17 0Q1019.22 0 1016.12 0.15L1016.12 0.15Q1015.92-0.95 1016.12-1.7L1016.12-1.7 1020.67-2.2 1020.67-31.65Q1020.67-35.6 1020.47-37.5L1020.47-37.5 1016.32-38.1Q1016.02-38.95 1016.32-39.8L1016.32-39.8 1026.12-39.8 1046.17-12.5Q1046.57-11.95 1047.04-11.2 1047.52-10.45 1048.09-9.4 1048.67-8.35 1049.02-7.8L1049.02-7.8Q1048.77-10.8 1048.77-13.4ZM1106.31 0.9L1106.31 0.9 1105.01-3.2Q1099.21 1 1093.81 1L1093.81 1Q1088.91 1 1085.26-0.78 1081.61-2.55 1079.21-5.48 1076.81-8.4 1075.63-12.13 1074.46-15.85 1074.46-19.75L1074.46-19.75Q1074.46-23.7 1075.83-27.48 1077.21-31.25 1079.88-34.2 1082.56-37.15 1086.41-38.98 1090.26-40.8 1095.21-40.8L1095.21-40.8Q1102.11-40.8 1107.91-37.8L1107.91-37.8 1107.91-28.2Q1107.01-28.05 1106.31-28.05L1106.31-28.05Q1105.56-28.05 1105.06-28.2L1105.06-28.2 1103.46-36.55Q1100.26-38.55 1094.61-38.55L1094.61-38.55Q1091.46-38.55 1088.91-37.13 1086.36-35.7 1084.51-33.27 1082.66-30.85 1081.66-27.58 1080.66-24.3 1080.66-20.6L1080.66-20.6Q1080.66-16.65 1081.58-13.3 1082.51-9.95 1084.21-7.5 1085.91-5.05 1088.33-3.68 1090.76-2.3 1093.76-2.3L1093.76-2.3Q1098.61-2.3 1103.31-4.95L1103.31-4.95 1103.31-15.6 1099.26-16.1Q1099.16-16.35 1099.16-16.9L1099.16-16.9Q1099.16-17.15 1099.16-17.4 1099.16-17.65 1099.26-17.95L1099.26-17.95Q1100.66-17.85 1102.33-17.8 1104.01-17.75 1106.11-17.75L1106.11-17.75Q1109.76-17.75 1113.01-17.9L1113.01-17.9Q1113.16-17.45 1113.16-17L1113.16-17Q1113.16-16.55 1113.01-16.1L1113.01-16.1 1108.86-15.5Q1108.76-14.55 1108.71-13.1 1108.66-11.65 1108.66-9.65L1108.66-9.65 1108.66-4.6 1108.16 0.9Q1107.96 1 1107.76 1 1107.56 1 1107.31 1L1107.31 1Q1107.06 1 1106.81 1 1106.56 1 1106.31 0.9ZM1194.73-7.3L1194.73-7.3 1194.83-7.3Q1195.33-9.35 1197.23-15.6L1197.23-15.6 1204.18-37.6 1200.13-38.1 1200.13-39.95Q1202.88-39.75 1205.43-39.75L1205.43-39.75Q1207.63-39.75 1210.83-39.9L1210.83-39.9 1210.83-38.1 1207.53-37.5Q1206.73-36.3 1205.53-33.05L1205.53-33.05 1194.18 1.5 1192.88 1.5 1183.28-26.5 1172.78 1.55 1171.43 1.5 1158.48-37.6 1154.43-38.1Q1154.23-38.85 1154.43-39.95L1154.43-39.95Q1157.18-39.75 1161.58-39.75L1161.58-39.75Q1165.63-39.75 1168.83-39.9L1168.83-39.9Q1169.13-39 1168.83-38.1L1168.83-38.1 1164.68-37.5 1171.28-15.35Q1172.53-10.85 1173.43-6.9L1173.43-6.9 1173.53-6.9Q1174.53-10.2 1176.43-15.35L1176.43-15.35 1181.93-30.55 1179.53-37.6 1175.48-38.1Q1175.28-38.85 1175.48-39.95L1175.48-39.95Q1178.23-39.75 1182.43-39.75L1182.43-39.75Q1186.23-39.75 1189.48-39.9L1189.48-39.9Q1189.78-39 1189.48-38.1L1189.48-38.1 1185.33-37.5 1192.43-15.75Q1194.08-10.35 1194.73-7.3ZM1231.37-8.1L1231.37-8.1 1231.37-37.6 1227.32-38.15Q1227.02-39.05 1227.32-39.95L1227.32-39.95 1234.17-39.8 1254.37-39.8 1254.42-28.2Q1253.32-28 1252.57-28.2L1252.57-28.2 1250.22-37.25 1236.72-37.25 1236.72-22.25 1244.72-22.4 1245.87-27.3Q1246.62-27.5 1247.72-27.3L1247.72-27.3Q1247.52-24.5 1247.52-20.85L1247.52-20.85Q1247.52-17.5 1247.67-14.35L1247.67-14.35Q1246.77-14.05 1245.87-14.35L1245.87-14.35 1244.77-19.55 1236.72-19.7 1236.72-2.55 1251.72-2.55 1254.07-11.6Q1254.82-11.8 1255.92-11.6L1255.92-11.6 1255.87 0 1234.17 0 1227.02 0.15Q1226.72-0.75 1227.02-1.65L1227.02-1.65 1231.17-2.2Q1231.37-4.75 1231.37-8.1ZM1283.66-14.65L1279.21-2.2 1283.26-1.7Q1283.46-0.95 1283.26 0.15L1283.26 0.15Q1280.11 0 1277.96 0L1277.96 0Q1276.76 0 1272.56 0.1L1272.56 0.1Q1272.26-0.8 1272.56-1.7L1272.56-1.7 1275.86-2.3Q1276.66-3.5 1277.86-6.75L1277.86-6.75 1290.76-41.25 1292.51-41.25 1307.01-2.2 1311.06-1.7Q1311.26-0.95 1311.06 0.15L1311.06 0.15Q1307.91 0 1304.01 0L1304.01 0Q1301.11 0 1296.91 0.1L1296.91 0.1Q1296.61-0.8 1296.91-1.7L1296.91-1.7 1301.06-2.3 1296.66-14.65 1283.66-14.65ZM1290.31-33.7L1290.31-33.7 1290.26-33.7Q1289.66-31.35 1288.31-27.55L1288.31-27.55 1284.56-17.15 1295.76-17.15 1292.11-27.55Q1291.06-30.6 1290.31-33.7ZM1357.2 0L1334 0 1326.85 0.15Q1326.55-0.75 1326.85-1.65L1326.85-1.65 1331-2.2Q1331.2-4.75 1331.2-8.1L1331.2-8.1 1331.2-37.6 1327.15-38.1Q1326.95-38.85 1327.15-39.95L1327.15-39.95Q1329.9-39.75 1334-39.75L1334-39.75Q1337.65-39.75 1340.9-39.9L1340.9-39.9Q1341.2-39 1340.9-38.1L1340.9-38.1 1336.75-37.5Q1336.55-35.6 1336.55-31.65L1336.55-31.65 1336.55-2.55 1353.05-2.55 1355.4-11.6Q1356.15-11.8 1357.25-11.6L1357.25-11.6 1357.2 0ZM1369.39-28.2L1369.44-39.8 1403.99-39.8 1404.04-28.2Q1402.94-28 1402.19-28.2L1402.19-28.2 1399.84-37.25 1389.44-37.25 1389.44-2.2 1394.49-1.7Q1394.69-0.95 1394.49 0.15L1394.49 0.15Q1391.34 0 1386.89 0L1386.89 0Q1383.44 0 1379.24 0.1L1379.24 0.1Q1378.94-0.8 1379.24-1.7L1379.24-1.7 1383.89-2.3Q1384.09-4.2 1384.09-8.15L1384.09-8.15 1384.09-37.25 1373.59-37.25 1371.24-28.2Q1370.49-28 1369.39-28.2L1369.39-28.2ZM1431.83-21.85L1451.53-21.85 1451.53-37.6 1447.48-38.1Q1447.28-38.85 1447.48-39.95L1447.48-39.95Q1450.23-39.75 1454.33-39.75L1454.33-39.75Q1458.03-39.75 1461.23-39.9L1461.23-39.9Q1461.53-39 1461.23-38.1L1461.23-38.1 1457.08-37.5Q1456.88-35.6 1456.88-31.65L1456.88-31.65 1456.88-2.2 1460.93-1.7Q1461.13-0.95 1460.93 0.15L1460.93 0.15Q1457.78 0 1454.08 0L1454.08 0Q1451.38 0 1447.18 0.1L1447.18 0.1Q1446.88-0.8 1447.18-1.7L1447.18-1.7 1451.33-2.3Q1451.53-4.2 1451.53-8.15L1451.53-8.15 1451.53-19.35 1431.83-19.35 1431.83-2.2 1435.88-1.7Q1436.08-0.95 1435.88 0.15L1435.88 0.15Q1432.73 0 1429.03 0L1429.03 0Q1426.33 0 1422.13 0.1L1422.13 0.1Q1421.83-0.8 1422.13-1.7L1422.13-1.7 1426.28-2.3Q1426.48-4.2 1426.48-8.15L1426.48-8.15 1426.48-37.6 1422.43-38.1Q1422.23-38.85 1422.43-39.95L1422.43-39.95Q1425.18-39.75 1429.28-39.75L1429.28-39.75Q1432.93-39.75 1436.18-39.9L1436.18-39.9Q1436.48-39 1436.18-38.1L1436.18-38.1 1432.03-37.5Q1431.83-35.6 1431.83-31.65L1431.83-31.65 1431.83-21.85ZM1483.62-5.55L1483.62-5.55Q1484.97-5.55 1485.9-4.67 1486.82-3.8 1486.82-2.5L1486.82-2.5Q1486.82-1.2 1485.9-0.28 1484.97 0.65 1483.67 0.65L1483.67 0.65Q1482.37 0.65 1481.45-0.28 1480.52-1.2 1480.52-2.5L1480.52-2.5Q1480.52-3.8 1481.42-4.67 1482.32-5.55 1483.62-5.55Z" opacity="1" transform="matrix(1,0,0,1,0,0)" fill="#050665" class="slogan-text-1" data-fill-palette-color="secondary" id="text-1"></path></svg></g></svg></g></svg></g></svg></g><g transform="matrix(1,0,0,1,0,3.6174144830348425)"><svg viewBox="0 0 124.01369314265814 84.73333585685022" height="84.73333585685022" width="124.01369314265814"><g><svg xmlns="http://www.w3.org/2000/svg" xmlns:xlink="http://www.w3.org/1999/xlink" version="1.1" x="0" y="0" viewBox="0.43162389998677614 16.6165 98.56837610001323 67.34762190606695" enable-background="new 0 0 100 100" xml:space="preserve" height="84.73333585685022" width="124.01369314265814" class="icon-icon-0" data-fill-palette-color="accent" id="icon-0"><path d="M14.236 21.619L11.369 21.773V19.842A1.434 1.434 0 0 1 14.236 19.842zM60.726 18.051A1.434 1.434 0 1 0 57.857 18.051V19.294L60.725 19.141zM0.605 76.646A1.432 1.432 0 0 0 1.864 78.761C2.374 78.761 2.867 78.49 3.127 78.011L12.396 60.892 9.409 60.386zM55.015 67.51A1.434 1.434 0 1 0 57.537 68.875L62.578 59.564 58.812 60.494zM14.236 44.929L11.369 45.27V55.242L14.236 54.781zM60.726 39.388L57.858 39.729V47.774L60.726 47.315zM38.986 65.377A0.5 0.5 0 0 1 38.896 65.369L38.715 65.338V82.567A1.435 1.435 0 0 0 41.584 82.567V64.754L39.115 65.361A0.5 0.5 0 0 1 38.986 65.377M92.378 67A1.435 1.435 0 1 0 95.247 67V51.49L92.379 52.2V67zM67.073 19.88L1.106 23.397V45.41L67.073 37.548zM99 49.457L67.398 47.32 57.427 48.935 1.361 57.938 38.967 64.292z" fill="#301c3b" data-fill-palette-color="accent"></path></svg></g></svg></g></svg></g><defs></defs></svg><rect width="395.52" height="69.29047096017628" fill="none" stroke="none" visibility="hidden"></rect></g></svg></g></svg>